<?xml version="1.0" standalone="no"?>
<!DOCTYPE svg PUBLIC "-//W3C//DTD SVG 1.1//EN" "http://www.w3.org/Graphics/SVG/1.1/DTD/svg11.dtd" >
<svg xmlns="http://www.w3.org/2000/svg" xmlns:xlink="http://www.w3.org/1999/xlink" version="1.1">
<metadata>
Created by FontForge 20170731 at Mon Jul  4 16:28:06 2016
 By Aleksey,,,
Copyright (c) 2016 by Fontsmith Ltd. All rights reserved. This font may not be altered in any way without prior permission of Fontsmith Ltd.
</metadata>
<defs>
<font id="FSSiena-SemiBold" horiz-adv-x="560" >
  <font-face 
    font-family="FS Siena SemiBold"
    font-weight="600"
    font-stretch="normal"
    units-per-em="1000"
    panose-1="2 11 6 4 7 4 2 8 2 3"
    ascent="735"
    descent="-265"
    x-height="465"
    cap-height="623"
    bbox="-476 -213 1188 870"
    underline-thickness="65"
    underline-position="-174"
    unicode-range="U+000D-FB02"
  />
<missing-glyph horiz-adv-x="664" 
d="M100 650h464v-650h-464v650zM490 604h-316l159 -237zM304 325l-157 237v-474zM518 562l-158 -237l158 -237v474zM490 47l-157 236l-159 -236h316z" />
    <glyph glyph-name="fi" unicode="fi" horiz-adv-x="599" 
d="M527 0h-127v405h-180v-405h-122v405h-83v60h83q2 99 65 158.5t167 59.5q37 0 75 -10.5t62 -28.5l-28 -50q-49 31 -96 31q-57 0 -90 -41t-33 -114v-5h307v-465z" />
    <glyph glyph-name="fl" unicode="fl" horiz-adv-x="599" 
d="M531 668v-668h-125v613q-33 12 -62 12q-57 0 -90.5 -41.5t-33.5 -113.5v-5h110v-60h-110v-405h-122v405h-83v60h83q2 99 65.5 158.5t168.5 59.5q48 0 90 -15h109z" />
    <glyph glyph-name="f_b.liga" unicode="fb" horiz-adv-x="917" 
d="M828.5 414q53.5 -65 53.5 -170q0 -73 -28 -132t-79.5 -93.5t-118.5 -34.5q-49 0 -87.5 21.5t-58.5 59.5l-19 -65h-85v613q-33 12 -62 12q-57 0 -90.5 -41.5t-33.5 -113.5v-5h110v-60h-110v-405h-122v405h-83v60h83q2 99 65.5 158.5t168.5 59.5q48 0 90 -15h109v-250
q27 30 66.5 45.5t80.5 15.5q97 0 150.5 -65zM722.5 114.5q30.5 49.5 30.5 128.5q0 72 -25.5 117t-85.5 45q-33 0 -62.5 -17t-48.5 -45v-137q0 -69 27 -105t77 -36q57 0 87.5 49.5z" />
    <glyph glyph-name="f_f.liga" unicode="ff" horiz-adv-x="643" 
d="M550 590.5q-21 -34.5 -21 -99.5v-26h120v-60h-120v-405h-123v405h-186v-405h-122v405h-83v60h83v1q0 98 48.5 152.5t140.5 54.5q32 0 55 -6.5t47 -20.5l-27 -49q-26 18 -57 18q-46 0 -65.5 -32.5t-19.5 -93.5v-24h186v11q0 96 51 151.5t148 55.5q66 0 113 -32l-27 -49
q-15 11 -33.5 17t-35.5 6q-51 0 -72 -34.5z" />
    <glyph glyph-name="f_f_b.liga" unicode="ffb" horiz-adv-x="1223" 
d="M1134.5 414q53.5 -65 53.5 -170q0 -73 -28 -132t-79.5 -93.5t-118.5 -34.5q-49 0 -87.5 21.5t-58.5 59.5l-19 -65h-85v613q-33 12 -62 12q-57 0 -90.5 -41.5t-33.5 -113.5v-5h110v-60h-110v-405h-122v405h-184v-405h-122v405h-83v60h83v1q0 98 48.5 152.5t140.5 54.5
q32 0 55 -6.5t47 -20.5l-27 -49q-26 18 -57 18q-46 0 -65.5 -32.5t-19.5 -93.5v-24h184q2 99 65.5 158.5t168.5 59.5q48 0 90 -15h109v-250q27 30 66.5 45.5t80.5 15.5q97 0 150.5 -65zM1028.5 114.5q30.5 49.5 30.5 128.5q0 72 -25.5 117t-85.5 45q-33 0 -62.5 -17
t-48.5 -45v-137q0 -69 27 -105t77 -36q57 0 87.5 49.5z" />
    <glyph glyph-name="f_f_h.liga" unicode="ffh" horiz-adv-x="1220" 
d="M1120 423q43 -57 43 -154v-269h-125v256q0 68 -18.5 107.5t-65.5 39.5q-53 0 -84 -47.5t-31 -125.5v-230h-124v612q-31 13 -63 13q-57 0 -90 -41t-33 -114v-5h110v-60h-110v-405h-123v405h-186v-405h-122v405h-83v60h83v1q0 98 48.5 152.5t140.5 54.5q32 0 55 -6.5
t47 -20.5l-27 -49q-26 18 -57 18q-46 0 -65.5 -32.5t-19.5 -93.5v-24h186q2 99 65.5 158.5t168.5 59.5q48 0 90 -15h109v-265q24 38 64 57.5t85 19.5q89 0 132 -57z" />
    <glyph glyph-name="f_f_i.liga" unicode="ffi" horiz-adv-x="908" 
d="M835 0h-126v405h-180v-405h-123v405h-186v-405h-122v405h-83v60h83v1q0 98 48.5 152.5t140.5 54.5q32 0 55 -6.5t47 -20.5l-27 -49q-26 18 -57 18q-46 0 -65.5 -32.5t-19.5 -93.5v-24h186q1 65 30.5 114.5t81.5 76.5t121 27q37 0 75 -10.5t61 -28.5l-28 -50
q-49 31 -96 31q-56 0 -89 -41.5t-33 -113.5v-5h306v-465z" />
    <glyph glyph-name="f_f_j.liga" unicode="ffj" horiz-adv-x="919" 
d="M852 130q0 -124 -40.5 -201.5t-137.5 -116.5l-26 39q42 35 61 81.5t19 131.5v341h-185v-405h-123v405h-200v-405h-122v405h-83v60h83v1q0 98 48.5 152.5t140.5 54.5q32 0 55 -6.5t47 -20.5l-27 -49q-26 18 -57 18q-46 0 -65.5 -32.5t-19.5 -93.5v-24h200q1 65 30.5 114.5
t81.5 76.5t121 27q37 0 75 -10.5t61 -28.5l-28 -50q-49 31 -96 31q-56 0 -89 -41.5t-33 -113.5v-5h309v-335z" />
    <glyph glyph-name="f_f_k.liga" unicode="ffk" horiz-adv-x="1163" 
d="M882 214h-43v-214h-124v612q-31 13 -63 13q-57 0 -90 -41t-33 -114v-5h110v-60h-110v-405h-123v405h-186v-405h-122v405h-83v60h83v1q0 98 48.5 152.5t140.5 54.5q32 0 55 -6.5t47 -20.5l-27 -49q-26 18 -57 18q-46 0 -65.5 -32.5t-19.5 -93.5v-24h186q2 99 65.5 158.5
t168.5 59.5q48 0 90 -15h109v-385h51q37 40 74 90t59 92h116q-31 -45 -77 -96t-94 -93l181 -276h-134z" />
    <glyph glyph-name="f_f_l.liga" unicode="ffl" horiz-adv-x="908" 
d="M839 668v-668h-124v612q-31 13 -63 13q-57 0 -90 -41t-33 -114v-5h110v-60h-110v-405h-123v405h-186v-405h-122v405h-83v60h83v1q0 98 48.5 152.5t140.5 54.5q32 0 55 -6.5t47 -20.5l-27 -49q-26 18 -57 18q-46 0 -65.5 -32.5t-19.5 -93.5v-24h186q2 99 65.5 158.5
t168.5 59.5q48 0 90 -15h109z" />
    <glyph glyph-name="f_f_t.liga" unicode="fft" horiz-adv-x="988" 
d="M968 31q-30 -26 -60.5 -36.5t-64.5 -10.5q-75 0 -107 48.5t-32 137.5v235h-175v-405h-123v405h-186v-405h-122v405h-83v60h83v1q0 98 48.5 152.5t140.5 54.5q32 0 55 -6.5t47 -20.5l-27 -49q-26 18 -57 18q-46 0 -65.5 -32.5t-19.5 -93.5v-24h186v11q0 96 50.5 151.5
t143.5 55.5q31 0 52.5 -5.5t44.5 -18.5l-25 -50q-25 16 -56 16q-47 0 -67 -34.5t-20 -99.5v-26h175v128h122v-128h120v-60h-120v-223q0 -62 10.5 -92.5t43.5 -30.5q30 0 59 22z" />
    <glyph glyph-name="f_h.liga" unicode="fh" horiz-adv-x="912" 
d="M811.5 423.5q42.5 -56.5 42.5 -154.5v-269h-124v256q0 68 -18.5 107.5t-65.5 39.5q-53 0 -84 -47.5t-31 -125.5v-230h-125v613q-33 12 -62 12q-57 0 -90.5 -41.5t-33.5 -113.5v-5h110v-60h-110v-405h-122v405h-83v60h83q2 99 65.5 158.5t168.5 59.5q48 0 90 -15h109v-264
q25 37 64.5 56.5t83.5 19.5q90 0 132.5 -56.5z" />
    <glyph glyph-name="f_imacron.liga" unicode="f&#x12b;" horiz-adv-x="619" 
d="M146 626q48 57 138 57q46 0 77 -14l-20 -53q-20 9 -38 9q-45 0 -64 -32.5t-19 -93.5v-34h120v-60h-120v-405h-122v405h-83v60h83v3q0 101 48 158zM607 641v-65h-232v65h232zM420 465h126v-465h-126v465z" />
    <glyph glyph-name="f_j.liga" unicode="fj" horiz-adv-x="596" 
d="M530 130q0 -124 -40.5 -201.5t-138.5 -116.5l-26 39q43 35 61.5 81t18.5 132v341h-185v-405h-122v405h-83v60h83q2 99 65 158.5t167 59.5q37 0 75 -10.5t62 -28.5l-28 -50q-49 31 -96 31q-57 0 -90 -41t-33 -114v-5h310v-335z" />
    <glyph glyph-name="f_k.liga" unicode="fk" horiz-adv-x="855" 
d="M574 214h-43v-214h-125v613q-33 12 -62 12q-57 0 -90.5 -41.5t-33.5 -113.5v-5h110v-60h-110v-405h-122v405h-83v60h83q2 99 65.5 158.5t168.5 59.5q48 0 90 -15h109v-385h51q37 40 74 90t59 92h115q-31 -45 -77 -96t-94 -93l182 -276h-134z" />
    <glyph glyph-name="f_lcaron.liga" unicode="f&#x13e;" horiz-adv-x="609" 
d="M15 0zM531 668v-668h-125v613q-33 12 -62 12q-57 0 -90.5 -41.5t-33.5 -113.5v-5h110v-60h-110v-405h-122v405h-83v60h83q2 99 65.5 158.5t168.5 59.5q48 0 90 -15h109zM580 509q1 64 10 159h95q-30 -91 -47 -159h-58z" />
    <glyph glyph-name="f_t.liga" unicode="ft" horiz-adv-x="679" 
d="M659 31q-29 -26 -59.5 -36.5t-64.5 -10.5q-75 0 -107.5 48.5t-32.5 137.5v235h-175v-405h-122v405h-83v60h83v11q0 96 49 151.5t140 55.5q30 0 50.5 -5t42.5 -18l-25 -49q-25 14 -52 14q-83 0 -83 -134v-26h175v128h123v-128h120v-60h-120v-223q0 -63 10.5 -93t43.5 -30
q29 0 58 22z" />
    <glyph glyph-name=".notdef" horiz-adv-x="664" 
d="M100 650h464v-650h-464v650zM490 604h-316l159 -237zM304 325l-157 237v-474zM518 562l-158 -237l158 -237v474zM490 47l-157 236l-159 -236h316z" />
    <glyph glyph-name=".null" horiz-adv-x="0" 
 />
    <glyph glyph-name="nonmarkingreturn" unicode="&#xd;" horiz-adv-x="205" 
 />
    <glyph glyph-name="space" unicode=" " horiz-adv-x="205" 
 />
    <glyph glyph-name="exclam" unicode="!" horiz-adv-x="300" 
d="M74 622h151q-26 -253 -34 -415h-84q-10 171 -33 415zM96 3q-20 19 -20 48q0 30 19.5 49t52.5 19q32 0 51 -19t19 -49q0 -29 -19 -48t-52 -19q-31 0 -51 19z" />
    <glyph glyph-name="quotedbl" unicode="&#x22;" horiz-adv-x="234" 
d="M5 623h101q-11 -68 -25 -204h-52q-15 152 -24 204zM146 484q-9 84 -17 139h100q-10 -68 -19 -156l-6 -48h-51z" />
    <glyph glyph-name="numbersign" unicode="#" horiz-adv-x="657" 
d="M513 380l-34 -126h118l-22 -84h-119l-47 -170h-94l47 170h-151l-47 -170h-94l47 170h-107l22 84h108l34 126h-114l22 85h116l43 158h94l-43 -158h151l43 158h94l-43 -158h110l-22 -85h-112zM419 380h-151l-34 -126h151z" />
    <glyph glyph-name="dollar" unicode="$" horiz-adv-x="512" 
d="M425.5 69.5q-43.5 -41.5 -123.5 -51.5v-81h-58v79q-50 3 -104.5 23.5t-89.5 52.5l44 67q76 -58 150 -65v161l-56 28q-66 31 -96.5 68t-30.5 91q0 71 49.5 112.5t133.5 49.5v64h58v-62q45 -2 84 -14t68 -32l-35 -69q-56 39 -117 42v-172l50 -26q59 -30 88 -66t29 -93
q0 -65 -43.5 -106.5zM190 428q15 -16 54 -36v139q-69 -11 -69 -62q0 -25 15 -41zM362 151q0 24 -13 40t-47 35v-130q60 9 60 55z" />
    <glyph glyph-name="percent" unicode="%" horiz-adv-x="656" 
d="M66 400.5q-36 41.5 -36 97.5q0 36 16.5 68t48 52t74.5 20q65 0 100 -41t35 -98q0 -36 -15.5 -68t-46.5 -52t-74 -20q-66 0 -102 41.5zM483 623h88l-409 -623h-88zM210 428.5q14 27.5 14 70.5q0 42 -14 69.5t-42 27.5t-42.5 -28t-14.5 -70t15 -69.5t43 -27.5q27 0 41 27.5
zM415 4q-31 20 -47 52t-16 68t16.5 68t48 52t74.5 20q65 0 100 -41t35 -98q0 -36 -15.5 -68.5t-46.5 -52.5t-74 -20q-44 0 -75 20zM532 55q14 28 14 70t-14 69.5t-42 27.5t-42.5 -28t-14.5 -70q0 -41 15 -69t43 -28q27 0 41 28z" />
    <glyph glyph-name="ampersand" unicode="&#x26;" horiz-adv-x="610" 
d="M460 0l-41 49q-77 -65 -187 -65q-88 0 -142.5 42t-54.5 119q0 62 40 110.5t109 74.5q-37 46 -56.5 83t-19.5 76q0 68 53 108.5t135 40.5q79 0 122.5 -34.5t43.5 -91.5q0 -50 -38 -92.5t-107 -69.5l136 -167q26 51 26 127q0 30 -1 43h79q0 -57 -15.5 -113.5t-50.5 -103.5
l111 -136h-142zM240 567.5q-19 -21.5 -19 -57.5q0 -27 14 -52t51 -71q73 48 73 122q0 37 -18.5 58.5t-46.5 21.5q-35 0 -54 -21.5zM380 95l-162 193q-30 -25 -44.5 -54t-14.5 -69q0 -47 31 -77.5t85 -30.5q60 0 105 38z" />
    <glyph glyph-name="quotesingle" unicode="'" horiz-adv-x="111" 
d="M5 623h101q-12 -75 -25 -204h-52q-12 124 -24 204z" />
    <glyph glyph-name="parenleft" unicode="(" horiz-adv-x="303" 
d="M43 230q0 117 44.5 218t131.5 175h75q-59 -71 -87.5 -173.5t-28.5 -219.5q0 -115 28.5 -215.5t87.5 -172.5h-75q-176 150 -176 388z" />
    <glyph glyph-name="parenright" unicode=")" horiz-adv-x="303" 
d="M260 235q0 -117 -44.5 -218t-131.5 -175h-75q59 71 87.5 173.5t28.5 219.5q0 115 -28.5 215.5t-87.5 172.5h75q176 -150 176 -388z" />
    <glyph glyph-name="asterisk" unicode="*" horiz-adv-x="283" 
d="M127 486q-36 -27 -83 -74l-43 95q61 5 113 12q-60 38 -98 57l77 70q26 -63 47 -106q8 32 23 112l90 -52q-38 -31 -85 -74q63 4 113 10l-21 -102q-30 20 -98 57q20 -53 46 -103l-105 -11q11 39 24 109z" />
    <glyph glyph-name="plus" unicode="+" 
d="M487 196h-169v-181h-76v181h-169v69h169v181h76v-181h169v-69z" />
    <glyph glyph-name="comma" unicode="," horiz-adv-x="218" 
d="M170.5 89.5q21.5 -27.5 21.5 -74.5q0 -64 -35 -111t-103 -74l-28 45q95 47 95 114v2q-12 -6 -25 -6q-26 0 -42.5 17.5t-16.5 46.5t21 48.5t52 19.5q39 0 60.5 -27.5z" />
    <glyph glyph-name="hyphen" unicode="-" horiz-adv-x="310" 
d="M40 267h230v-70h-230v70z" />
    <glyph glyph-name="period" unicode="." horiz-adv-x="218" 
d="M58 3q-20 19 -20 48q0 30 19.5 49t52.5 19q32 0 51 -19t19 -49q0 -29 -19 -48t-52 -19q-31 0 -51 19z" />
    <glyph glyph-name="slash" unicode="/" horiz-adv-x="331" 
d="M246 623h85l-247 -780h-84z" />
    <glyph glyph-name="zero" unicode="0" horiz-adv-x="624" 
d="M120.5 75.5q-62.5 91.5 -62.5 235.5q0 91 32 165.5t93 118t143 43.5q125 0 188 -91t63 -235q0 -90 -32.5 -165t-93.5 -119t-143 -44q-125 0 -187.5 91.5zM408 128q30 75 30 184q0 111 -26.5 184.5t-89.5 73.5q-68 0 -97 -74.5t-29 -184.5q0 -111 26.5 -184.5t88.5 -73.5
q67 0 97 75z" />
    <glyph glyph-name="one" unicode="1" horiz-adv-x="394" 
d="M312 623v-623h-128v476q-30 -16 -65.5 -30t-65.5 -22l-22 52q121 64 210 147h71z" />
    <glyph glyph-name="two" unicode="2" horiz-adv-x="502" 
d="M459 105v-105h-428v84q142 107 220 196.5t78 175.5q0 49 -28.5 77t-85.5 28q-71 0 -142 -55l-37 59q47 35 103.5 54t112.5 19q98 0 151 -45t53 -125q0 -85 -78.5 -178.5t-212.5 -184.5h294z" />
    <glyph glyph-name="three" unicode="3" horiz-adv-x="499" 
d="M416.5 309q49.5 -47 49.5 -124q0 -62 -31.5 -107.5t-87.5 -69.5t-129 -24q-52 0 -96.5 12t-83.5 38l37 65q61 -44 135 -44q57 0 92.5 32t35.5 86q0 53 -33.5 83.5t-95.5 30.5q-39 0 -71 -13v65q96 101 190 189h-267v95h375v-90q-93 -79 -198 -181q19 4 40 4
q89 0 138.5 -47z" />
    <glyph glyph-name="four" unicode="4" horiz-adv-x="528" 
d="M510 126h-61v-126h-117v126h-316v81q189 184 233 416h152q-30 -99 -113 -218.5t-177 -194.5h221v151h117v-151h61v-84z" />
    <glyph glyph-name="five" unicode="5" horiz-adv-x="508" 
d="M417 338q54 -55 54 -141q0 -64 -30 -112t-86 -74.5t-130 -26.5q-53 0 -97 12t-83 39l37 64q61 -44 135 -44q57 0 91 36.5t34 95.5q0 58 -34 92t-99 34q-66 0 -119 -23v333h355v-98h-280v-146q43 14 93 14q105 0 159 -55z" />
    <glyph glyph-name="six" unicode="6" horiz-adv-x="573" 
d="M482.5 354.5q53.5 -52.5 53.5 -146.5q0 -67 -33 -118t-86.5 -78.5t-113.5 -27.5q-127 0 -186 82t-59 213q0 99 33.5 180t102.5 130t169 49q82 0 144 -33l-36 -63q-27 15 -51.5 22t-57.5 7q-87 0 -133.5 -61.5t-48.5 -166.5q32 30 74 47t84 17q91 0 144.5 -52.5zM389 87
q31 42 31 103q0 63 -28.5 102t-86.5 39q-32 0 -65.5 -15t-59.5 -45q3 -106 31.5 -166t91.5 -60q55 0 86 42z" />
    <glyph glyph-name="seven" unicode="7" horiz-adv-x="421" 
d="M413 623v-90q-89 -100 -135 -219.5t-46 -270.5v-43h-119v39q0 118 54.5 247t159.5 238h-309v99h395z" />
    <glyph glyph-name="eight" unicode="8" horiz-adv-x="568" 
d="M491 260q34 -39 34 -99q0 -50 -29.5 -90.5t-83.5 -63.5t-125 -23q-111 0 -172.5 44t-61.5 121q0 53 37 97t98 63q-53 28 -83 63.5t-30 96.5q0 45 27 84t77.5 62t119.5 23q61 0 109 -18.5t74.5 -52.5t26.5 -79q0 -50 -37 -90t-98 -58l15 -7q68 -34 102 -73zM217 556.5
q-29 -25.5 -29 -64.5q0 -38 24.5 -60t72.5 -46l33 -17q37 23 58 53.5t21 63.5q0 38 -27.5 67t-78.5 29q-45 0 -74 -25.5zM374 69q30 26 30 68q0 38 -24 62.5t-80 53.5l-54 27q-71 -43 -71 -125q0 -47 33 -79.5t89 -32.5q47 0 77 26z" />
    <glyph glyph-name="nine" unicode="9" horiz-adv-x="577" 
d="M478.5 550.5q56.5 -87.5 56.5 -222.5q0 -98 -32 -175.5t-98.5 -123t-163.5 -45.5q-43 0 -87 9.5t-76 28.5l32 64q61 -35 135 -35q81 0 124 63t44 167q-26 -31 -67.5 -48.5t-89.5 -17.5q-88 0 -143.5 53t-55.5 147q0 68 31 118.5t85.5 77.5t121.5 27q127 0 183.5 -87.5z
M356 307q32 15 57 43q-1 106 -28 166t-91 60q-58 0 -89 -43.5t-31 -102.5t31 -98.5t83 -39.5q36 0 68 15z" />
    <glyph glyph-name="colon" unicode=":" horiz-adv-x="218" 
d="M38 0zM58 3q-20 19 -20 48q0 30 19.5 49t52.5 19q32 0 51 -19t19 -49q0 -29 -19 -48t-52 -19q-31 0 -51 19zM58 295q-20 19 -20 48q0 30 19.5 49t52.5 19q32 0 51 -19t19 -49q0 -29 -19 -48t-52 -19q-31 0 -51 19z" />
    <glyph glyph-name="semicolon" unicode=";" horiz-adv-x="218" 
d="M26 0zM170.5 89.5q21.5 -27.5 21.5 -74.5q0 -64 -35 -111t-103 -74l-28 45q95 47 95 114v2q-12 -6 -25 -6q-26 0 -42.5 17.5t-16.5 46.5t21 48.5t52 19.5q39 0 60.5 -27.5zM62 295q-20 19 -20 48q0 30 19.5 49t52.5 19q32 0 51 -19t19 -49q0 -29 -19 -48t-52 -19
q-31 0 -51 19z" />
    <glyph glyph-name="less" unicode="&#x3c;" 
d="M472 374l-302 -141l302 -141v-82l-401 191v60l401 191v-78z" />
    <glyph glyph-name="equal" unicode="=" 
d="M73 361h414v-69h-414v69zM73 172h414v-70h-414v70z" />
    <glyph glyph-name="greater" unicode="&#x3e;" 
d="M489 262v-60l-401 -191v78l302 141l-302 141v82z" />
    <glyph glyph-name="question" unicode="?" horiz-adv-x="424" 
d="M132 253q0 66 42 109q9 9 39 34q29 24 41.5 41t12.5 47q0 34 -24.5 55.5t-66.5 21.5q-65 0 -124 -49l-39 59q33 29 84.5 48t107.5 19q93 0 141 -41t48 -103q0 -48 -28 -83.5t-79 -70.5q-44 -31 -59 -59.5t-12 -73.5h-78q-6 21 -6 46zM127.5 3q-20.5 19 -20.5 48
q0 30 19.5 49t52.5 19q32 0 51.5 -19t19.5 -49q0 -29 -19 -48t-52 -19q-31 0 -51.5 19z" />
    <glyph glyph-name="at" unicode="@" horiz-adv-x="867" 
d="M514 295q1 48 -18.5 74t-66.5 26q-65 0 -120 -35l-24 46q30 22 75 35t88 13q169 0 163 -155l-4 -112q-1 -37 8.5 -58t35.5 -21q48 0 69 51t21 133t-34 145t-98 98t-151 35q-89 0 -161 -40t-114 -118t-42 -186q0 -102 37.5 -175.5t103.5 -112t151 -38.5q69 0 126.5 18
t111.5 63l33 -53q-60 -51 -134 -73.5t-152 -22.5q-123 0 -210.5 50.5t-132.5 138.5t-45 197q0 123 58 217t159.5 146t227.5 52q103 0 187.5 -38t134.5 -113t50 -182q0 -112 -52.5 -185t-163.5 -73q-39 0 -68 16.5t-39 49.5q-19 -32 -53.5 -48.5t-76.5 -16.5q-57 0 -94 31
t-37 87q0 65 50.5 100t134.5 35q38 0 66 -6v5zM485.5 137q24.5 27 25.5 82l1 29q-25 5 -53 5q-48 0 -74 -19.5t-26 -55.5q0 -32 17.5 -50t45.5 -18q39 0 63.5 27z" />
    <glyph glyph-name="A" unicode="A" horiz-adv-x="600" 
d="M393 165h-219l-56 -165h-95l240 623h101l222 -623h-141zM373 231l-85 268l-91 -268h176z" />
    <glyph glyph-name="B" unicode="B" horiz-adv-x="591" 
d="M515 277q37 -41 37 -100q0 -90 -74 -138.5t-201 -48.5q-90 0 -184 13v617q63 12 163 12q259 0 259 -158q0 -48 -27.5 -86t-78.5 -56q69 -14 106 -55zM220 569v-214h42q63 0 95.5 28.5t32.5 84.5q0 50 -32.5 77t-93.5 27q-20 0 -44 -3zM380.5 84q40.5 32 40.5 93
q0 58 -40.5 87.5t-116.5 29.5h-44v-238q24 -4 46 -4q74 0 114.5 32z" />
    <glyph glyph-name="C" unicode="C" horiz-adv-x="576" 
d="M195.5 23.5q-70.5 39.5 -108.5 112t-38 169.5q0 95 43 171t120.5 119t175.5 43q102 0 176 -48l-38 -67q-56 42 -126 42q-68 0 -115 -33.5t-71 -89.5t-24 -125q0 -70 22 -127.5t67 -92.5t112 -35q80 0 140 45l35 -59q-39 -31 -93 -47.5t-111 -16.5q-96 0 -166.5 39.5z" />
    <glyph glyph-name="D" unicode="D" horiz-adv-x="712" 
d="M562.5 548.5q92.5 -83.5 92.5 -228.5q0 -89 -38.5 -163.5t-124 -121t-218.5 -46.5q-96 0 -181 13v618q87 12 182 12q195 0 287.5 -83.5zM461 130.5q58 74.5 58 186.5q0 117 -58.5 184t-181.5 67q-25 0 -58 -5v-503q28 -4 62 -4q120 0 178 74.5z" />
    <glyph glyph-name="E" unicode="E" horiz-adv-x="519" 
d="M391 72q39 2 88 8v-80h-386v623h381v-78q-83 8 -183 8h-70v-204h22q106 0 182 5v-78q-81 4 -182 4h-22v-210h75q56 0 95 2z" />
    <glyph glyph-name="F" unicode="F" horiz-adv-x="471" 
d="M222 554v-209h22q113 0 174 4v-78q-81 4 -174 4h-22v-275h-129v623h375v-78q-46 5 -84.5 7t-98.5 2h-63z" />
    <glyph glyph-name="G" unicode="G" horiz-adv-x="659" 
d="M599 331v-282q-44 -31 -105.5 -48t-129.5 -17q-97 0 -168 38.5t-109 110.5t-38 170q0 97 43.5 173t122 119t180.5 43q118 0 198 -55l-40 -65q-69 49 -149 49q-69 0 -118 -33.5t-74.5 -91.5t-25.5 -130q0 -111 52 -184t153 -73q56 0 98 23v185h-130v68h240z" />
    <glyph glyph-name="H" unicode="H" horiz-adv-x="727" 
d="M644 623v-623h-129v286h-293v-286h-129v623h129v-268h293v268h129z" />
    <glyph glyph-name="I" unicode="I" horiz-adv-x="304" 
d="M93 623h129v-623h-129v623z" />
    <glyph glyph-name="J" unicode="J" horiz-adv-x="307" 
d="M15 -96q52 33 71 77t19 129v513h129v-452q0 -119 -45 -195.5t-147 -115.5z" />
    <glyph glyph-name="K" unicode="K" horiz-adv-x="616" 
d="M267 284h-45v-284h-129v623h129v-266h51q118 137 186 266h134q-74 -112 -231 -267l234 -356h-145z" />
    <glyph glyph-name="L" unicode="L" horiz-adv-x="457" 
d="M455 82v-82h-362v623h129v-549h47q102 0 186 8z" />
    <glyph glyph-name="M" unicode="M" horiz-adv-x="836" 
d="M648 0l-24 459l-189 -414h-66l-189 412l-17 -457h-89l42 623h118l198 -429l191 429h115l34 -623h-124z" />
    <glyph glyph-name="N" unicode="N" horiz-adv-x="676" 
d="M599 623v-623h-69l-357 414v-414h-85v623h68l357 -425v425h86z" />
    <glyph glyph-name="O" unicode="O" horiz-adv-x="723" 
d="M196.5 21q-70.5 37 -109 109.5t-38.5 174.5q0 97 42 172.5t115.5 118t164.5 42.5q145 0 229 -83t84 -237q0 -97 -42.5 -173t-116 -118.5t-163.5 -42.5q-95 0 -165.5 37zM459.5 88q41.5 35 64 94t22.5 128q0 72 -20 131t-60 94t-97 35q-54 0 -96 -35t-64.5 -94t-22.5 -128
q0 -72 20.5 -131t60.5 -94t97 -35q54 0 95.5 35z" />
    <glyph glyph-name="P" unicode="P" horiz-adv-x="547" 
d="M464 580.5q73 -51.5 73 -153.5q0 -65 -32 -114t-90 -75.5t-134 -26.5q-28 0 -59 3v-214h-129v620q29 6 75 9t88 3q135 0 208 -51.5zM369.5 315q36.5 41 36.5 111q0 145 -151 145q-20 0 -33 -2v-293q24 -2 36 -2q75 0 111.5 41z" />
    <glyph glyph-name="Q" unicode="Q" horiz-adv-x="745" 
d="M773 -99q-32 -34 -83.5 -56.5t-113.5 -22.5q-92 0 -161.5 41.5t-104.5 123.5q-122 15 -191.5 97t-69.5 221q0 97 42 172.5t115.5 118t164.5 42.5q145 0 229 -83t84 -237q0 -82 -31 -150t-86 -113t-127 -62q20 -53 62.5 -79t89.5 -26q85 0 145 57zM206.5 182
q20.5 -59 60.5 -94t97 -35q54 0 95.5 35t64 94t22.5 128q0 72 -20 131t-60 94t-97 35q-54 0 -96 -35t-64.5 -94t-22.5 -128q0 -72 20.5 -131z" />
    <glyph glyph-name="R" unicode="R" horiz-adv-x="598" 
d="M429 0l-144 244h-5q-19 0 -59 2v-246h-128v620q28 5 78 8.5t84 3.5q140 0 209.5 -49t69.5 -143q0 -58 -34.5 -104t-94.5 -70l168 -266h-144zM254 307q74 0 112 38.5t38 97.5q0 61 -35.5 94.5t-106.5 33.5q-26 0 -41 -2v-259q18 -3 33 -3z" />
    <glyph glyph-name="S" unicode="S" horiz-adv-x="527" 
d="M142 1q-53 17 -92 51l42 66q75 -61 158 -61q50 0 82.5 22.5t32.5 62.5q0 35 -24 59t-80 51l-83 43q-61 31 -89 70.5t-28 97.5q0 54 30 93.5t81.5 60.5t114.5 21q112 0 183 -49l-34 -66q-38 24 -72.5 35t-74.5 11q-47 0 -76.5 -20t-29.5 -55q0 -32 20 -51.5t72 -46.5
l89 -46q62 -33 91 -76t29 -100t-29 -100t-81.5 -66.5t-122.5 -23.5q-56 0 -109 17z" />
    <glyph glyph-name="T" unicode="T" horiz-adv-x="500" 
d="M500 623v-78q-80 9 -151 9h-31v-554h-129v554h-32q-70 0 -151 -9v78h494z" />
    <glyph glyph-name="U" unicode="U" horiz-adv-x="649" 
d="M141.5 55q-62.5 71 -62.5 200v368h129v-333q0 -106 33 -165t110 -59q78 0 114.5 50t36.5 149v358h88v-357q0 -131 -63.5 -206.5t-192.5 -75.5q-130 0 -192.5 71z" />
    <glyph glyph-name="V" unicode="V" horiz-adv-x="578" 
d="M576 623q-118 -351 -238 -623h-78l-244 623h140l175 -473q81 236 129 473h116z" />
    <glyph glyph-name="W" unicode="W" horiz-adv-x="886" 
d="M874 623q-60 -204 -104.5 -345t-97.5 -278h-79l-135 431q-67 -233 -153 -431h-79l-203 623h138l138 -457q75 216 136 457h76l150 -457q33 135 56 239t42 218h115z" />
    <glyph glyph-name="X" unicode="X" horiz-adv-x="626" 
d="M459 0l-153 242q-73 -126 -129 -242h-134q103 149 217 301l-216 322h151l147 -229q67 114 125 229h130q-111 -157 -211 -283l217 -340h-144z" />
    <glyph glyph-name="Y" unicode="Y" horiz-adv-x="549" 
d="M353 274v-274h-129v265l-220 358h149l164 -282q85 176 129 282h109q-128 -233 -202 -349z" />
    <glyph glyph-name="Z" unicode="Z" horiz-adv-x="541" 
d="M412 70q51 1 94 5v-75h-462v69l304 486h-102q-127 0 -201 -7v75h458v-63l-311 -491h113q56 0 107 1z" />
    <glyph glyph-name="bracketleft" unicode="[" horiz-adv-x="312" 
d="M65 623h227v-66h-99v-650h99v-65h-227v781z" />
    <glyph glyph-name="backslash" unicode="\" horiz-adv-x="331" 
d="M247 -157l-247 780h85l246 -780h-84z" />
    <glyph glyph-name="bracketright" unicode="]" horiz-adv-x="312" 
d="M247 -158h-227v66h99v650h-99v65h227v-781z" />
    <glyph glyph-name="asciicircum" unicode="^" 
d="M408 282l-128 260l-129 -260h-82l174 341h74l175 -341h-84z" />
    <glyph glyph-name="underscore" unicode="_" horiz-adv-x="480" 
d="M40 -26h400v-73h-400v73z" />
    <glyph glyph-name="grave" unicode="`" horiz-adv-x="543" 
d="M156 522zM156 599l60 78q110 -74 162 -118l-24 -37q-124 52 -198 77z" />
    <glyph glyph-name="a" unicode="a" horiz-adv-x="519" 
d="M462 278v-278h-85l-20 70q-25 -43 -68 -64.5t-96 -21.5q-73 0 -117.5 38.5t-44.5 104.5q0 81 59 121.5t163 40.5q45 0 86 -7v8q0 59 -23.5 89.5t-83.5 30.5q-32 0 -68 -12t-69 -35l-33 58q38 27 93.5 43t101.5 16q205 0 205 -202zM309 96.5q30 39.5 30 110.5v22
q-32 6 -66 6q-57 0 -91.5 -24.5t-34.5 -70.5q0 -39 23.5 -61t58.5 -22q50 0 80 39.5z" />
    <glyph glyph-name="b" unicode="b" horiz-adv-x="580" 
d="M491.5 414q53.5 -65 53.5 -170q0 -73 -28 -132t-80 -93.5t-119 -34.5q-49 0 -87.5 21.5t-58.5 59.5l-19 -65h-84v668h124v-251q27 31 67 46.5t81 15.5q97 0 150.5 -65zM385.5 114.5q30.5 49.5 30.5 128.5q0 72 -26 117t-86 45q-33 0 -63 -17t-48 -46v-136
q0 -69 27.5 -105t76.5 -36q58 0 88.5 49.5z" />
    <glyph glyph-name="c" unicode="c" horiz-adv-x="444" 
d="M146.5 14.5q-54.5 30.5 -83 84.5t-28.5 124q0 75 32.5 133.5t91.5 91t136 32.5q39 0 75 -9.5t61 -28.5l-30 -56q-41 30 -91 30q-48 0 -80.5 -26t-48 -66.5t-15.5 -85.5q0 -80 34 -131t104 -51q55 0 98 35l33 -53q-33 -27 -73.5 -40.5t-84.5 -13.5q-76 0 -130.5 30.5z" />
    <glyph glyph-name="d" unicode="d" horiz-adv-x="580" 
d="M511 668v-668h-84l-22 78q-22 -48 -65 -71t-97 -23q-96 0 -152 66.5t-56 178.5q0 70 29 127.5t82.5 90.5t123.5 33q35 0 65.5 -11t51.5 -32v231h124zM356 104.5q31 41.5 31 113.5v140q-36 50 -97 50q-62 0 -94 -49.5t-32 -124.5q0 -76 28 -123.5t83 -47.5q50 0 81 41.5z
" />
    <glyph glyph-name="e" unicode="e" horiz-adv-x="507" 
d="M473 218h-312q3 -74 42 -119t106 -45q66 0 116 37l33 -52q-38 -30 -78 -42.5t-90 -12.5q-125 0 -190 67t-65 176q0 72 31 129.5t85.5 90.5t121.5 33q97 0 151.5 -58t54.5 -149q0 -35 -6 -55zM193.5 382q-28.5 -43 -32.5 -106h191q1 11 1 30q0 49 -21.5 84t-64.5 35
q-45 0 -73.5 -43z" />
    <glyph glyph-name="f" unicode="f" horiz-adv-x="334" 
d="M241.5 590.5q-21.5 -34.5 -21.5 -99.5v-26h120v-60h-120v-405h-122v405h-83v60h83v11q0 96 51 151.5t147 55.5q67 0 113 -32l-26 -49q-15 11 -33.5 17t-35.5 6q-51 0 -72.5 -34.5z" />
    <glyph glyph-name="g" unicode="g" horiz-adv-x="574" 
d="M510 465v-416q0 -128 -62 -195t-182 -67q-49 0 -90 9t-81 31l29 67q67 -37 137 -37q128 0 128 164v56q-18 -40 -58.5 -62.5t-91.5 -22.5q-94 0 -149 66t-55 175q0 70 29 126t82 88.5t123 32.5q48 0 85.5 -18.5t60.5 -52.5l15 56h80zM355.5 111.5q31.5 41.5 31.5 111.5
v133q-38 52 -97 52q-62 0 -94 -48.5t-32 -122.5q0 -75 28 -121t83 -46q49 0 80.5 41.5z" />
    <glyph glyph-name="h" unicode="h" horiz-adv-x="575" 
d="M474 423q43 -57 43 -154v-269h-124v256q0 68 -19 107.5t-65 39.5q-54 0 -85 -47.5t-31 -125.5v-230h-124v668h124v-266q25 38 65 58t84 20q89 0 132 -57z" />
    <glyph glyph-name="i" unicode="i" horiz-adv-x="270" 
d="M78 559q-19 18 -19 48t19 49t57 19t57.5 -19t19.5 -48q0 -30 -20.5 -48.5t-57.5 -18.5t-56 18zM72 465h126v-465h-126v465z" />
    <glyph glyph-name="j" unicode="j" horiz-adv-x="268" 
d="M82 559q-19 18 -19 48t19 49t57 19t57 -18.5t19 -48.5t-20 -48.5t-57 -18.5t-56 18zM-4 -149q43 35 62 81.5t19 131.5v401h124v-335q0 -124 -40 -201.5t-138 -116.5z" />
    <glyph glyph-name="k" unicode="k" horiz-adv-x="517" 
d="M237 214h-44v-214h-124v668h124v-385h51q38 40 75 90.5t59 91.5h115q-31 -45 -77 -96t-94 -93l182 -276h-134z" />
    <glyph glyph-name="l" unicode="l" horiz-adv-x="262" 
d="M69 668h124v-668h-124v668z" />
    <glyph glyph-name="m" unicode="m" horiz-adv-x="871" 
d="M767.5 426q38.5 -54 38.5 -153v-273h-124v268q0 64 -15.5 101t-61.5 37q-43 0 -71 -37.5t-28 -105.5v-263h-124v268q0 63 -17 100.5t-64 37.5q-43 0 -72.5 -38.5t-29.5 -106.5v-261h-124v465h84l20 -74q24 43 68 66t93 23q52 0 87.5 -23.5t54.5 -66.5q25 44 67.5 67
t92.5 23q87 0 125.5 -54z" />
    <glyph glyph-name="n" unicode="n" horiz-adv-x="589" 
d="M482 423.5q43 -56.5 43 -156.5v-267h-125v254q0 71 -18.5 110t-65.5 39q-55 0 -85 -47.5t-30 -129.5v-226h-126v465h84l23 -84q25 47 68 73t98 26q91 0 134 -56.5z" />
    <glyph glyph-name="o" unicode="o" horiz-adv-x="550" 
d="M97.5 50.5q-62.5 66.5 -62.5 180.5q0 71 31.5 127.5t86.5 89t122 32.5q115 0 177.5 -66t62.5 -180q0 -71 -31.5 -128t-86.5 -89.5t-122 -32.5q-115 0 -177.5 66.5zM357 101q28 58 28 133q0 78 -25 133t-83 55q-55 0 -83.5 -58.5t-28.5 -132.5q0 -78 26 -133t84 -55
q54 0 82 58z" />
    <glyph glyph-name="p" unicode="p" horiz-adv-x="580" 
d="M491 414q54 -66 54 -173q0 -72 -28.5 -130.5t-79 -92.5t-113.5 -34q-43 0 -76.5 15.5t-54.5 43.5v-241h-124v663h84l18 -63q33 40 77.5 59t91.5 19q97 0 151 -66zM384.5 114.5q31.5 49.5 31.5 124.5q0 73 -25.5 120t-80.5 47q-35 0 -65.5 -17t-51.5 -50v-126
q0 -74 27.5 -111t77.5 -37q55 0 86.5 49.5z" />
    <glyph glyph-name="q" unicode="q" horiz-adv-x="570" 
d="M511 465v-663h-124v264q-19 -39 -58.5 -60.5t-88.5 -21.5q-63 0 -109.5 31t-71 86.5t-24.5 127.5q0 70 29 127.5t82.5 90.5t123.5 33q48 0 85 -18.5t60 -52.5l16 56h80zM356 104.5q31 41.5 31 112.5v139q-38 52 -96 52q-63 0 -95 -50t-32 -125q0 -77 28.5 -123.5
t83.5 -46.5q49 0 80 41.5z" />
    <glyph glyph-name="r" unicode="r" horiz-adv-x="359" 
d="M354 468v-94q-18 4 -32 4q-121 0 -121 -137v-241h-126v465h82l27 -90q20 47 55 72.5t81 25.5q23 0 34 -5z" />
    <glyph glyph-name="s" unicode="s" horiz-adv-x="427" 
d="M34 43l34 60q66 -49 136 -49q86 0 86 54q0 23 -16.5 39.5t-53.5 31.5l-67 26q-53 22 -79.5 54t-26.5 79q0 67 54 104.5t134 37.5q92 0 151 -39l-27 -61q-55 36 -121 36q-38 0 -60.5 -14.5t-22.5 -38.5q0 -22 16 -36t52 -29l67 -29q55 -24 81.5 -57t26.5 -82
q0 -68 -50 -107t-136 -39q-99 0 -178 59z" />
    <glyph glyph-name="t" unicode="t" horiz-adv-x="378" 
d="M358 31q-30 -26 -60 -36.5t-64 -10.5q-76 0 -108 48t-32 138v235h-83v60h83v128h123v-128h120v-60h-120v-223q0 -63 10.5 -93t42.5 -30q30 0 59 22z" />
    <glyph glyph-name="u" unicode="u" horiz-adv-x="584" 
d="M512 465v-465h-85l-22 81q-24 -48 -67.5 -72.5t-96.5 -24.5q-85 0 -129 56.5t-44 151.5v273h124v-258q0 -146 87 -146q47 0 76.5 45.5t29.5 118.5v240h127z" />
    <glyph glyph-name="v" unicode="v" horiz-adv-x="468" 
d="M463 465q-109 -292 -192 -465h-79l-193 465h135l128 -334q60 169 96 334h105z" />
    <glyph glyph-name="w" unicode="w" horiz-adv-x="706" 
d="M700 465q-87 -300 -160 -465h-85l-99 298q-52 -167 -108 -298h-85l-160 465h123l110 -339q50 132 107 339h66l113 -341q48 154 80 341h98z" />
    <glyph glyph-name="x" unicode="x" horiz-adv-x="498" 
d="M342 0l-112 170q-51 -86 -97 -170h-110q86 116 167 220l-165 245h141l106 -160q47 70 97 160h109q-76 -98 -169 -210l173 -255h-140z" />
    <glyph glyph-name="y" unicode="y" horiz-adv-x="577" 
d="M510 465v-419q0 -128 -63 -193.5t-182 -65.5q-48 0 -89 9t-80 32l28 66q38 -20 70.5 -28.5t66.5 -8.5q68 0 98 40t30 119v60q-16 -38 -57 -61t-91 -23q-86 0 -129.5 53.5t-43.5 155.5v264h124v-251q0 -145 85 -145q49 0 79 43t30 115v238h124z" />
    <glyph glyph-name="z" unicode="z" horiz-adv-x="440" 
d="M407 417l-231 -357h228v-60h-366v53l235 352l-231 -1v61h365v-48z" />
    <glyph glyph-name="braceleft" unicode="{" horiz-adv-x="328" 
d="M198 526q0 -19 6.5 -37t19.5 -48q14 -30 22 -54.5t8 -49.5q0 -81 -71 -105q71 -22 71 -103q0 -25 -7.5 -48.5t-22.5 -55.5q-14 -32 -20 -50t-6 -36q0 -62 64 -62q19 0 34 6v-48q-10 -4 -29.5 -6.5t-36.5 -2.5q-68 0 -111 32t-43 89q0 23 7 45.5t21 53.5q13 29 20 50.5
t7 41.5q0 65 -66 65h-10v59h10q66 0 66 66q0 21 -7 41.5t-20 50.5q-14 32 -21 53.5t-7 43.5q0 57 42.5 89t111.5 32q17 0 36.5 -2.5t29.5 -6.5v-47q-15 6 -34 6q-64 0 -64 -62z" />
    <glyph glyph-name="bar" unicode="|" horiz-adv-x="251" 
d="M85 668h81v-866h-81v866z" />
    <glyph glyph-name="braceright" unicode="}" horiz-adv-x="328" 
d="M273 262v-59h-10q-66 0 -66 -66q0 -21 7 -41.5t20 -50.5q14 -32 21 -53.5t7 -43.5q0 -57 -42.5 -89t-111.5 -32q-17 0 -36.5 2.5t-29.5 6.5v47q15 -6 34 -6q64 0 64 62q0 19 -6.5 37t-19.5 48q-14 30 -22 54.5t-8 49.5q0 81 71 105q-71 22 -71 103q0 25 7.5 48.5
t22.5 55.5q14 32 20 50t6 36q0 62 -64 62q-19 0 -34 -6v48q10 4 29.5 6.5t36.5 2.5q68 0 111 -32t43 -89q0 -23 -7 -45.5t-21 -53.5q-13 -29 -20 -50.5t-7 -41.5q0 -65 66 -65h10z" />
    <glyph glyph-name="asciitilde" unicode="~" 
d="M53 203q45 103 130 103q18 0 33.5 -3t39.5 -13l77 -30q21 -8 32.5 -11t22.5 -3q19 0 35.5 13.5t32.5 44.5l51 -27q-23 -50 -53 -76.5t-72 -26.5q-31 0 -65 14l-72 29q-27 11 -40 15t-30 4q-23 0 -39.5 -12t-33.5 -48z" />
    <glyph glyph-name="uni00A0" unicode="&#xa0;" horiz-adv-x="205" 
 />
    <glyph glyph-name="exclamdown" unicode="&#xa1;" horiz-adv-x="300" 
d="M204 461q20 -19 20 -48q0 -30 -19.5 -49t-52.5 -19q-32 0 -51 19t-19 49q0 29 19 48t52 19q31 0 51 -19zM226 -158h-151q26 253 34 415h84q10 -171 33 -415z" />
    <glyph glyph-name="cent" unicode="&#xa2;" horiz-adv-x="473" 
d="M405 90q-35 -13 -74 -17v-89h-59v88q-112 6 -174.5 71.5t-62.5 168.5q0 68 29.5 122.5t83 88.5t124.5 41v74h59v-73q38 -2 72.5 -11.5t57.5 -25.5l-30 -56q-45 26 -100 30v-358q58 3 101 33l33 -53q-25 -21 -60 -34zM188 209q27 -48 84 -62v350q-54 -15 -82.5 -63.5
t-28.5 -107.5q0 -69 27 -117z" />
    <glyph glyph-name="sterling" unicode="&#xa3;" horiz-adv-x="466" 
d="M230 166.5q-26 -40.5 -70 -64.5h280v-102h-396v84q45 23 69 63.5t24 92.5q0 29 -6 53h-81v60h61q-14 36 -21 60.5t-7 55.5q0 45 22.5 83.5t69 62t115.5 23.5q88 0 154 -47l-36 -53q-56 42 -116 42q-42 0 -67.5 -26t-25.5 -70q0 -29 7 -51.5t21 -55.5l10 -24h134v-60h-118
q3 -16 3 -37q0 -49 -26 -89.5z" />
    <glyph glyph-name="currency" unicode="&#xa4;" horiz-adv-x="530" 
d="M435 175l67 -71l-39 -38l-70 67q-54 -40 -126 -40q-73 0 -127 40l-70 -67l-39 38l66 72q-39 55 -39 127q0 74 40 128l-67 68l39 40l69 -66q55 41 128 41q72 0 127 -41l69 66l39 -40l-66 -68q39 -55 39 -128q0 -74 -40 -128zM346 213q30 34 30 90q0 57 -29.5 91t-79.5 34
t-80.5 -34t-30.5 -91q0 -56 30.5 -90t80.5 -34q49 0 79 34z" />
    <glyph glyph-name="yen" unicode="&#xa5;" horiz-adv-x="534" 
d="M351 319h103v-58h-110v-49h110v-58h-110v-154h-127v154h-110v58h110v49h-110v58h97l-200 303h149l157 -247q7 13 14.5 28.5t17.5 33.5q61 117 89 185h110q-70 -125 -190 -303z" />
    <glyph glyph-name="brokenbar" unicode="&#xa6;" horiz-adv-x="251" 
d="M85 668h81v-357h-81v357zM85 159h81v-357h-81v357z" />
    <glyph glyph-name="section" unicode="&#xa7;" horiz-adv-x="470" 
d="M400.5 36q17.5 -28 17.5 -67q0 -67 -53 -105t-133 -38q-49 0 -96 16.5t-80 41.5l32 58q29 -21 67.5 -36t72.5 -15q35 0 56.5 15t21.5 39q0 27 -15 43.5t-56 40.5l-74 42q-43 24 -69.5 44.5t-42.5 49t-16 68.5t26 77.5t74 63.5q-36 27 -53.5 55t-17.5 66q0 67 53 105
t133 38q49 0 96.5 -16.5t80.5 -40.5l-33 -58q-29 21 -67.5 36t-72.5 15q-35 0 -56 -15.5t-21 -39.5q0 -27 15 -44t56 -40l73 -42q44 -25 70.5 -45t42.5 -48.5t16 -67.5q0 -40 -26 -78t-75 -64q36 -26 53.5 -54zM304 119q15 16 24.5 36.5t9.5 37.5q0 35 -19.5 55.5
t-68.5 51.5l-73 44q-16 -14 -25.5 -34.5t-9.5 -37.5q0 -36 20 -57.5t68 -49.5z" />
    <glyph glyph-name="dieresis" unicode="&#xa8;" horiz-adv-x="543" 
d="M90 540zM107 557.5q-17 17.5 -17 42.5q0 26 17.5 44t45.5 18q26 0 43 -18t17 -43q0 -24 -18 -42.5t-45 -18.5q-26 0 -43 17.5zM304 557.5q-17 17.5 -17 42.5q0 26 17.5 44t45.5 18q26 0 43 -18t17 -43q0 -24 -17.5 -42.5t-44.5 -18.5t-44 17.5z" />
    <glyph glyph-name="copyright" unicode="&#xa9;" horiz-adv-x="581" 
d="M151.5 199q-61.5 33 -96 92t-34.5 134t34.5 133.5t96 91.5t139.5 33q77 0 138 -33t95.5 -91.5t34.5 -133.5t-34.5 -134t-95.5 -92t-138 -33q-78 0 -139.5 33zM402 238q49 27 76 76t27 111t-27 111t-76 76t-111 27q-63 0 -112 -27t-76 -76t-27 -111t27 -111t76 -76
t112 -27q62 0 111 27zM188 324q-40 39 -40 101q0 68 45 111t119 43q25 0 49 -7t42 -20l-21 -37q-25 19 -60 19q-42 0 -63.5 -29.5t-21.5 -69.5q0 -44 19.5 -72t61.5 -28q36 0 65 23l22 -36q-44 -37 -106 -37q-71 0 -111 39z" />
    <glyph glyph-name="ordfeminine" unicode="&#xaa;" horiz-adv-x="400" 
d="M358 553v-200h-71l-14 49q-19 -31 -50 -45.5t-68 -14.5q-54 0 -84 28.5t-30 76.5q0 59 41.5 87.5t117.5 28.5q32 0 56 -4v8q0 30 -16.5 45.5t-57.5 15.5q-21 0 -46 -8.5t-49 -24.5l-28 45q29 19 70.5 31t74.5 12q154 0 154 -130zM238 426q18 27 18 76v14q-33 5 -46 5
q-33 0 -55.5 -16.5t-22.5 -46.5q0 -28 16 -43.5t38 -15.5q34 0 52 27zM57 297h296v-54h-296v54z" />
    <glyph glyph-name="guillemotleft" unicode="&#xab;" horiz-adv-x="397" 
d="M18 64zM130 240q6 -11 20 -33q3 -6 26 -44t39 -78l-40 -21q-46 55 -157 166v2l19 19q98 100 138 147l40 -21q-27 -56 -85 -137zM307 240q6 -11 20 -33q3 -6 26 -44t39 -78l-40 -21q-46 55 -157 166v2l19 19q98 100 138 147l40 -21q-27 -56 -85 -137z" />
    <glyph glyph-name="logicalnot" unicode="&#xac;" 
d="M400 291h-337v69h414v-255h-77v186z" />
    <glyph glyph-name="uni00AD" unicode="&#xad;" horiz-adv-x="310" 
d="M40 197zM40 267h230v-70h-230v70z" />
    <glyph glyph-name="registered" unicode="&#xae;" horiz-adv-x="580" 
d="M429 650q61 -33 95.5 -91.5t34.5 -133.5t-34.5 -134t-95.5 -92t-138 -33q-78 0 -139.5 33t-96 92t-34.5 134t34.5 133.5t96 91.5t139.5 33q77 0 138 -33zM401.5 239q48.5 28 76 77t27.5 109q0 62 -27 111t-76 76t-111 27q-63 0 -112 -27t-76 -76t-27 -111t27 -111t76 -76
t112 -27q62 0 110.5 28zM401 435q-15 -22 -43 -34l68 -100h-90l-55 87l-19 2v-89h-84v263q14 3 43.5 5t51.5 2q76 0 109.5 -22.5t33.5 -66.5q0 -25 -15 -47zM262 436q6 -1 16 -1q26 0 40 12.5t14 34.5q0 46 -52 46q-12 0 -18 -1v-91z" />
    <glyph glyph-name="macron" unicode="&#xaf;" horiz-adv-x="543" 
d="M127 576zM127 641h247v-65h-247v65z" />
    <glyph glyph-name="degree" unicode="&#xb0;" horiz-adv-x="243" 
d="M46.5 530q-25.5 25 -25.5 64q0 37 26.5 63t73.5 26t74 -26t27 -63q0 -38 -27 -63.5t-75 -25.5t-73.5 25zM151 552.5q11 14.5 11 35.5q0 63 -40 63q-20 0 -30.5 -16t-10.5 -41t10.5 -40.5t29.5 -15.5t30 14.5z" />
    <glyph glyph-name="plusminus" unicode="&#xb1;" 
d="M487 348v-68h-168v-158h-77v158h-169v68h169v158h77v-158h168zM73 68h414v-68h-414v68z" />
    <glyph glyph-name="uni00B2" unicode="&#xb2;" horiz-adv-x="375" 
d="M332 428v-86h-298v70q92 60 141.5 111.5t49.5 101.5q0 63 -69 60q-23 0 -48.5 -11t-44.5 -26l-30 49q33 27 73.5 41.5t81.5 14.5q66 0 103 -28.5t37 -86.5q0 -50 -48.5 -107t-127.5 -103h180z" />
    <glyph glyph-name="uni00B3" unicode="&#xb3;" horiz-adv-x="362" 
d="M297.5 546.5q32.5 -29.5 32.5 -78.5q0 -63 -45.5 -97.5t-121.5 -34.5q-74 0 -125 30l28 56q20 -13 39 -19t43 -6q34 0 56 15t22 45t-21 45t-58 15q-25 0 -43 -6v55q51 53 109 101h-160v79h257v-71q-56 -40 -122 -101q16 2 22 2q55 0 87.5 -29.5z" />
    <glyph glyph-name="acute" unicode="&#xb4;" horiz-adv-x="543" 
d="M134 522zM134 558q53 50 145 120l70 -71q-96 -39 -192 -85z" />
    <glyph glyph-name="uni00B5" unicode="&#xb5;" horiz-adv-x="631" 
d="M69 0zM622 35q-27 -28 -54 -39.5t-60 -11.5q-76 0 -92 81q-46 -81 -140 -81q-48 0 -82 24v-206h-125v663h126v-250q0 -70 23.5 -112t76.5 -42q48 0 77 41t29 110v253h127v-343q0 -27 6 -40.5t22 -13.5q19 0 37 16z" />
    <glyph glyph-name="paragraph" unicode="&#xb6;" horiz-adv-x="565" 
d="M553 560h-61v-453q0 -143 -56 -212t-175 -69q-108 0 -186 56l39 56q66 -49 154 -49q77 0 110 52t33 148v471h-85v-411h-50q-78 0 -135.5 29.5t-87.5 83t-30 123.5q0 71 30 125t87.5 83.5t135.5 29.5h277v-63z" />
    <glyph glyph-name="periodcentered" unicode="&#xb7;" horiz-adv-x="218" 
d="M58 177q-20 19 -20 48q0 30 19.5 49t52.5 19q32 0 51 -19t19 -49q0 -29 -19 -48t-52 -19q-31 0 -51 19z" />
    <glyph glyph-name="cedilla" unicode="&#xb8;" horiz-adv-x="543" 
d="M170 0zM320.5 -69q20.5 -19 20.5 -49q0 -36 -28.5 -58t-77.5 -22q-36 0 -65 12l11 42q9 -5 23 -8t25 -3q39 0 39 29q0 14 -10.5 21.5t-27.5 7.5q-22 0 -34 -4l27 101h57l-14 -48q34 -2 54.5 -21z" />
    <glyph glyph-name="uni00B9" unicode="&#xb9;" horiz-adv-x="327" 
d="M244 746v-404h-105v289q-46 -25 -87 -37l-21 45q82 44 149 107h64z" />
    <glyph glyph-name="ordmasculine" unicode="&#xba;" horiz-adv-x="393" 
d="M67.5 388q-43.5 46 -43.5 123q0 50 22.5 89t62 61t88.5 22q83 0 127 -45t44 -125q0 -49 -22.5 -88t-62.5 -61t-89 -22q-83 0 -126.5 46zM243 426.5q17 40.5 17 87.5q0 52 -14 88t-48 36q-33 0 -49.5 -38.5t-16.5 -88.5t15 -87.5t48 -37.5q31 0 48 40.5zM45 296h296v-54
h-296v54z" />
    <glyph glyph-name="guillemotright" unicode="&#xbb;" horiz-adv-x="397" 
d="M202 230l-19 -19q-98 -100 -138 -147l-40 21q27 56 85 137q-6 11 -20 33q-3 6 -26 44t-39 78l40 21q46 -55 157 -166v-2zM379 232v-2l-19 -19q-98 -100 -138 -147l-40 21q27 56 85 137q-6 11 -20 33q-3 6 -26 44t-39 78l40 21q46 -55 157 -166z" />
    <glyph glyph-name="onequarter" unicode="&#xbc;" horiz-adv-x="849" 
d="M140 219v289q-46 -25 -87 -37l-21 45q82 44 149 107h64v-404h-105zM681 623l-409 -623h-88l409 623h88zM839 71h-36v-71h-95v71h-207v65q60 65 100 128.5t62 138.5h125q-28 -67 -87.5 -142t-118.5 -122h126v88h95v-88h36v-68z" />
    <glyph glyph-name="onehalf" unicode="&#xbd;" horiz-adv-x="911" 
d="M32 0zM245 623v-404h-105v289q-46 -25 -87 -37l-21 45q82 44 149 107h64zM593 623h88l-409 -623h-88zM858 86v-86h-298v70q92 60 141.5 111.5t49.5 101.5q0 63 -69 60q-23 0 -48.5 -11t-44.5 -26l-30 49q33 27 73.5 41.5t81.5 14.5q66 0 103 -28.5t37 -86.5
q0 -50 -48.5 -107t-127.5 -103h180z" />
    <glyph glyph-name="threequarters" unicode="&#xbe;" horiz-adv-x="877" 
d="M276.5 247.5q-45.5 -34.5 -121.5 -34.5q-74 0 -125 30l28 56q20 -13 39 -19t43 -6q34 0 56 15t22 45t-21 45t-58 15q-25 0 -43 -6v55q51 53 109 101h-160v79h257v-71q-56 -40 -122 -101q16 2 22 2q55 0 87.5 -29.5t32.5 -78.5q0 -63 -45.5 -97.5zM709 623l-409 -623h-88
l409 623h88zM867 71h-36v-71h-95v71h-207v65q60 65 100 128.5t62 138.5h125q-28 -67 -87.5 -142t-118.5 -122h126v88h95v-88h36v-68z" />
    <glyph glyph-name="questiondown" unicode="&#xbf;" horiz-adv-x="378" 
d="M264.5 462q20.5 -19 20.5 -48q0 -30 -19.5 -49t-52.5 -19q-32 0 -51.5 19t-19.5 49q0 29 19 48t52 19q31 0 51.5 -19zM260 212q0 -65 -42 -109q-9 -9 -39 -34q-29 -24 -41.5 -41t-12.5 -47q0 -34 24.5 -55.5t66.5 -21.5q65 0 124 49l39 -59q-33 -29 -84.5 -48t-107.5 -19
q-93 0 -141 41t-48 103q0 48 28 83.5t79 70.5q44 31 59 59.5t12 73.5h78q6 -21 6 -46z" />
    <glyph glyph-name="Agrave" unicode="&#xc0;" horiz-adv-x="600" 
d="M23 0zM393 165h-219l-56 -165h-95l240 623h101l222 -623h-141zM373 231l-85 268l-91 -268h176zM183 746l54 77q40 -20 87 -49t83 -58l-23 -36q-133 49 -201 66z" />
    <glyph glyph-name="Aacute" unicode="&#xc1;" horiz-adv-x="600" 
d="M23 0zM393 165h-219l-56 -165h-95l240 623h101l222 -623h-141zM373 231l-85 268l-91 -268h176zM223 714q53 43 163 111l63 -70q-106 -34 -205 -76z" />
    <glyph glyph-name="Acircumflex" unicode="&#xc2;" horiz-adv-x="600" 
d="M23 0zM393 165h-219l-56 -165h-95l240 623h101l222 -623h-141zM373 231l-85 268l-91 -268h176zM418 676q-44 24 -109 66q-38 -25 -107 -66l-27 31q64 56 114 103h47q50 -47 114 -103z" />
    <glyph glyph-name="Atilde" unicode="&#xc3;" horiz-adv-x="600" 
d="M23 0zM393 165h-219l-56 -165h-95l240 623h101l222 -623h-141zM373 231l-85 268l-91 -268h176zM157 703q21 49 45 73.5t56 24.5q13 0 22.5 -4t25.5 -12l43 -24q19 -12 31 -12q13 0 23.5 10.5t25.5 37.5l37 -18q-18 -47 -43.5 -72.5t-56.5 -25.5q-15 0 -25.5 3t-22.5 10
l-44 26q-3 2 -12.5 7.5t-20.5 5.5q-13 0 -23 -11t-26 -39z" />
    <glyph glyph-name="Adieresis" unicode="&#xc4;" horiz-adv-x="600" 
d="M23 0zM393 165h-219l-56 -165h-95l240 623h101l222 -623h-141zM373 231l-85 268l-91 -268h176zM168 701.5q-17 17.5 -17 42.5q0 26 17.5 44t45.5 18q26 0 43 -18t17 -43q0 -24 -18 -42.5t-45 -18.5q-26 0 -43 17.5zM365 701.5q-17 17.5 -17 42.5q0 26 17.5 44t45.5 18
q26 0 43 -18t17 -43q0 -24 -17.5 -42.5t-44.5 -18.5t-44 17.5z" />
    <glyph glyph-name="Aring" unicode="&#xc5;" horiz-adv-x="600" 
d="M23 0zM393 165h-219l-56 -165h-95l240 623h101l222 -623h-141zM373 231l-85 268l-91 -268h176zM237 690q-25 20 -25 58t28 61.5t70 23.5q49 0 75 -21t26 -61q0 -37 -29.5 -59t-72.5 -22q-47 0 -72 20zM335.5 718.5q8.5 13.5 8.5 33.5t-7.5 34t-25.5 14q-15 0 -24 -15
t-9 -34q0 -46 33 -46q16 0 24.5 13.5z" />
    <glyph glyph-name="AE" unicode="&#xc6;" horiz-adv-x="829" 
d="M702.5 72q36.5 2 86.5 8v-80h-380v170h-210l-93 -170h-103l361 623h421v-78q-48 5 -84.5 6.5t-94.5 1.5h-69v-204h20q80 0 178 5v-78q-118 4 -178 4h-20v-210h73q56 0 92.5 2zM409 235v317h-2l-173 -317h175z" />
    <glyph glyph-name="Ccedilla" unicode="&#xc7;" horiz-adv-x="576" 
d="M427.5 -69q20.5 -19 20.5 -49q0 -36 -28.5 -58t-77.5 -22q-36 0 -65 12l11 42q9 -5 23 -8t25 -3q39 0 39 29q0 14 -10.5 21.5t-27.5 7.5q-22 0 -34 -4l23 86q-129 11 -203 96.5t-74 223.5q0 95 43 171t120.5 119t175.5 43q102 0 176 -48l-38 -67q-56 42 -126 42
q-68 0 -115 -33.5t-71 -89.5t-24 -125q0 -70 22 -127.5t67 -92.5t112 -35q80 0 140 45l35 -59q-36 -29 -83.5 -45t-99.5 -18l-10 -33q34 -2 54.5 -21z" />
    <glyph glyph-name="Egrave" unicode="&#xc8;" horiz-adv-x="519" 
d="M93 0zM391 72q39 2 88 8v-80h-386v623h381v-78q-83 8 -183 8h-70v-204h22q106 0 182 5v-78q-81 4 -182 4h-22v-210h75q56 0 95 2zM164 746l54 77q40 -20 87 -49t83 -58l-23 -36q-133 49 -201 66z" />
    <glyph glyph-name="Eacute" unicode="&#xc9;" horiz-adv-x="519" 
d="M93 0zM391 72q39 2 88 8v-80h-386v623h381v-78q-83 8 -183 8h-70v-204h22q106 0 182 5v-78q-81 4 -182 4h-22v-210h75q56 0 95 2zM204 714q53 43 163 111l63 -70q-106 -34 -205 -76z" />
    <glyph glyph-name="Ecircumflex" unicode="&#xca;" horiz-adv-x="519" 
d="M93 0zM391 72q39 2 88 8v-80h-386v623h381v-78q-83 8 -183 8h-70v-204h22q106 0 182 5v-78q-81 4 -182 4h-22v-210h75q56 0 95 2zM399 676q-44 24 -109 66q-38 -25 -107 -66l-27 31q64 56 114 103h47q50 -47 114 -103z" />
    <glyph glyph-name="Edieresis" unicode="&#xcb;" horiz-adv-x="519" 
d="M93 0zM391 72q39 2 88 8v-80h-386v623h381v-78q-83 8 -183 8h-70v-204h22q106 0 182 5v-78q-81 4 -182 4h-22v-210h75q56 0 95 2zM149 701.5q-17 17.5 -17 42.5q0 26 17.5 44t45.5 18q26 0 43 -18t17 -43q0 -24 -18 -42.5t-45 -18.5q-26 0 -43 17.5zM346 701.5
q-17 17.5 -17 42.5q0 26 17.5 44t45.5 18q26 0 43 -18t17 -43q0 -24 -17.5 -42.5t-44.5 -18.5t-44 17.5z" />
    <glyph glyph-name="Igrave" unicode="&#xcc;" horiz-adv-x="304" 
d="M26 0zM93 623h129v-623h-129v623zM26 746l54 77q40 -20 87 -49t83 -58l-23 -36q-133 49 -201 66z" />
    <glyph glyph-name="Iacute" unicode="&#xcd;" horiz-adv-x="304" 
d="M66 0zM93 623h129v-623h-129v623zM66 714q53 43 163 111l63 -70q-106 -34 -205 -76z" />
    <glyph glyph-name="Icircumflex" unicode="&#xce;" horiz-adv-x="304" 
d="M18 0zM93 623h129v-623h-129v623zM261 676q-44 24 -109 66q-38 -25 -107 -66l-27 31q64 56 114 103h47q50 -47 114 -103z" />
    <glyph glyph-name="Idieresis" unicode="&#xcf;" horiz-adv-x="304" 
d="M0 0zM93 623h129v-623h-129v623zM11 701.5q-17 17.5 -17 42.5q0 26 17.5 44t45.5 18q26 0 43 -18t17 -43q0 -24 -18 -42.5t-45 -18.5q-26 0 -43 17.5zM208 701.5q-17 17.5 -17 42.5q0 26 17.5 44t45.5 18q26 0 43 -18t17 -43q0 -24 -17.5 -42.5t-44.5 -18.5t-44 17.5z
" />
    <glyph glyph-name="Eth" unicode="&#xd0;" horiz-adv-x="725" 
d="M575.5 548.5q92.5 -83.5 92.5 -228.5q0 -89 -38.5 -163.5t-124 -121t-218.5 -46.5q-96 0 -181 13v288h-71v61h71v269q87 12 182 12q195 0 287.5 -83.5zM474 130.5q58 74.5 58 186.5q0 117 -58.5 184t-181.5 67q-25 0 -58 -5v-212h124v-61h-124v-230q28 -4 62 -4
q120 0 178 74.5z" />
    <glyph glyph-name="Ntilde" unicode="&#xd1;" horiz-adv-x="676" 
d="M88 0zM599 623v-623h-69l-357 414v-414h-85v623h68l357 -425v425h86zM187 703q21 49 45 73.5t56 24.5q13 0 22.5 -4t25.5 -12l43 -24q19 -12 31 -12q13 0 23.5 10.5t25.5 37.5l37 -18q-18 -47 -43.5 -72.5t-56.5 -25.5q-15 0 -25.5 3t-22.5 10l-44 26q-3 2 -12.5 7.5
t-20.5 5.5q-13 0 -23 -11t-26 -39z" />
    <glyph glyph-name="Ograve" unicode="&#xd2;" horiz-adv-x="723" 
d="M49 0zM196.5 21q-70.5 37 -109 109.5t-38.5 174.5q0 97 42 172.5t115.5 118t164.5 42.5q145 0 229 -83t84 -237q0 -97 -42.5 -173t-116 -118.5t-163.5 -42.5q-95 0 -165.5 37zM459.5 88q41.5 35 64 94t22.5 128q0 72 -20 131t-60 94t-97 35q-54 0 -96 -35t-64.5 -94
t-22.5 -128q0 -72 20.5 -131t60.5 -94t97 -35q54 0 95.5 35zM239 746l54 77q40 -20 87 -49t83 -58l-23 -36q-133 49 -201 66z" />
    <glyph glyph-name="Oacute" unicode="&#xd3;" horiz-adv-x="723" 
d="M49 0zM196.5 21q-70.5 37 -109 109.5t-38.5 174.5q0 97 42 172.5t115.5 118t164.5 42.5q145 0 229 -83t84 -237q0 -97 -42.5 -173t-116 -118.5t-163.5 -42.5q-95 0 -165.5 37zM459.5 88q41.5 35 64 94t22.5 128q0 72 -20 131t-60 94t-97 35q-54 0 -96 -35t-64.5 -94
t-22.5 -128q0 -72 20.5 -131t60.5 -94t97 -35q54 0 95.5 35zM279 714q53 43 163 111l63 -70q-106 -34 -205 -76z" />
    <glyph glyph-name="Ocircumflex" unicode="&#xd4;" horiz-adv-x="723" 
d="M49 0zM196.5 21q-70.5 37 -109 109.5t-38.5 174.5q0 97 42 172.5t115.5 118t164.5 42.5q145 0 229 -83t84 -237q0 -97 -42.5 -173t-116 -118.5t-163.5 -42.5q-95 0 -165.5 37zM459.5 88q41.5 35 64 94t22.5 128q0 72 -20 131t-60 94t-97 35q-54 0 -96 -35t-64.5 -94
t-22.5 -128q0 -72 20.5 -131t60.5 -94t97 -35q54 0 95.5 35zM474 676q-44 24 -109 66q-38 -25 -107 -66l-27 31q64 56 114 103h47q50 -47 114 -103z" />
    <glyph glyph-name="Otilde" unicode="&#xd5;" horiz-adv-x="723" 
d="M49 0zM196.5 21q-70.5 37 -109 109.5t-38.5 174.5q0 97 42 172.5t115.5 118t164.5 42.5q145 0 229 -83t84 -237q0 -97 -42.5 -173t-116 -118.5t-163.5 -42.5q-95 0 -165.5 37zM459.5 88q41.5 35 64 94t22.5 128q0 72 -20 131t-60 94t-97 35q-54 0 -96 -35t-64.5 -94
t-22.5 -128q0 -72 20.5 -131t60.5 -94t97 -35q54 0 95.5 35zM213 703q21 49 45 73.5t56 24.5q13 0 22.5 -4t25.5 -12l43 -24q19 -12 31 -12q13 0 23.5 10.5t25.5 37.5l37 -18q-18 -47 -43.5 -72.5t-56.5 -25.5q-15 0 -25.5 3t-22.5 10l-44 26q-3 2 -12.5 7.5t-20.5 5.5
q-13 0 -23 -11t-26 -39z" />
    <glyph glyph-name="Odieresis" unicode="&#xd6;" horiz-adv-x="723" 
d="M49 0zM196.5 21q-70.5 37 -109 109.5t-38.5 174.5q0 97 42 172.5t115.5 118t164.5 42.5q145 0 229 -83t84 -237q0 -97 -42.5 -173t-116 -118.5t-163.5 -42.5q-95 0 -165.5 37zM459.5 88q41.5 35 64 94t22.5 128q0 72 -20 131t-60 94t-97 35q-54 0 -96 -35t-64.5 -94
t-22.5 -128q0 -72 20.5 -131t60.5 -94t97 -35q54 0 95.5 35zM224 701.5q-17 17.5 -17 42.5q0 26 17.5 44t45.5 18q26 0 43 -18t17 -43q0 -24 -18 -42.5t-45 -18.5q-26 0 -43 17.5zM421 701.5q-17 17.5 -17 42.5q0 26 17.5 44t45.5 18q26 0 43 -18t17 -43q0 -24 -17.5 -42.5
t-44.5 -18.5t-44 17.5z" />
    <glyph glyph-name="multiply" unicode="&#xd7;" 
d="M432 18l-152 158l-153 -158l-47 46l154 160l-155 160l49 48l153 -159l152 158l47 -47l-153 -158l154 -159z" />
    <glyph glyph-name="Oslash" unicode="&#xd8;" horiz-adv-x="723" 
d="M607 547q77 -83 77 -229q0 -97 -42.5 -173t-116 -118.5t-163.5 -42.5q-110 0 -186 50l-42 -50h-85l76 92q-76 82 -76 229q0 97 42 172.5t115.5 118t164.5 42.5q112 0 186 -49l41 49h86zM209 174l282 336q-48 61 -122 61q-55 0 -97 -35t-64.5 -94.5t-22.5 -128.5
q0 -81 24 -139zM524 448l-282 -335q47 -61 122 -61q55 0 97 35t64.5 94.5t22.5 128.5q0 82 -24 138z" />
    <glyph glyph-name="Ugrave" unicode="&#xd9;" horiz-adv-x="649" 
d="M79 0zM141.5 55q-62.5 71 -62.5 200v368h129v-333q0 -106 33 -165t110 -59q78 0 114.5 50t36.5 149v358h88v-357q0 -131 -63.5 -206.5t-192.5 -75.5q-130 0 -192.5 71zM230 746l54 77q40 -20 87 -49t83 -58l-23 -36q-133 49 -201 66z" />
    <glyph glyph-name="Uacute" unicode="&#xda;" horiz-adv-x="649" 
d="M79 0zM141.5 55q-62.5 71 -62.5 200v368h129v-333q0 -106 33 -165t110 -59q78 0 114.5 50t36.5 149v358h88v-357q0 -131 -63.5 -206.5t-192.5 -75.5q-130 0 -192.5 71zM270 714q53 43 163 111l63 -70q-106 -34 -205 -76z" />
    <glyph glyph-name="Ucircumflex" unicode="&#xdb;" horiz-adv-x="649" 
d="M79 0zM141.5 55q-62.5 71 -62.5 200v368h129v-333q0 -106 33 -165t110 -59q78 0 114.5 50t36.5 149v358h88v-357q0 -131 -63.5 -206.5t-192.5 -75.5q-130 0 -192.5 71zM465 676q-44 24 -109 66q-38 -25 -107 -66l-27 31q64 56 114 103h47q50 -47 114 -103z" />
    <glyph glyph-name="Udieresis" unicode="&#xdc;" horiz-adv-x="649" 
d="M79 0zM141.5 55q-62.5 71 -62.5 200v368h129v-333q0 -106 33 -165t110 -59q78 0 114.5 50t36.5 149v358h88v-357q0 -131 -63.5 -206.5t-192.5 -75.5q-130 0 -192.5 71zM215 701.5q-17 17.5 -17 42.5q0 26 17.5 44t45.5 18q26 0 43 -18t17 -43q0 -24 -18 -42.5t-45 -18.5
q-26 0 -43 17.5zM412 701.5q-17 17.5 -17 42.5q0 26 17.5 44t45.5 18q26 0 43 -18t17 -43q0 -24 -17.5 -42.5t-44.5 -18.5t-44 17.5z" />
    <glyph glyph-name="Yacute" unicode="&#xdd;" horiz-adv-x="549" 
d="M4 0zM353 274v-274h-129v265l-220 358h149l164 -282q85 176 129 282h109q-128 -233 -202 -349zM208 714q53 43 163 111l63 -70q-106 -34 -205 -76z" />
    <glyph glyph-name="Thorn" unicode="&#xde;" horiz-adv-x="547" 
d="M465 473.5q72 -51.5 72 -153.5q0 -65 -32 -114t-90.5 -75.5t-135.5 -26.5q-17 0 -57 2v-108h-129v626h129v-100q14 1 39 1q132 0 204 -51.5zM369 208q37 41 37 111q0 69 -35.5 107t-109.5 38q-25 0 -39 -2v-293q22 -2 34 -2q76 0 113 41z" />
    <glyph glyph-name="germandbls" unicode="&#xdf;" horiz-adv-x="583" 
d="M538 212.5q25 -33.5 25 -82.5q0 -65 -48 -105.5t-128 -40.5q-74 0 -129 39l31 56q46 -33 97 -33q34 0 52 18t18 42q0 28 -18.5 47.5t-70.5 53.5q-51 34 -71 57t-20 59q0 27 12.5 49t39.5 56q29 34 44.5 62t15.5 63q0 32 -19.5 52t-56.5 20q-52 0 -75 -34.5t-23 -99.5
v-491h-122v403h-77v61h77q0 65 29 114.5t81.5 77t120.5 27.5q80 0 128 -31.5t48 -90.5q0 -40 -20.5 -68t-57.5 -59q-25 -21 -36.5 -35t-11.5 -30t12 -28t40 -31q17 -11 29 -21q59 -43 84 -76.5z" />
    <glyph glyph-name="agrave" unicode="&#xe0;" horiz-adv-x="519" 
d="M31 0zM462 278v-278h-85l-20 70q-25 -43 -68 -64.5t-96 -21.5q-73 0 -117.5 38.5t-44.5 104.5q0 81 59 121.5t163 40.5q45 0 86 -7v8q0 59 -23.5 89.5t-83.5 30.5q-32 0 -68 -12t-69 -35l-33 58q38 27 93.5 43t101.5 16q205 0 205 -202zM309 96.5q30 39.5 30 110.5v22
q-32 6 -66 6q-57 0 -91.5 -24.5t-34.5 -70.5q0 -39 23.5 -61t58.5 -22q50 0 80 39.5zM94 599l60 78q110 -74 162 -118l-24 -37q-124 52 -198 77z" />
    <glyph glyph-name="aacute" unicode="&#xe1;" horiz-adv-x="519" 
d="M31 0zM462 278v-278h-85l-20 70q-25 -43 -68 -64.5t-96 -21.5q-73 0 -117.5 38.5t-44.5 104.5q0 81 59 121.5t163 40.5q45 0 86 -7v8q0 59 -23.5 89.5t-83.5 30.5q-32 0 -68 -12t-69 -35l-33 58q38 27 93.5 43t101.5 16q205 0 205 -202zM309 96.5q30 39.5 30 110.5v22
q-32 6 -66 6q-57 0 -91.5 -24.5t-34.5 -70.5q0 -39 23.5 -61t58.5 -22q50 0 80 39.5zM193 558q53 50 145 120l70 -71q-96 -39 -192 -85z" />
    <glyph glyph-name="acircumflex" unicode="&#xe2;" horiz-adv-x="519" 
d="M31 0zM462 278v-278h-85l-20 70q-25 -43 -68 -64.5t-96 -21.5q-73 0 -117.5 38.5t-44.5 104.5q0 81 59 121.5t163 40.5q45 0 86 -7v8q0 59 -23.5 89.5t-83.5 30.5q-32 0 -68 -12t-69 -35l-33 58q38 27 93.5 43t101.5 16q205 0 205 -202zM309 96.5q30 39.5 30 110.5v22
q-32 6 -66 6q-57 0 -91.5 -24.5t-34.5 -70.5q0 -39 23.5 -61t58.5 -22q50 0 80 39.5zM358 535q-53 34 -107 74q-60 -43 -108 -74l-28 31q53 49 114 113h47q61 -64 114 -113z" />
    <glyph glyph-name="atilde" unicode="&#xe3;" horiz-adv-x="519" 
d="M31 0zM462 278v-278h-85l-20 70q-25 -43 -68 -64.5t-96 -21.5q-73 0 -117.5 38.5t-44.5 104.5q0 81 59 121.5t163 40.5q45 0 86 -7v8q0 59 -23.5 89.5t-83.5 30.5q-32 0 -68 -12t-69 -35l-33 58q38 27 93.5 43t101.5 16q205 0 205 -202zM309 96.5q30 39.5 30 110.5v22
q-32 6 -66 6q-57 0 -91.5 -24.5t-34.5 -70.5q0 -39 23.5 -61t58.5 -22q50 0 80 39.5zM277.5 541q-10.5 4 -22.5 13l-44 31q-19 14 -31 14q-15 0 -25 -12t-26 -46l-35 20q22 52 46 79t55 27q13 0 22.5 -4t23.5 -12l45 -30q18 -12 31 -12t23 11t26 40l37 -18
q-19 -49 -44.5 -77t-55.5 -28q-15 0 -25.5 4z" />
    <glyph glyph-name="adieresis" unicode="&#xe4;" horiz-adv-x="519" 
d="M31 0zM462 278v-278h-85l-20 70q-25 -43 -68 -64.5t-96 -21.5q-73 0 -117.5 38.5t-44.5 104.5q0 81 59 121.5t163 40.5q45 0 86 -7v8q0 59 -23.5 89.5t-83.5 30.5q-32 0 -68 -12t-69 -35l-33 58q38 27 93.5 43t101.5 16q205 0 205 -202zM309 96.5q30 39.5 30 110.5v22
q-32 6 -66 6q-57 0 -91.5 -24.5t-34.5 -70.5q0 -39 23.5 -61t58.5 -22q50 0 80 39.5zM108 557.5q-17 17.5 -17 42.5q0 26 17.5 44t45.5 18q26 0 43 -18t17 -43q0 -24 -18 -42.5t-45 -18.5q-26 0 -43 17.5zM305 557.5q-17 17.5 -17 42.5q0 26 17.5 44t45.5 18q26 0 43 -18
t17 -43q0 -24 -17.5 -42.5t-44.5 -18.5t-44 17.5z" />
    <glyph glyph-name="aring" unicode="&#xe5;" horiz-adv-x="519" 
d="M31 0zM462 278v-278h-85l-20 70q-25 -43 -68 -64.5t-96 -21.5q-73 0 -117.5 38.5t-44.5 104.5q0 81 59 121.5t163 40.5q45 0 86 -7v8q0 59 -23.5 89.5t-83.5 30.5q-32 0 -68 -12t-69 -35l-33 58q38 27 93.5 43t101.5 16q205 0 205 -202zM309 96.5q30 39.5 30 110.5v22
q-32 6 -66 6q-57 0 -91.5 -24.5t-34.5 -70.5q0 -39 23.5 -61t58.5 -22q50 0 80 39.5zM177 545q-25 20 -25 58t28 61.5t70 23.5q49 0 75 -21t26 -61q0 -37 -29.5 -59t-72.5 -22q-47 0 -72 20zM275.5 573.5q8.5 13.5 8.5 33.5t-7.5 34t-25.5 14q-15 0 -24 -15t-9 -34
q0 -46 33 -46q16 0 24.5 13.5z" />
    <glyph glyph-name="ae" unicode="&#xe6;" horiz-adv-x="803" 
d="M769 221h-303q2 -75 39 -121t101 -46t115 37l32 -52q-38 -30 -77.5 -42.5t-88.5 -12.5q-77 0 -131 29t-83 80q-26 -55 -74 -82t-106 -27q-73 0 -117.5 38.5t-44.5 104.5q0 75 59 112t163 37h88v14q0 59 -23.5 89.5t-83.5 30.5q-31 0 -68.5 -12t-70.5 -35l-33 58
q39 27 95 43t102 16q109 0 162 -59q31 28 71 43.5t84 15.5q93 0 145.5 -58t52.5 -149q0 -31 -5 -52zM498 382q-28 -43 -32 -106h181q2 11 2 30q0 49 -19.5 84t-58.5 35q-45 0 -73 -43zM310.5 96.5q30.5 39.5 30.5 110.5v14h-68q-61 0 -93.5 -22t-32.5 -66q0 -36 23.5 -56
t58.5 -20q51 0 81.5 39.5z" />
    <glyph glyph-name="ccedilla" unicode="&#xe7;" horiz-adv-x="444" 
d="M323.5 -69q20.5 -19 20.5 -49q0 -36 -28.5 -58t-77.5 -22q-36 0 -65 12l11 42q9 -5 23 -8t25 -3q39 0 39 29q0 14 -10.5 21.5t-27.5 7.5q-22 0 -34 -4l24 89q-89 15 -138.5 79t-49.5 156q0 75 32.5 133.5t91.5 91t136 32.5q39 0 75 -9.5t61 -28.5l-30 -56q-41 30 -91 30
q-48 0 -80.5 -26t-48 -66.5t-15.5 -85.5q0 -80 34 -131t104 -51q55 0 98 35l33 -53q-66 -54 -157 -54l-9 -32q34 -2 54.5 -21z" />
    <glyph glyph-name="egrave" unicode="&#xe8;" horiz-adv-x="507" 
d="M35 0zM473 218h-312q3 -74 42 -119t106 -45q66 0 116 37l33 -52q-38 -30 -78 -42.5t-90 -12.5q-125 0 -190 67t-65 176q0 72 31 129.5t85.5 90.5t121.5 33q97 0 151.5 -58t54.5 -149q0 -35 -6 -55zM193.5 382q-28.5 -43 -32.5 -106h191q1 11 1 30q0 49 -21.5 84t-64.5 35
q-45 0 -73.5 -43zM109 599l60 78q110 -74 162 -118l-24 -37q-124 52 -198 77z" />
    <glyph glyph-name="eacute" unicode="&#xe9;" horiz-adv-x="507" 
d="M35 0zM473 218h-312q3 -74 42 -119t106 -45q66 0 116 37l33 -52q-38 -30 -78 -42.5t-90 -12.5q-125 0 -190 67t-65 176q0 72 31 129.5t85.5 90.5t121.5 33q97 0 151.5 -58t54.5 -149q0 -35 -6 -55zM193.5 382q-28.5 -43 -32.5 -106h191q1 11 1 30q0 49 -21.5 84t-64.5 35
q-45 0 -73.5 -43zM208 558q53 50 145 120l70 -71q-96 -39 -192 -85z" />
    <glyph glyph-name="ecircumflex" unicode="&#xea;" horiz-adv-x="507" 
d="M35 0zM473 218h-312q3 -74 42 -119t106 -45q66 0 116 37l33 -52q-38 -30 -78 -42.5t-90 -12.5q-125 0 -190 67t-65 176q0 72 31 129.5t85.5 90.5t121.5 33q97 0 151.5 -58t54.5 -149q0 -35 -6 -55zM193.5 382q-28.5 -43 -32.5 -106h191q1 11 1 30q0 49 -21.5 84t-64.5 35
q-45 0 -73.5 -43zM373 535q-53 34 -107 74q-60 -43 -108 -74l-28 31q53 49 114 113h47q61 -64 114 -113z" />
    <glyph glyph-name="edieresis" unicode="&#xeb;" horiz-adv-x="507" 
d="M35 0zM473 218h-312q3 -74 42 -119t106 -45q66 0 116 37l33 -52q-38 -30 -78 -42.5t-90 -12.5q-125 0 -190 67t-65 176q0 72 31 129.5t85.5 90.5t121.5 33q97 0 151.5 -58t54.5 -149q0 -35 -6 -55zM193.5 382q-28.5 -43 -32.5 -106h191q1 11 1 30q0 49 -21.5 84t-64.5 35
q-45 0 -73.5 -43zM123 557.5q-17 17.5 -17 42.5q0 26 17.5 44t45.5 18q26 0 43 -18t17 -43q0 -24 -18 -42.5t-45 -18.5q-26 0 -43 17.5zM320 557.5q-17 17.5 -17 42.5q0 26 17.5 44t45.5 18q26 0 43 -18t17 -43q0 -24 -17.5 -42.5t-44.5 -18.5t-44 17.5z" />
    <glyph glyph-name="igrave" unicode="&#xec;" horiz-adv-x="272" 
d="M0 0zM73 465h126v-465h-126v465zM-21 599l60 78q110 -74 162 -118l-24 -37q-124 52 -198 77z" />
    <glyph glyph-name="iacute" unicode="&#xed;" horiz-adv-x="272" 
d="M73 0zM73 465h126v-465h-126v465zM78 558q53 50 145 120l70 -71q-96 -39 -192 -85z" />
    <glyph glyph-name="icircumflex" unicode="&#xee;" horiz-adv-x="272" 
d="M0 0zM73 465h126v-465h-126v465zM243 535q-53 34 -107 74q-60 -43 -108 -74l-28 31q53 49 114 113h47q61 -64 114 -113z" />
    <glyph glyph-name="idieresis" unicode="&#xef;" horiz-adv-x="272" 
d="M0 0zM73 465h126v-465h-126v465zM-7 557.5q-17 17.5 -17 42.5q0 26 17.5 44t45.5 18q26 0 43 -18t17 -43q0 -24 -18 -42.5t-45 -18.5q-26 0 -43 17.5zM190 557.5q-17 17.5 -17 42.5q0 26 17.5 44t45.5 18q26 0 43 -18t17 -43q0 -24 -17.5 -42.5t-44.5 -18.5t-44 17.5z
" />
    <glyph glyph-name="eth" unicode="&#xf0;" horiz-adv-x="553" 
d="M479.5 458.5q36.5 -83.5 36.5 -184.5q0 -134 -64.5 -212t-186.5 -78q-69 0 -121.5 29.5t-80.5 82t-28 120.5q0 70 29.5 127t83 90t121.5 33q60 0 101 -27q-24 74 -83 121l-138 -64l-25 48l107 50q-44 22 -114 38l23 51q99 -12 174 -50l107 51l26 -50l-77 -36
q73 -56 109.5 -139.5zM360 116q32 58 32 157q0 38 -3 72q-39 49 -98 49q-64 0 -95.5 -49.5t-31.5 -118.5q0 -70 28.5 -119t78.5 -49q57 0 89 58z" />
    <glyph glyph-name="ntilde" unicode="&#xf1;" horiz-adv-x="589" 
d="M75 0zM482 423.5q43 -56.5 43 -156.5v-267h-125v254q0 71 -18.5 110t-65.5 39q-55 0 -85 -47.5t-30 -129.5v-226h-126v465h84l23 -84q25 47 68 73t98 26q91 0 134 -56.5zM325.5 541q-10.5 4 -22.5 13l-44 31q-19 14 -31 14q-15 0 -25 -12t-26 -46l-35 20q22 52 46 79
t55 27q13 0 22.5 -4t23.5 -12l45 -30q18 -12 31 -12t23 11t26 40l37 -18q-19 -49 -44.5 -77t-55.5 -28q-15 0 -25.5 4z" />
    <glyph glyph-name="ograve" unicode="&#xf2;" horiz-adv-x="550" 
d="M35 0zM97.5 50.5q-62.5 66.5 -62.5 180.5q0 71 31.5 127.5t86.5 89t122 32.5q115 0 177.5 -66t62.5 -180q0 -71 -31.5 -128t-86.5 -89.5t-122 -32.5q-115 0 -177.5 66.5zM357 101q28 58 28 133q0 78 -25 133t-83 55q-55 0 -83.5 -58.5t-28.5 -132.5q0 -78 26 -133t84 -55
q54 0 82 58zM118 599l60 78q110 -74 162 -118l-24 -37q-124 52 -198 77z" />
    <glyph glyph-name="oacute" unicode="&#xf3;" horiz-adv-x="550" 
d="M35 0zM97.5 50.5q-62.5 66.5 -62.5 180.5q0 71 31.5 127.5t86.5 89t122 32.5q115 0 177.5 -66t62.5 -180q0 -71 -31.5 -128t-86.5 -89.5t-122 -32.5q-115 0 -177.5 66.5zM357 101q28 58 28 133q0 78 -25 133t-83 55q-55 0 -83.5 -58.5t-28.5 -132.5q0 -78 26 -133t84 -55
q54 0 82 58zM217 558q53 50 145 120l70 -71q-96 -39 -192 -85z" />
    <glyph glyph-name="ocircumflex" unicode="&#xf4;" horiz-adv-x="550" 
d="M35 0zM97.5 50.5q-62.5 66.5 -62.5 180.5q0 71 31.5 127.5t86.5 89t122 32.5q115 0 177.5 -66t62.5 -180q0 -71 -31.5 -128t-86.5 -89.5t-122 -32.5q-115 0 -177.5 66.5zM357 101q28 58 28 133q0 78 -25 133t-83 55q-55 0 -83.5 -58.5t-28.5 -132.5q0 -78 26 -133t84 -55
q54 0 82 58zM382 535q-53 34 -107 74q-60 -43 -108 -74l-28 31q53 49 114 113h47q61 -64 114 -113z" />
    <glyph glyph-name="otilde" unicode="&#xf5;" horiz-adv-x="550" 
d="M35 0zM97.5 50.5q-62.5 66.5 -62.5 180.5q0 71 31.5 127.5t86.5 89t122 32.5q115 0 177.5 -66t62.5 -180q0 -71 -31.5 -128t-86.5 -89.5t-122 -32.5q-115 0 -177.5 66.5zM357 101q28 58 28 133q0 78 -25 133t-83 55q-55 0 -83.5 -58.5t-28.5 -132.5q0 -78 26 -133t84 -55
q54 0 82 58zM301.5 541q-10.5 4 -22.5 13l-44 31q-19 14 -31 14q-15 0 -25 -12t-26 -46l-35 20q22 52 46 79t55 27q13 0 22.5 -4t23.5 -12l45 -30q18 -12 31 -12t23 11t26 40l37 -18q-19 -49 -44.5 -77t-55.5 -28q-15 0 -25.5 4z" />
    <glyph glyph-name="odieresis" unicode="&#xf6;" horiz-adv-x="550" 
d="M35 0zM97.5 50.5q-62.5 66.5 -62.5 180.5q0 71 31.5 127.5t86.5 89t122 32.5q115 0 177.5 -66t62.5 -180q0 -71 -31.5 -128t-86.5 -89.5t-122 -32.5q-115 0 -177.5 66.5zM357 101q28 58 28 133q0 78 -25 133t-83 55q-55 0 -83.5 -58.5t-28.5 -132.5q0 -78 26 -133t84 -55
q54 0 82 58zM132 557.5q-17 17.5 -17 42.5q0 26 17.5 44t45.5 18q26 0 43 -18t17 -43q0 -24 -18 -42.5t-45 -18.5q-26 0 -43 17.5zM329 557.5q-17 17.5 -17 42.5q0 26 17.5 44t45.5 18q26 0 43 -18t17 -43q0 -24 -17.5 -42.5t-44.5 -18.5t-44 17.5z" />
    <glyph glyph-name="divide" unicode="&#xf7;" 
d="M239.5 356.5q-16.5 17.5 -16.5 41.5q0 23 16.5 40.5t39.5 17.5q24 0 41 -17t17 -41t-17 -41.5t-41 -17.5q-23 0 -39.5 17.5zM72 267h415v-71h-415v71zM239.5 24q-16.5 17 -16.5 40q0 24 16.5 41.5t39.5 17.5q24 0 41 -17t17 -42q0 -23 -17 -40t-41 -17q-23 0 -39.5 17z
" />
    <glyph glyph-name="oslash" unicode="&#xf8;" horiz-adv-x="550" 
d="M459 406q56 -64 56 -172q0 -71 -31.5 -128t-86.5 -89.5t-122 -32.5q-83 0 -142 38l-32 -38h-73l63 75q-27 32 -41.5 76t-14.5 96q0 71 31.5 127.5t86.5 89t122 32.5q86 0 142 -38l32 38h73zM171 153l187 220q-28 50 -81 50q-56 0 -85 -59t-29 -133q0 -45 8 -78zM379 311
l-186 -219q28 -50 82 -50q55 0 83.5 58.5t28.5 133.5q0 45 -8 77z" />
    <glyph glyph-name="ugrave" unicode="&#xf9;" horiz-adv-x="584" 
d="M68 0zM512 465v-465h-85l-22 81q-24 -48 -67.5 -72.5t-96.5 -24.5q-85 0 -129 56.5t-44 151.5v273h124v-258q0 -146 87 -146q47 0 76.5 45.5t29.5 118.5v240h127zM135 599l60 78q110 -74 162 -118l-24 -37q-124 52 -198 77z" />
    <glyph glyph-name="uacute" unicode="&#xfa;" horiz-adv-x="584" 
d="M68 0zM512 465v-465h-85l-22 81q-24 -48 -67.5 -72.5t-96.5 -24.5q-85 0 -129 56.5t-44 151.5v273h124v-258q0 -146 87 -146q47 0 76.5 45.5t29.5 118.5v240h127zM234 558q53 50 145 120l70 -71q-96 -39 -192 -85z" />
    <glyph glyph-name="ucircumflex" unicode="&#xfb;" horiz-adv-x="584" 
d="M68 0zM512 465v-465h-85l-22 81q-24 -48 -67.5 -72.5t-96.5 -24.5q-85 0 -129 56.5t-44 151.5v273h124v-258q0 -146 87 -146q47 0 76.5 45.5t29.5 118.5v240h127zM399 535q-53 34 -107 74q-60 -43 -108 -74l-28 31q53 49 114 113h47q61 -64 114 -113z" />
    <glyph glyph-name="udieresis" unicode="&#xfc;" horiz-adv-x="584" 
d="M68 0zM512 465v-465h-85l-22 81q-24 -48 -67.5 -72.5t-96.5 -24.5q-85 0 -129 56.5t-44 151.5v273h124v-258q0 -146 87 -146q47 0 76.5 45.5t29.5 118.5v240h127zM149 557.5q-17 17.5 -17 42.5q0 26 17.5 44t45.5 18q26 0 43 -18t17 -43q0 -24 -18 -42.5t-45 -18.5
q-26 0 -43 17.5zM346 557.5q-17 17.5 -17 42.5q0 26 17.5 44t45.5 18q26 0 43 -18t17 -43q0 -24 -17.5 -42.5t-44.5 -18.5t-44 17.5z" />
    <glyph glyph-name="yacute" unicode="&#xfd;" horiz-adv-x="577" 
d="M68 0zM510 465v-419q0 -128 -63 -193.5t-182 -65.5q-48 0 -89 9t-80 32l28 66q38 -20 70.5 -28.5t66.5 -8.5q68 0 98 40t30 119v60q-16 -38 -57 -61t-91 -23q-86 0 -129.5 53.5t-43.5 155.5v264h124v-251q0 -145 85 -145q49 0 79 43t30 115v238h124zM230 558
q53 50 145 120l70 -71q-96 -39 -192 -85z" />
    <glyph glyph-name="thorn" unicode="&#xfe;" horiz-adv-x="579" 
d="M490.5 414.5q52.5 -65.5 52.5 -171.5q0 -72 -27.5 -131t-78.5 -93.5t-117 -34.5q-40 0 -72 14.5t-53 41.5v-238h-126v866h126v-248q29 30 67.5 45t77.5 15q98 0 150.5 -65.5zM385.5 114.5q30.5 49.5 30.5 126.5q0 73 -26 119t-86 46q-33 0 -62 -17t-47 -46v-137
q0 -69 27 -105t75 -36q58 0 88.5 49.5z" />
    <glyph glyph-name="ydieresis" unicode="&#xff;" horiz-adv-x="577" 
d="M68 0zM510 465v-419q0 -128 -63 -193.5t-182 -65.5q-48 0 -89 9t-80 32l28 66q38 -20 70.5 -28.5t66.5 -8.5q68 0 98 40t30 119v60q-16 -38 -57 -61t-91 -23q-86 0 -129.5 53.5t-43.5 155.5v264h124v-251q0 -145 85 -145q49 0 79 43t30 115v238h124zM145 557.5
q-17 17.5 -17 42.5q0 26 17.5 44t45.5 18q26 0 43 -18t17 -43q0 -24 -18 -42.5t-45 -18.5q-26 0 -43 17.5zM342 557.5q-17 17.5 -17 42.5q0 26 17.5 44t45.5 18q26 0 43 -18t17 -43q0 -24 -17.5 -42.5t-44.5 -18.5t-44 17.5z" />
    <glyph glyph-name="Amacron" unicode="&#x100;" horiz-adv-x="600" 
d="M23 0zM393 165h-219l-56 -165h-95l240 623h101l222 -623h-141zM373 231l-85 268l-91 -268h176zM188 780h247v-65h-247v65z" />
    <glyph glyph-name="amacron" unicode="&#x101;" horiz-adv-x="519" 
d="M31 0zM462 278v-278h-85l-20 70q-25 -43 -68 -64.5t-96 -21.5q-73 0 -117.5 38.5t-44.5 104.5q0 81 59 121.5t163 40.5q45 0 86 -7v8q0 59 -23.5 89.5t-83.5 30.5q-32 0 -68 -12t-69 -35l-33 58q38 27 93.5 43t101.5 16q205 0 205 -202zM309 96.5q30 39.5 30 110.5v22
q-32 6 -66 6q-57 0 -91.5 -24.5t-34.5 -70.5q0 -39 23.5 -61t58.5 -22q50 0 80 39.5zM128 641h247v-65h-247v65z" />
    <glyph glyph-name="Abreve" unicode="&#x102;" horiz-adv-x="600" 
d="M23 0zM393 165h-219l-56 -165h-95l240 623h101l222 -623h-141zM373 231l-85 268l-91 -268h176zM228 705q-39 25 -57 75l36 18q20 -25 49 -38t58 -13q28 0 54.5 13t47.5 38l34 -15q-16 -52 -54 -77.5t-84 -25.5q-45 0 -84 25z" />
    <glyph glyph-name="abreve" unicode="&#x103;" horiz-adv-x="519" 
d="M31 0zM462 278v-278h-85l-20 70q-25 -43 -68 -64.5t-96 -21.5q-73 0 -117.5 38.5t-44.5 104.5q0 81 59 121.5t163 40.5q45 0 86 -7v8q0 59 -23.5 89.5t-83.5 30.5q-32 0 -68 -12t-69 -35l-33 58q38 27 93.5 43t101.5 16q205 0 205 -202zM309 96.5q30 39.5 30 110.5v22
q-32 6 -66 6q-57 0 -91.5 -24.5t-34.5 -70.5q0 -39 23.5 -61t58.5 -22q50 0 80 39.5zM173 567q-37 26 -53 80l36 21q37 -61 98 -61q30 0 52.5 13.5t41.5 47.5l34 -19q-15 -56 -50.5 -82t-79.5 -26q-42 0 -79 26z" />
    <glyph glyph-name="Aogonek" unicode="&#x104;" horiz-adv-x="600" 
d="M571 -140l14 -36q-16 -13 -33.5 -17.5t-41.5 -4.5q-34 0 -54 18t-20 51q0 27 24 61.5t78 67.5h-93l-52 165h-218l-57 -165h-95l240 623h101l222 -623q-32 -26 -48 -55t-16 -53q0 -36 28 -36q5 0 21 4zM373 231l-84 268l-92 -268h176z" />
    <glyph glyph-name="aogonek" unicode="&#x105;" horiz-adv-x="519" 
d="M413.5 -55q-16.5 -29 -16.5 -53q0 -36 29 -36q6 0 20 4l15 -36q-17 -13 -34 -17.5t-41 -4.5q-34 0 -54.5 18t-20.5 51q0 27 24 61.5t78 67.5h-36l-20 70q-25 -43 -68 -64.5t-96 -21.5q-73 0 -117.5 38.5t-44.5 104.5q0 81 59 121.5t163 40.5q45 0 86 -7v8
q0 59 -23.5 89.5t-83.5 30.5q-32 0 -68 -12t-69 -35l-33 58q38 27 93.5 43t101.5 16q205 0 205 -202v-278q-32 -26 -48.5 -55zM309 96.5q30 39.5 30 110.5v22q-32 6 -66 6q-57 0 -91.5 -24.5t-34.5 -70.5q0 -39 23.5 -61t58.5 -22q50 0 80 39.5z" />
    <glyph glyph-name="Cacute" unicode="&#x106;" horiz-adv-x="576" 
d="M49 0zM195.5 23.5q-70.5 39.5 -108.5 112t-38 169.5q0 95 43 171t120.5 119t175.5 43q102 0 176 -48l-38 -67q-56 42 -126 42q-68 0 -115 -33.5t-71 -89.5t-24 -125q0 -70 22 -127.5t67 -92.5t112 -35q80 0 140 45l35 -59q-39 -31 -93 -47.5t-111 -16.5
q-96 0 -166.5 39.5zM272 714q53 43 163 111l63 -70q-106 -34 -205 -76z" />
    <glyph glyph-name="cacute" unicode="&#x107;" horiz-adv-x="444" 
d="M35 0zM146.5 14.5q-54.5 30.5 -83 84.5t-28.5 124q0 75 32.5 133.5t91.5 91t136 32.5q39 0 75 -9.5t61 -28.5l-30 -56q-41 30 -91 30q-48 0 -80.5 -26t-48 -66.5t-15.5 -85.5q0 -80 34 -131t104 -51q55 0 98 35l33 -53q-33 -27 -73.5 -40.5t-84.5 -13.5
q-76 0 -130.5 30.5zM210 558q53 50 145 120l70 -71q-96 -39 -192 -85z" />
    <glyph glyph-name="Ccircumflex" unicode="&#x108;" horiz-adv-x="576" 
d="M49 0zM195.5 23.5q-70.5 39.5 -108.5 112t-38 169.5q0 95 43 171t120.5 119t175.5 43q102 0 176 -48l-38 -67q-56 42 -126 42q-68 0 -115 -33.5t-71 -89.5t-24 -125q0 -70 22 -127.5t67 -92.5t112 -35q80 0 140 45l35 -59q-39 -31 -93 -47.5t-111 -16.5
q-96 0 -166.5 39.5zM467 676q-44 24 -109 66q-38 -25 -107 -66l-27 31q64 56 114 103h47q50 -47 114 -103z" />
    <glyph glyph-name="ccircumflex" unicode="&#x109;" horiz-adv-x="444" 
d="M35 0zM146.5 14.5q-54.5 30.5 -83 84.5t-28.5 124q0 75 32.5 133.5t91.5 91t136 32.5q39 0 75 -9.5t61 -28.5l-30 -56q-41 30 -91 30q-48 0 -80.5 -26t-48 -66.5t-15.5 -85.5q0 -80 34 -131t104 -51q55 0 98 35l33 -53q-33 -27 -73.5 -40.5t-84.5 -13.5
q-76 0 -130.5 30.5zM375 535q-53 34 -107 74q-60 -43 -108 -74l-28 31q53 49 114 113h47q61 -64 114 -113z" />
    <glyph glyph-name="Cdotaccent" unicode="&#x10a;" horiz-adv-x="576" 
d="M49 0zM195.5 23.5q-70.5 39.5 -108.5 112t-38 169.5q0 95 43 171t120.5 119t175.5 43q102 0 176 -48l-38 -67q-56 42 -126 42q-68 0 -115 -33.5t-71 -89.5t-24 -125q0 -70 22 -127.5t67 -92.5t112 -35q80 0 140 45l35 -59q-39 -31 -93 -47.5t-111 -16.5
q-96 0 -166.5 39.5zM303 705q-19 18 -19 48t19 49t57 19t57.5 -19t19.5 -48q0 -30 -20.5 -48.5t-57.5 -18.5t-56 18z" />
    <glyph glyph-name="cdotaccent" unicode="&#x10b;" horiz-adv-x="444" 
d="M35 0zM146.5 14.5q-54.5 30.5 -83 84.5t-28.5 124q0 75 32.5 133.5t91.5 91t136 32.5q39 0 75 -9.5t61 -28.5l-30 -56q-41 30 -91 30q-48 0 -80.5 -26t-48 -66.5t-15.5 -85.5q0 -80 34 -131t104 -51q55 0 98 35l33 -53q-33 -27 -73.5 -40.5t-84.5 -13.5
q-76 0 -130.5 30.5zM211 559q-19 18 -19 48t19 49t57 19t57.5 -19t19.5 -48q0 -30 -20.5 -48.5t-57.5 -18.5t-56 18z" />
    <glyph glyph-name="Ccaron" unicode="&#x10c;" horiz-adv-x="576" 
d="M49 0zM195.5 23.5q-70.5 39.5 -108.5 112t-38 169.5q0 95 43 171t120.5 119t175.5 43q102 0 176 -48l-38 -67q-56 42 -126 42q-68 0 -115 -33.5t-71 -89.5t-24 -125q0 -70 22 -127.5t67 -92.5t112 -35q80 0 140 45l35 -59q-39 -31 -93 -47.5t-111 -16.5
q-96 0 -166.5 39.5zM497 782q-68 -59 -114 -104h-47q-46 45 -114 104l32 31q44 -25 108 -66l83 52q8 4 24 14z" />
    <glyph glyph-name="ccaron" unicode="&#x10d;" horiz-adv-x="444" 
d="M35 0zM146.5 14.5q-54.5 30.5 -83 84.5t-28.5 124q0 75 32.5 133.5t91.5 91t136 32.5q39 0 75 -9.5t61 -28.5l-30 -56q-41 30 -91 30q-48 0 -80.5 -26t-48 -66.5t-15.5 -85.5q0 -80 34 -131t104 -51q55 0 98 35l33 -53q-33 -27 -73.5 -40.5t-84.5 -13.5
q-76 0 -130.5 30.5zM405 650q-53 -49 -114 -113h-47q-61 64 -114 113l32 31q57 -37 107 -75q54 41 108 75z" />
    <glyph glyph-name="Dcaron" unicode="&#x10e;" horiz-adv-x="712" 
d="M93 0zM562.5 548.5q92.5 -83.5 92.5 -228.5q0 -89 -38.5 -163.5t-124 -121t-218.5 -46.5q-96 0 -181 13v618q87 12 182 12q195 0 287.5 -83.5zM461 130.5q58 74.5 58 186.5q0 117 -58.5 184t-181.5 67q-25 0 -58 -5v-503q28 -4 62 -4q120 0 178 74.5zM452 782
q-68 -59 -114 -104h-47q-46 45 -114 104l32 31q44 -25 108 -66l83 52q8 4 24 14z" />
    <glyph glyph-name="dcaron" unicode="&#x10f;" horiz-adv-x="590" 
d="M35 0zM511 668v-668h-84l-22 78q-22 -48 -65 -71t-97 -23q-96 0 -152 66.5t-56 178.5q0 70 29 127.5t82.5 90.5t123.5 33q35 0 65.5 -11t51.5 -32v231h124zM356 104.5q31 41.5 31 113.5v140q-36 50 -97 50q-62 0 -94 -49.5t-32 -124.5q0 -76 28 -123.5t83 -47.5
q50 0 81 41.5zM559 509q1 64 10 159h95q-30 -91 -47 -159h-58z" />
    <glyph glyph-name="Dcroat" unicode="&#x110;" horiz-adv-x="725" 
d="M35 0zM575.5 548.5q92.5 -83.5 92.5 -228.5q0 -89 -38.5 -163.5t-124 -121t-218.5 -46.5q-96 0 -181 13v288h-71v61h71v269q87 12 182 12q195 0 287.5 -83.5zM474 130.5q58 74.5 58 186.5q0 117 -58.5 184t-181.5 67q-25 0 -58 -5v-212h124v-61h-124v-230q28 -4 62 -4
q120 0 178 74.5z" />
    <glyph glyph-name="dcroat" unicode="&#x111;" horiz-adv-x="579" 
d="M579 539h-68v-539h-84l-22 78q-22 -48 -65 -71t-97 -23q-96 0 -152 66.5t-56 178.5q0 70 29 127.5t82.5 90.5t123.5 33q35 0 65.5 -11t51.5 -32v102h-118v54h118v75h124v-75h68v-54zM356 104.5q31 41.5 31 113.5v140q-36 50 -97 50q-62 0 -94 -49.5t-32 -124.5
q0 -76 28 -123.5t83 -47.5q50 0 81 41.5z" />
    <glyph glyph-name="Emacron" unicode="&#x112;" horiz-adv-x="519" 
d="M93 0zM391 72q39 2 88 8v-80h-386v623h381v-78q-83 8 -183 8h-70v-204h22q106 0 182 5v-78q-81 4 -182 4h-22v-210h75q56 0 95 2zM169 780h247v-65h-247v65z" />
    <glyph glyph-name="emacron" unicode="&#x113;" horiz-adv-x="507" 
d="M35 0zM473 218h-312q3 -74 42 -119t106 -45q66 0 116 37l33 -52q-38 -30 -78 -42.5t-90 -12.5q-125 0 -190 67t-65 176q0 72 31 129.5t85.5 90.5t121.5 33q97 0 151.5 -58t54.5 -149q0 -35 -6 -55zM193.5 382q-28.5 -43 -32.5 -106h191q1 11 1 30q0 49 -21.5 84t-64.5 35
q-45 0 -73.5 -43zM143 641h247v-65h-247v65z" />
    <glyph glyph-name="Ebreve" unicode="&#x114;" horiz-adv-x="519" 
d="M93 0zM391 72q39 2 88 8v-80h-386v623h381v-78q-83 8 -183 8h-70v-204h22q106 0 182 5v-78q-81 4 -182 4h-22v-210h75q56 0 95 2zM209 705q-39 25 -57 75l36 18q20 -25 49 -38t58 -13q28 0 54.5 13t47.5 38l34 -15q-16 -52 -54 -77.5t-84 -25.5q-45 0 -84 25z" />
    <glyph glyph-name="ebreve" unicode="&#x115;" horiz-adv-x="507" 
d="M35 0zM473 218h-312q3 -74 42 -119t106 -45q66 0 116 37l33 -52q-38 -30 -78 -42.5t-90 -12.5q-125 0 -190 67t-65 176q0 72 31 129.5t85.5 90.5t121.5 33q97 0 151.5 -58t54.5 -149q0 -35 -6 -55zM193.5 382q-28.5 -43 -32.5 -106h191q1 11 1 30q0 49 -21.5 84t-64.5 35
q-45 0 -73.5 -43zM188 567q-37 26 -53 80l36 21q37 -61 98 -61q30 0 52.5 13.5t41.5 47.5l34 -19q-15 -56 -50.5 -82t-79.5 -26q-42 0 -79 26z" />
    <glyph glyph-name="Edotaccent" unicode="&#x116;" horiz-adv-x="519" 
d="M93 0zM391 72q39 2 88 8v-80h-386v623h381v-78q-83 8 -183 8h-70v-204h22q106 0 182 5v-78q-81 4 -182 4h-22v-210h75q56 0 95 2zM235 705q-19 18 -19 48t19 49t57 19t57.5 -19t19.5 -48q0 -30 -20.5 -48.5t-57.5 -18.5t-56 18z" />
    <glyph glyph-name="edotaccent" unicode="&#x117;" horiz-adv-x="507" 
d="M35 0zM473 218h-312q3 -74 42 -119t106 -45q66 0 116 37l33 -52q-38 -30 -78 -42.5t-90 -12.5q-125 0 -190 67t-65 176q0 72 31 129.5t85.5 90.5t121.5 33q97 0 151.5 -58t54.5 -149q0 -35 -6 -55zM193.5 382q-28.5 -43 -32.5 -106h191q1 11 1 30q0 49 -21.5 84t-64.5 35
q-45 0 -73.5 -43zM209 559q-19 18 -19 48t19 49t57 19t57.5 -19t19.5 -48q0 -30 -20.5 -48.5t-57.5 -18.5t-56 18z" />
    <glyph glyph-name="Eogonek" unicode="&#x118;" horiz-adv-x="519" 
d="M431 -55q-16 -29 -16 -53q0 -36 28 -36q5 0 21 4l14 -36q-16 -13 -33.5 -17.5t-41.5 -4.5q-34 0 -54 18t-20 51q0 27 24 61.5t78 67.5h-338v623h381v-78q-83 8 -183 8h-70v-204h22q106 0 182 5v-78q-81 4 -182 4h-22v-210h75q56 0 95 2t88 8v-80q-32 -26 -48 -55z" />
    <glyph glyph-name="eogonek" unicode="&#x119;" horiz-adv-x="507" 
d="M473 218h-312q3 -74 42 -119t106 -45q66 0 116 37l33 -52q-35 -37 -56.5 -77t-21.5 -68q0 -18 8 -28t23 -10q11 0 22 4l14 -37q-17 -12 -33 -16t-40 -4q-37 0 -58.5 18t-21.5 51q0 22 15.5 53.5t45.5 64.5q-30 -6 -65 -6q-125 0 -190 67t-65 176q0 72 31 129.5t85.5 90.5
t121.5 33q97 0 151.5 -58t54.5 -149q0 -35 -6 -55zM193.5 382q-28.5 -43 -32.5 -106h191q1 11 1 30q0 49 -21.5 84t-64.5 35q-45 0 -73.5 -43z" />
    <glyph glyph-name="Ecaron" unicode="&#x11a;" horiz-adv-x="519" 
d="M93 0zM391 72q39 2 88 8v-80h-386v623h381v-78q-83 8 -183 8h-70v-204h22q106 0 182 5v-78q-81 4 -182 4h-22v-210h75q56 0 95 2zM429 782q-68 -59 -114 -104h-47q-46 45 -114 104l32 31q44 -25 108 -66l83 52q8 4 24 14z" />
    <glyph glyph-name="ecaron" unicode="&#x11b;" horiz-adv-x="507" 
d="M35 0zM473 218h-312q3 -74 42 -119t106 -45q66 0 116 37l33 -52q-38 -30 -78 -42.5t-90 -12.5q-125 0 -190 67t-65 176q0 72 31 129.5t85.5 90.5t121.5 33q97 0 151.5 -58t54.5 -149q0 -35 -6 -55zM193.5 382q-28.5 -43 -32.5 -106h191q1 11 1 30q0 49 -21.5 84t-64.5 35
q-45 0 -73.5 -43zM403 650q-53 -49 -114 -113h-47q-61 64 -114 113l32 31q57 -37 107 -75q54 41 108 75z" />
    <glyph glyph-name="Gcircumflex" unicode="&#x11c;" horiz-adv-x="659" 
d="M49 0zM599 331v-282q-44 -31 -105.5 -48t-129.5 -17q-97 0 -168 38.5t-109 110.5t-38 170q0 97 43.5 173t122 119t180.5 43q118 0 198 -55l-40 -65q-69 49 -149 49q-69 0 -118 -33.5t-74.5 -91.5t-25.5 -130q0 -111 52 -184t153 -73q56 0 98 23v185h-130v68h240zM468 676
q-44 24 -109 66q-38 -25 -107 -66l-27 31q64 56 114 103h47q50 -47 114 -103z" />
    <glyph glyph-name="gcircumflex" unicode="&#x11d;" horiz-adv-x="574" 
d="M35 0zM510 465v-416q0 -128 -62 -195t-182 -67q-49 0 -90 9t-81 31l29 67q67 -37 137 -37q128 0 128 164v56q-18 -40 -58.5 -62.5t-91.5 -22.5q-94 0 -149 66t-55 175q0 70 29 126t82 88.5t123 32.5q48 0 85.5 -18.5t60.5 -52.5l15 56h80zM355.5 111.5
q31.5 41.5 31.5 111.5v133q-38 52 -97 52q-62 0 -94 -48.5t-32 -122.5q0 -75 28 -121t83 -46q49 0 80.5 41.5zM389 535q-53 34 -107 74q-60 -43 -108 -74l-28 31q53 49 114 113h47q61 -64 114 -113z" />
    <glyph glyph-name="Gbreve" unicode="&#x11e;" horiz-adv-x="659" 
d="M49 0zM599 331v-282q-44 -31 -105.5 -48t-129.5 -17q-97 0 -168 38.5t-109 110.5t-38 170q0 97 43.5 173t122 119t180.5 43q118 0 198 -55l-40 -65q-69 49 -149 49q-69 0 -118 -33.5t-74.5 -91.5t-25.5 -130q0 -111 52 -184t153 -73q56 0 98 23v185h-130v68h240zM278 705
q-39 25 -57 75l36 18q20 -25 49 -38t58 -13q28 0 54.5 13t47.5 38l34 -15q-16 -52 -54 -77.5t-84 -25.5q-45 0 -84 25z" />
    <glyph glyph-name="gbreve" unicode="&#x11f;" horiz-adv-x="574" 
d="M35 0zM510 465v-416q0 -128 -62 -195t-182 -67q-49 0 -90 9t-81 31l29 67q67 -37 137 -37q128 0 128 164v56q-18 -40 -58.5 -62.5t-91.5 -22.5q-94 0 -149 66t-55 175q0 70 29 126t82 88.5t123 32.5q48 0 85.5 -18.5t60.5 -52.5l15 56h80zM355.5 111.5
q31.5 41.5 31.5 111.5v133q-38 52 -97 52q-62 0 -94 -48.5t-32 -122.5q0 -75 28 -121t83 -46q49 0 80.5 41.5zM204 567q-37 26 -53 80l36 21q37 -61 98 -61q30 0 52.5 13.5t41.5 47.5l34 -19q-15 -56 -50.5 -82t-79.5 -26q-42 0 -79 26z" />
    <glyph glyph-name="Gdotaccent" unicode="&#x120;" horiz-adv-x="659" 
d="M49 0zM599 331v-282q-44 -31 -105.5 -48t-129.5 -17q-97 0 -168 38.5t-109 110.5t-38 170q0 97 43.5 173t122 119t180.5 43q118 0 198 -55l-40 -65q-69 49 -149 49q-69 0 -118 -33.5t-74.5 -91.5t-25.5 -130q0 -111 52 -184t153 -73q56 0 98 23v185h-130v68h240zM304 705
q-19 18 -19 48t19 49t57 19t57.5 -19t19.5 -48q0 -30 -20.5 -48.5t-57.5 -18.5t-56 18z" />
    <glyph glyph-name="gdotaccent" unicode="&#x121;" horiz-adv-x="574" 
d="M35 0zM510 465v-416q0 -128 -62 -195t-182 -67q-49 0 -90 9t-81 31l29 67q67 -37 137 -37q128 0 128 164v56q-18 -40 -58.5 -62.5t-91.5 -22.5q-94 0 -149 66t-55 175q0 70 29 126t82 88.5t123 32.5q48 0 85.5 -18.5t60.5 -52.5l15 56h80zM355.5 111.5
q31.5 41.5 31.5 111.5v133q-38 52 -97 52q-62 0 -94 -48.5t-32 -122.5q0 -75 28 -121t83 -46q49 0 80.5 41.5zM225 559q-19 18 -19 48t19 49t57 19t57.5 -19t19.5 -48q0 -30 -20.5 -48.5t-57.5 -18.5t-56 18z" />
    <glyph glyph-name="Gcommaaccent" unicode="&#x122;" horiz-adv-x="659" 
d="M49 0zM599 331v-282q-44 -31 -105.5 -48t-129.5 -17q-97 0 -168 38.5t-109 110.5t-38 170q0 97 43.5 173t122 119t180.5 43q118 0 198 -55l-40 -65q-69 49 -149 49q-69 0 -118 -33.5t-74.5 -91.5t-25.5 -130q0 -111 52 -184t153 -73q56 0 98 23v185h-130v68h240z
M326 -198q1 72 10 146h96q-30 -83 -47 -146h-59z" />
    <glyph glyph-name="gcommaaccent" unicode="&#x123;" horiz-adv-x="574" 
d="M322 520h-96q33 93 47 148h59q-1 -71 -10 -148zM510 465v-416q0 -128 -62 -195t-182 -67q-49 0 -90 9t-81 31l29 67q67 -37 137 -37q128 0 128 164v56q-18 -40 -58.5 -62.5t-91.5 -22.5q-94 0 -149 66t-55 175q0 70 29 126t82 88.5t123 32.5q48 0 85.5 -18.5t60.5 -52.5
l15 56h80zM355.5 111.5q31.5 41.5 31.5 111.5v133q-38 52 -97 52q-62 0 -94 -48.5t-32 -122.5q0 -75 28 -121t83 -46q49 0 80.5 41.5z" />
    <glyph glyph-name="Hcircumflex" unicode="&#x124;" horiz-adv-x="727" 
d="M93 0zM644 623v-623h-129v286h-293v-286h-129v623h129v-268h293v268h129zM471 676q-44 24 -109 66q-38 -25 -107 -66l-27 31q64 56 114 103h47q50 -47 114 -103z" />
    <glyph glyph-name="hcircumflex" unicode="&#x125;" horiz-adv-x="575" 
d="M0 0zM474 423q43 -57 43 -154v-269h-124v256q0 68 -19 107.5t-65 39.5q-54 0 -85 -47.5t-31 -125.5v-230h-124v668h124v-266q25 38 65 58t84 20q89 0 132 -57zM237 721q-44 24 -109 66q-38 -25 -107 -66l-27 31q64 56 114 103h47q50 -47 114 -103z" />
    <glyph glyph-name="Hbar" unicode="&#x126;" horiz-adv-x="727" 
d="M686 486h-42v-486h-129v286h-293v-286h-129v486h-42v62h42v75h129v-75h293v75h129v-75h42v-62zM515 486h-293v-131h293v131z" />
    <glyph glyph-name="hbar" unicode="&#x127;" horiz-adv-x="590" 
d="M489 423q43 -57 43 -154v-269h-124v256q0 68 -19 107.5t-65 39.5q-54 0 -85 -47.5t-31 -125.5v-230h-124v530h-69v54h69v84h124v-84h116v-54h-116v-128q25 38 65 58t84 20q89 0 132 -57z" />
    <glyph glyph-name="Itilde" unicode="&#x128;" horiz-adv-x="304" 
d="M0 0zM93 623h129v-623h-129v623zM0 703q21 49 45 73.5t56 24.5q13 0 22.5 -4t25.5 -12l43 -24q19 -12 31 -12q13 0 23.5 10.5t25.5 37.5l37 -18q-18 -47 -43.5 -72.5t-56.5 -25.5q-15 0 -25.5 3t-22.5 10l-44 26q-3 2 -12.5 7.5t-20.5 5.5q-13 0 -23 -11t-26 -39z" />
    <glyph glyph-name="itilde" unicode="&#x129;" horiz-adv-x="272" 
d="M0 0zM73 465h126v-465h-126v465zM162.5 541q-10.5 4 -22.5 13l-44 31q-19 14 -31 14q-15 0 -25 -12t-26 -46l-35 20q22 52 46 79t55 27q13 0 22.5 -4t23.5 -12l45 -30q18 -12 31 -12t23 11t26 40l37 -18q-19 -49 -44.5 -77t-55.5 -28q-15 0 -25.5 4z" />
    <glyph glyph-name="Imacron" unicode="&#x12a;" horiz-adv-x="304" 
d="M31 0zM93 623h129v-623h-129v623zM31 780h247v-65h-247v65z" />
    <glyph glyph-name="imacron" unicode="&#x12b;" horiz-adv-x="272" 
d="M13 0zM73 465h126v-465h-126v465zM13 641h247v-65h-247v65z" />
    <glyph glyph-name="Ibreve" unicode="&#x12c;" horiz-adv-x="304" 
d="M14 0zM93 623h129v-623h-129v623zM71 705q-39 25 -57 75l36 18q20 -25 49 -38t58 -13q28 0 54.5 13t47.5 38l34 -15q-16 -52 -54 -77.5t-84 -25.5q-45 0 -84 25z" />
    <glyph glyph-name="ibreve" unicode="&#x12d;" horiz-adv-x="272" 
d="M5 0zM73 465h126v-465h-126v465zM58 567q-37 26 -53 80l36 21q37 -61 98 -61q30 0 52.5 13.5t41.5 47.5l34 -19q-15 -56 -50.5 -82t-79.5 -26q-42 0 -79 26z" />
    <glyph glyph-name="Iogonek" unicode="&#x12e;" horiz-adv-x="304" 
d="M173.5 -55q-16.5 -29 -16.5 -53q0 -16 7.5 -26t21.5 -10q6 0 20 4l15 -36q-16 -13 -33.5 -17.5t-41.5 -4.5q-34 0 -54.5 18t-20.5 51q0 27 24 61.5t78 67.5h-80v623h129v-623q-32 -26 -48.5 -55z" />
    <glyph glyph-name="iogonek" unicode="&#x12f;" horiz-adv-x="270" 
d="M78 559q-19 18 -19 48t19 49t57 19t57.5 -19t19.5 -48q0 -30 -20.5 -48.5t-57.5 -18.5t-56 18zM68 -180q-20 18 -20 51q0 27 24 61.5t78 67.5h-78v465h126v-465q-32 -26 -48 -55t-16 -53q0 -36 29 -36q6 0 20 4l14 -36q-16 -13 -33 -17.5t-42 -4.5q-34 0 -54 18z" />
    <glyph glyph-name="Idotaccent" unicode="&#x130;" horiz-adv-x="304" 
d="M78 0zM93 623h129v-623h-129v623zM97 705q-19 18 -19 48t19 49t57 19t57.5 -19t19.5 -48q0 -30 -20.5 -48.5t-57.5 -18.5t-56 18z" />
    <glyph glyph-name="dotlessi" unicode="&#x131;" horiz-adv-x="272" 
d="M73 465h126v-465h-126v465z" />
    <glyph glyph-name="IJ" unicode="&#x132;" horiz-adv-x="611" 
d="M93 0zM93 623h129v-623h-129v623zM319 -96q52 33 71 77t19 129v513h129v-452q0 -119 -45 -195.5t-147 -115.5z" />
    <glyph glyph-name="ij" unicode="&#x133;" horiz-adv-x="538" 
d="M59 0zM78 559q-19 18 -19 48t19 49t57 19t57.5 -19t19.5 -48q0 -30 -20.5 -48.5t-57.5 -18.5t-56 18zM72 465h126v-465h-126v465zM352 559q-19 18 -19 48t19 49t57 19t57 -18.5t19 -48.5t-20 -48.5t-57 -18.5t-56 18zM266 -149q43 35 62 81.5t19 131.5v401h124v-335
q0 -124 -40 -201.5t-138 -116.5z" />
    <glyph glyph-name="Jcircumflex" unicode="&#x134;" horiz-adv-x="307" 
d="M15 0zM15 -96q52 33 71 77t19 129v513h129v-452q0 -119 -45 -195.5t-147 -115.5zM274 676q-44 24 -109 66q-38 -25 -107 -66l-27 31q64 56 114 103h47q50 -47 114 -103z" />
    <glyph glyph-name="jcircumflex" unicode="&#x135;" horiz-adv-x="268" 
d="M0 0zM-4 -149q43 35 62 81.5t19 131.5v401h124v-335q0 -124 -40.5 -201.5t-137.5 -116.5zM245 535q-53 34 -107 74q-60 -43 -108 -74l-28 31q53 49 114 113h47q61 -64 114 -113z" />
    <glyph glyph-name="Kcommaaccent" unicode="&#x136;" horiz-adv-x="616" 
d="M93 0zM267 284h-45v-284h-129v623h129v-266h51q118 137 186 266h134q-74 -112 -231 -267l234 -356h-145zM263 -198q1 72 10 146h96q-30 -83 -47 -146h-59z" />
    <glyph glyph-name="kcommaaccent" unicode="&#x137;" horiz-adv-x="517" 
d="M69 0zM237 214h-44v-214h-124v668h124v-385h51q38 40 75 90.5t59 91.5h115q-31 -45 -77 -96t-94 -93l182 -276h-134zM217 -198q1 72 10 146h96q-30 -83 -47 -146h-59z" />
    <glyph glyph-name="kgreenlandic" unicode="&#x138;" horiz-adv-x="523" 
d="M243 207h-44v-207h-124v465h124v-189h50q37 40 74.5 93t59.5 96h116q-33 -49 -78.5 -102t-92.5 -94l181 -269h-134z" />
    <glyph glyph-name="Lacute" unicode="&#x139;" horiz-adv-x="457" 
d="M78 0zM455 82v-82h-362v623h129v-549h47q102 0 186 8zM78 714q53 43 163 111l63 -70q-106 -34 -205 -76z" />
    <glyph glyph-name="lacute" unicode="&#x13a;" horiz-adv-x="262" 
d="M43 0zM69 668h124v-668h-124v668zM43 759q53 43 163 111l63 -70q-106 -34 -205 -76z" />
    <glyph glyph-name="Lcommaaccent" unicode="&#x13b;" horiz-adv-x="457" 
d="M93 0zM455 82v-82h-362v623h129v-549h47q102 0 186 8zM223 -198q1 72 10 146h96q-30 -83 -47 -146h-59z" />
    <glyph glyph-name="lcommaaccent" unicode="&#x13c;" horiz-adv-x="262" 
d="M69 0zM69 668h124v-668h-124v668zM77 -198q1 72 10 146h96q-30 -83 -47 -146h-59z" />
    <glyph glyph-name="Lcaron" unicode="&#x13d;" horiz-adv-x="457" 
d="M93 0zM455 82v-82h-362v623h129v-549h47q102 0 186 8zM302 464q1 64 10 159h95q-30 -91 -47 -159h-58z" />
    <glyph glyph-name="lcaron" unicode="&#x13e;" horiz-adv-x="272" 
d="M69 0zM69 668h124v-668h-124v668zM243 509q1 64 10 159h95q-30 -91 -47 -159h-58z" />
    <glyph glyph-name="Ldot" unicode="&#x13f;" horiz-adv-x="457" 
d="M93 0zM455 82v-82h-362v623h129v-549h47q102 0 186 8zM317 285q-20 19 -20 48q0 30 19.5 49t52.5 19q32 0 51 -19t19 -49q0 -29 -19 -48t-52 -19q-31 0 -51 19z" />
    <glyph glyph-name="ldot" unicode="&#x140;" horiz-adv-x="376" 
d="M69 668h124v-668h-124v668zM264 276.5q-19 19.5 -19 52.5q0 31 19 50.5t48 19.5t48 -19.5t19 -51.5t-19 -51.5t-48 -19.5t-48 19.5z" />
    <glyph glyph-name="Lslash" unicode="&#x141;" horiz-adv-x="458" 
d="M456 82v-82h-362v263l-75 -39v73l75 39v287h129v-219l89 46v-74l-89 -46v-256h47q102 0 186 8z" />
    <glyph glyph-name="lslash" unicode="&#x142;" horiz-adv-x="313" 
d="M296 392l-71 -38v-354h-124v287l-75 -40v73l75 40v308h124v-241l71 38v-73z" />
    <glyph glyph-name="Nacute" unicode="&#x143;" horiz-adv-x="676" 
d="M88 0zM599 623v-623h-69l-357 414v-414h-85v623h68l357 -425v425h86zM253 714q53 43 163 111l63 -70q-106 -34 -205 -76z" />
    <glyph glyph-name="nacute" unicode="&#x144;" horiz-adv-x="589" 
d="M75 0zM482 423.5q43 -56.5 43 -156.5v-267h-125v254q0 71 -18.5 110t-65.5 39q-55 0 -85 -47.5t-30 -129.5v-226h-126v465h84l23 -84q25 47 68 73t98 26q91 0 134 -56.5zM241 558q53 50 145 120l70 -71q-96 -39 -192 -85z" />
    <glyph glyph-name="Ncommaaccent" unicode="&#x145;" horiz-adv-x="676" 
d="M88 0zM599 623v-623h-69l-357 414v-414h-85v623h68l357 -425v425h86zM295 -198q1 72 10 146h96q-30 -83 -47 -146h-59z" />
    <glyph glyph-name="ncommaaccent" unicode="&#x146;" horiz-adv-x="589" 
d="M75 0zM482 423.5q43 -56.5 43 -156.5v-267h-125v254q0 71 -18.5 110t-65.5 39q-55 0 -85 -47.5t-30 -129.5v-226h-126v465h84l23 -84q25 47 68 73t98 26q91 0 134 -56.5zM246 -198q1 72 10 146h96q-30 -83 -47 -146h-59z" />
    <glyph glyph-name="Ncaron" unicode="&#x147;" horiz-adv-x="676" 
d="M88 0zM599 623v-623h-69l-357 414v-414h-85v623h68l357 -425v425h86zM478 782q-68 -59 -114 -104h-47q-46 45 -114 104l32 31q44 -25 108 -66l83 52q8 4 24 14z" />
    <glyph glyph-name="ncaron" unicode="&#x148;" horiz-adv-x="589" 
d="M75 0zM482 423.5q43 -56.5 43 -156.5v-267h-125v254q0 71 -18.5 110t-65.5 39q-55 0 -85 -47.5t-30 -129.5v-226h-126v465h84l23 -84q25 47 68 73t98 26q91 0 134 -56.5zM436 650q-53 -49 -114 -113h-47q-61 64 -114 113l32 31q57 -37 107 -75q54 41 108 75z" />
    <glyph glyph-name="Eng" unicode="&#x14a;" horiz-adv-x="677" 
d="M599 623v-493q0 -86 -15 -147.5t-55.5 -105t-115.5 -65.5l-24 40q55 29 84 68.5t36 104.5l-335 386v-411h-86v623h68l357 -424v424h86z" />
    <glyph glyph-name="eng" unicode="&#x14b;" horiz-adv-x="589" 
d="M482 423.5q43 -56.5 43 -156.5v-137q0 -127 -48 -207t-164 -111l-26 39q56 28 84.5 80.5t28.5 142.5v180q0 71 -18.5 110t-65.5 39q-55 0 -85 -47.5t-30 -129.5v-226h-126v465h84l23 -84q25 47 68 73t98 26q91 0 134 -56.5z" />
    <glyph glyph-name="Omacron" unicode="&#x14c;" horiz-adv-x="723" 
d="M49 0zM196.5 21q-70.5 37 -109 109.5t-38.5 174.5q0 97 42 172.5t115.5 118t164.5 42.5q145 0 229 -83t84 -237q0 -97 -42.5 -173t-116 -118.5t-163.5 -42.5q-95 0 -165.5 37zM459.5 88q41.5 35 64 94t22.5 128q0 72 -20 131t-60 94t-97 35q-54 0 -96 -35t-64.5 -94
t-22.5 -128q0 -72 20.5 -131t60.5 -94t97 -35q54 0 95.5 35zM244 780h247v-65h-247v65z" />
    <glyph glyph-name="omacron" unicode="&#x14d;" horiz-adv-x="550" 
d="M35 0zM97.5 50.5q-62.5 66.5 -62.5 180.5q0 71 31.5 127.5t86.5 89t122 32.5q115 0 177.5 -66t62.5 -180q0 -71 -31.5 -128t-86.5 -89.5t-122 -32.5q-115 0 -177.5 66.5zM357 101q28 58 28 133q0 78 -25 133t-83 55q-55 0 -83.5 -58.5t-28.5 -132.5q0 -78 26 -133t84 -55
q54 0 82 58zM152 641h247v-65h-247v65z" />
    <glyph glyph-name="Obreve" unicode="&#x14e;" horiz-adv-x="723" 
d="M49 0zM196.5 21q-70.5 37 -109 109.5t-38.5 174.5q0 97 42 172.5t115.5 118t164.5 42.5q145 0 229 -83t84 -237q0 -97 -42.5 -173t-116 -118.5t-163.5 -42.5q-95 0 -165.5 37zM459.5 88q41.5 35 64 94t22.5 128q0 72 -20 131t-60 94t-97 35q-54 0 -96 -35t-64.5 -94
t-22.5 -128q0 -72 20.5 -131t60.5 -94t97 -35q54 0 95.5 35zM284 705q-39 25 -57 75l36 18q20 -25 49 -38t58 -13q28 0 54.5 13t47.5 38l34 -15q-16 -52 -54 -77.5t-84 -25.5q-45 0 -84 25z" />
    <glyph glyph-name="obreve" unicode="&#x14f;" horiz-adv-x="550" 
d="M35 0zM97.5 50.5q-62.5 66.5 -62.5 180.5q0 71 31.5 127.5t86.5 89t122 32.5q115 0 177.5 -66t62.5 -180q0 -71 -31.5 -128t-86.5 -89.5t-122 -32.5q-115 0 -177.5 66.5zM357 101q28 58 28 133q0 78 -25 133t-83 55q-55 0 -83.5 -58.5t-28.5 -132.5q0 -78 26 -133t84 -55
q54 0 82 58zM197 567q-37 26 -53 80l36 21q37 -61 98 -61q30 0 52.5 13.5t41.5 47.5l34 -19q-15 -56 -50.5 -82t-79.5 -26q-42 0 -79 26z" />
    <glyph glyph-name="Ohungarumlaut" unicode="&#x150;" horiz-adv-x="723" 
d="M49 0zM196.5 21q-70.5 37 -109 109.5t-38.5 174.5q0 97 42 172.5t115.5 118t164.5 42.5q145 0 229 -83t84 -237q0 -97 -42.5 -173t-116 -118.5t-163.5 -42.5q-95 0 -165.5 37zM459.5 88q41.5 35 64 94t22.5 128q0 72 -20 131t-60 94t-97 35q-54 0 -96 -35t-64.5 -94
t-22.5 -128q0 -72 20.5 -131t60.5 -94t97 -35q54 0 95.5 35zM226 698q31 36 127 121l79 -42q-62 -36 -175 -108zM392 697q38 35 144 107l74 -52q-93 -39 -191 -84z" />
    <glyph glyph-name="ohungarumlaut" unicode="&#x151;" horiz-adv-x="550" 
d="M35 0zM97.5 50.5q-62.5 66.5 -62.5 180.5q0 71 31.5 127.5t86.5 89t122 32.5q115 0 177.5 -66t62.5 -180q0 -71 -31.5 -128t-86.5 -89.5t-122 -32.5q-115 0 -177.5 66.5zM357 101q28 58 28 133q0 78 -25 133t-83 55q-55 0 -83.5 -58.5t-28.5 -132.5q0 -78 26 -133t84 -55
q54 0 82 58zM170 544q49 68 104 130l81 -35q-80 -57 -153 -118zM318 542q54 59 122 114l83 -38q-47 -23 -92.5 -50t-80.5 -49z" />
    <glyph glyph-name="OE" unicode="&#x152;" horiz-adv-x="939" 
d="M899 0h-405q-64 -16 -128 -16q-148 0 -232.5 83.5t-84.5 237.5q0 100 44 175.5t121 116.5t175 41q57 0 108 -15h398v-78q-83 8 -183 8h-69v-204h22q78 0 180 5v-78q-122 4 -180 4h-22v-210h73q58 0 95.5 2t87.5 8v-80zM240 123.5q53 -74.5 156 -74.5q73 0 119 34v453
q-48 36 -120 36q-64 0 -111 -35.5t-72 -95t-25 -129.5q0 -114 53 -188.5z" />
    <glyph glyph-name="oe" unicode="&#x153;" horiz-adv-x="860" 
d="M826 218h-312q3 -74 42 -119t106 -45q65 0 116 37l32 -52q-38 -29 -77.5 -42t-89.5 -13q-128 0 -195 72q-33 -34 -77 -53t-94 -19q-115 0 -178.5 66.5t-63.5 180.5q0 71 32 127.5t87.5 89t122.5 32.5q117 0 181 -70q32 34 75 52t93 18q97 0 151 -57.5t54 -149.5
q0 -34 -5 -55zM546 382q-28 -43 -32 -106h191q1 11 1 30q0 49 -21.5 84t-64.5 35q-46 0 -74 -43zM359 101.5q29 58.5 29 132.5q0 77 -26 132.5t-85 55.5q-36 0 -61.5 -28.5t-38 -72.5t-12.5 -90q0 -77 27 -132.5t85 -55.5q53 0 82 58.5z" />
    <glyph glyph-name="Racute" unicode="&#x154;" horiz-adv-x="598" 
d="M93 0zM429 0l-144 244h-5q-19 0 -59 2v-246h-128v620q28 5 78 8.5t84 3.5q140 0 209.5 -49t69.5 -143q0 -58 -34.5 -104t-94.5 -70l168 -266h-144zM254 307q74 0 112 38.5t38 97.5q0 61 -35.5 94.5t-106.5 33.5q-26 0 -41 -2v-259q18 -3 33 -3zM207 714q53 43 163 111
l63 -70q-106 -34 -205 -76z" />
    <glyph glyph-name="racute" unicode="&#x155;" horiz-adv-x="359" 
d="M75 0zM354 468v-94q-18 4 -32 4q-121 0 -121 -137v-241h-126v465h82l27 -90q20 47 55 72.5t81 25.5q23 0 34 -5zM146 558q53 50 145 120l70 -71q-96 -39 -192 -85z" />
    <glyph glyph-name="Rcommaaccent" unicode="&#x156;" horiz-adv-x="598" 
d="M93 0zM429 0l-144 244h-5q-19 0 -59 2v-246h-128v620q28 5 78 8.5t84 3.5q140 0 209.5 -49t69.5 -143q0 -58 -34.5 -104t-94.5 -70l168 -266h-144zM254 307q74 0 112 38.5t38 97.5q0 61 -35.5 94.5t-106.5 33.5q-26 0 -41 -2v-259q18 -3 33 -3zM262 -198q1 72 10 146h96
q-30 -83 -47 -146h-59z" />
    <glyph glyph-name="rcommaaccent" unicode="&#x157;" horiz-adv-x="359" 
d="M75 0zM354 468v-94q-18 4 -32 4q-121 0 -121 -137v-241h-126v465h82l27 -90q20 47 55 72.5t81 25.5q23 0 34 -5zM81 -198q1 72 10 146h96q-30 -83 -47 -146h-59z" />
    <glyph glyph-name="Rcaron" unicode="&#x158;" horiz-adv-x="598" 
d="M93 0zM429 0l-144 244h-5q-19 0 -59 2v-246h-128v620q28 5 78 8.5t84 3.5q140 0 209.5 -49t69.5 -143q0 -58 -34.5 -104t-94.5 -70l168 -266h-144zM254 307q74 0 112 38.5t38 97.5q0 61 -35.5 94.5t-106.5 33.5q-26 0 -41 -2v-259q18 -3 33 -3zM432 782
q-68 -59 -114 -104h-47q-46 45 -114 104l32 31q44 -25 108 -66l83 52q8 4 24 14z" />
    <glyph glyph-name="rcaron" unicode="&#x159;" horiz-adv-x="359" 
d="M66 0zM354 468v-94q-18 4 -32 4q-121 0 -121 -137v-241h-126v465h82l27 -90q20 47 55 72.5t81 25.5q23 0 34 -5zM341 650q-53 -49 -114 -113h-47q-61 64 -114 113l32 31q57 -37 107 -75q54 41 108 75z" />
    <glyph glyph-name="Sacute" unicode="&#x15a;" horiz-adv-x="527" 
d="M50 0zM142 1q-53 17 -92 51l42 66q75 -61 158 -61q50 0 82.5 22.5t32.5 62.5q0 35 -24 59t-80 51l-83 43q-61 31 -89 70.5t-28 97.5q0 54 30 93.5t81.5 60.5t114.5 21q112 0 183 -49l-34 -66q-38 24 -72.5 35t-74.5 11q-47 0 -76.5 -20t-29.5 -55q0 -32 20 -51.5
t72 -46.5l89 -46q62 -33 91 -76t29 -100t-29 -100t-81.5 -66.5t-122.5 -23.5q-56 0 -109 17zM197 714q53 43 163 111l63 -70q-106 -34 -205 -76z" />
    <glyph glyph-name="sacute" unicode="&#x15b;" horiz-adv-x="427" 
d="M34 0zM34 43l34 60q66 -49 136 -49q86 0 86 54q0 23 -16.5 39.5t-53.5 31.5l-67 26q-53 22 -79.5 54t-26.5 79q0 67 54 104.5t134 37.5q92 0 151 -39l-27 -61q-55 36 -121 36q-38 0 -60.5 -14.5t-22.5 -38.5q0 -22 16 -36t52 -29l67 -29q55 -24 81.5 -57t26.5 -82
q0 -68 -50 -107t-136 -39q-99 0 -178 59zM166 558q53 50 145 120l70 -71q-96 -39 -192 -85z" />
    <glyph glyph-name="Scircumflex" unicode="&#x15c;" horiz-adv-x="527" 
d="M50 0zM142 1q-53 17 -92 51l42 66q75 -61 158 -61q50 0 82.5 22.5t32.5 62.5q0 35 -24 59t-80 51l-83 43q-61 31 -89 70.5t-28 97.5q0 54 30 93.5t81.5 60.5t114.5 21q112 0 183 -49l-34 -66q-38 24 -72.5 35t-74.5 11q-47 0 -76.5 -20t-29.5 -55q0 -32 20 -51.5
t72 -46.5l89 -46q62 -33 91 -76t29 -100t-29 -100t-81.5 -66.5t-122.5 -23.5q-56 0 -109 17zM392 676q-44 24 -109 66q-38 -25 -107 -66l-27 31q64 56 114 103h47q50 -47 114 -103z" />
    <glyph glyph-name="scircumflex" unicode="&#x15d;" horiz-adv-x="427" 
d="M34 0zM34 43l34 60q66 -49 136 -49q86 0 86 54q0 23 -16.5 39.5t-53.5 31.5l-67 26q-53 22 -79.5 54t-26.5 79q0 67 54 104.5t134 37.5q92 0 151 -39l-27 -61q-55 36 -121 36q-38 0 -60.5 -14.5t-22.5 -38.5q0 -22 16 -36t52 -29l67 -29q55 -24 81.5 -57t26.5 -82
q0 -68 -50 -107t-136 -39q-99 0 -178 59zM331 535q-53 34 -107 74q-60 -43 -108 -74l-28 31q53 49 114 113h47q61 -64 114 -113z" />
    <glyph glyph-name="Scedilla" unicode="&#x15e;" horiz-adv-x="527" 
d="M431.5 45.5q-52.5 -50.5 -142.5 -59.5l-10 -34q34 -2 54.5 -21t20.5 -49q0 -36 -28.5 -58t-77.5 -22q-36 0 -65 12l11 42q9 -5 23 -8t25 -3q39 0 39 29q0 14 -10.5 21.5t-27.5 7.5q-22 0 -34 -4l23 85q-52 3 -99.5 20t-82.5 48l42 66q75 -61 158 -61q50 0 82.5 22.5
t32.5 62.5q0 35 -24 59t-80 51l-83 43q-61 31 -89 70.5t-28 97.5q0 54 30 93.5t81.5 60.5t114.5 21q112 0 183 -49l-34 -66q-38 24 -72.5 35t-74.5 11q-47 0 -76.5 -20t-29.5 -55q0 -32 20 -51.5t72 -46.5l89 -46q62 -33 91 -76t29 -100q0 -78 -52.5 -128.5z" />
    <glyph glyph-name="scedilla" unicode="&#x15f;" horiz-adv-x="427" 
d="M355.5 29q-42.5 -38 -117.5 -44l-10 -33q34 -2 54.5 -21t20.5 -49q0 -36 -28.5 -58t-77.5 -22q-36 0 -65 12l11 42q9 -5 23 -8t25 -3q39 0 39 29q0 14 -10.5 21.5t-27.5 7.5q-22 0 -34 -4l23 86q-80 8 -147 58l34 60q66 -49 136 -49q86 0 86 54q0 23 -16.5 39.5
t-53.5 31.5l-67 26q-53 22 -79.5 54t-26.5 79q0 67 54 104.5t134 37.5q92 0 151 -39l-27 -61q-55 36 -121 36q-38 0 -60.5 -14.5t-22.5 -38.5q0 -22 16 -36t52 -29l67 -29q55 -24 81.5 -57t26.5 -82q0 -63 -42.5 -101z" />
    <glyph glyph-name="Scaron" unicode="&#x160;" horiz-adv-x="527" 
d="M50 0zM142 1q-53 17 -92 51l42 66q75 -61 158 -61q50 0 82.5 22.5t32.5 62.5q0 35 -24 59t-80 51l-83 43q-61 31 -89 70.5t-28 97.5q0 54 30 93.5t81.5 60.5t114.5 21q112 0 183 -49l-34 -66q-38 24 -72.5 35t-74.5 11q-47 0 -76.5 -20t-29.5 -55q0 -32 20 -51.5
t72 -46.5l89 -46q62 -33 91 -76t29 -100t-29 -100t-81.5 -66.5t-122.5 -23.5q-56 0 -109 17zM422 782q-68 -59 -114 -104h-47q-46 45 -114 104l32 31q44 -25 108 -66l83 52q8 4 24 14z" />
    <glyph glyph-name="scaron" unicode="&#x161;" horiz-adv-x="427" 
d="M34 0zM34 43l34 60q66 -49 136 -49q86 0 86 54q0 23 -16.5 39.5t-53.5 31.5l-67 26q-53 22 -79.5 54t-26.5 79q0 67 54 104.5t134 37.5q92 0 151 -39l-27 -61q-55 36 -121 36q-38 0 -60.5 -14.5t-22.5 -38.5q0 -22 16 -36t52 -29l67 -29q55 -24 81.5 -57t26.5 -82
q0 -68 -50 -107t-136 -39q-99 0 -178 59zM361 650q-53 -49 -114 -113h-47q-61 64 -114 113l32 31q57 -37 107 -75q54 41 108 75z" />
    <glyph glyph-name="uni0162" unicode="&#x162;" horiz-adv-x="500" 
d="M6 0zM500 623v-78q-80 9 -151 9h-31v-554h-129v554h-32q-70 0 -151 -9v78h494zM198 -198q1 72 10 146h96q-30 -83 -47 -146h-59z" />
    <glyph glyph-name="uni0163" unicode="&#x163;" horiz-adv-x="378" 
d="M11 0zM358 31q-30 -26 -60 -36.5t-64 -10.5q-76 0 -108 48t-32 138v235h-83v60h83v128h123v-128h120v-60h-120v-223q0 -63 10.5 -93t42.5 -30q30 0 59 22zM178 -198q1 72 10 146h96q-30 -83 -47 -146h-59z" />
    <glyph glyph-name="Tcaron" unicode="&#x164;" horiz-adv-x="500" 
d="M6 0zM500 623v-78q-80 9 -151 9h-31v-554h-129v554h-32q-70 0 -151 -9v78h494zM388 782q-68 -59 -114 -104h-47q-46 45 -114 104l32 31q44 -25 108 -66l83 52q8 4 24 14z" />
    <glyph glyph-name="tcaron" unicode="&#x165;" horiz-adv-x="378" 
d="M336 523h-57q1 59 10 145h94q-32 -91 -47 -145zM329 81l29 -50q-30 -26 -60 -36.5t-64 -10.5q-76 0 -108 48t-32 138v235h-83v60h83v128h123v-128h120v-60h-120v-223q0 -63 10.5 -93t42.5 -30q30 0 59 22z" />
    <glyph glyph-name="Tbar" unicode="&#x166;" horiz-adv-x="500" 
d="M318 554v-203h125v-60h-125v-291h-129v291h-126v60h126v203h-32q-70 0 -151 -9v78h494v-78q-80 9 -151 9h-31z" />
    <glyph glyph-name="tbar" unicode="&#x167;" horiz-adv-x="378" 
d="M358 31q-30 -26 -60 -36.5t-64 -10.5q-76 0 -108 48t-32 138v55h-83v60h83v120h-83v60h83v128h123v-128h120v-60h-120v-120h120v-60h-120v-43q0 -63 10.5 -93t42.5 -30q30 0 59 22z" />
    <glyph glyph-name="Utilde" unicode="&#x168;" horiz-adv-x="649" 
d="M79 0zM141.5 55q-62.5 71 -62.5 200v368h129v-333q0 -106 33 -165t110 -59q78 0 114.5 50t36.5 149v358h88v-357q0 -131 -63.5 -206.5t-192.5 -75.5q-130 0 -192.5 71zM204 703q21 49 45 73.5t56 24.5q13 0 22.5 -4t25.5 -12l43 -24q19 -12 31 -12q13 0 23.5 10.5
t25.5 37.5l37 -18q-18 -47 -43.5 -72.5t-56.5 -25.5q-15 0 -25.5 3t-22.5 10l-44 26q-3 2 -12.5 7.5t-20.5 5.5q-13 0 -23 -11t-26 -39z" />
    <glyph glyph-name="utilde" unicode="&#x169;" horiz-adv-x="584" 
d="M68 0zM512 465v-465h-85l-22 81q-24 -48 -67.5 -72.5t-96.5 -24.5q-85 0 -129 56.5t-44 151.5v273h124v-258q0 -146 87 -146q47 0 76.5 45.5t29.5 118.5v240h127zM318.5 541q-10.5 4 -22.5 13l-44 31q-19 14 -31 14q-15 0 -25 -12t-26 -46l-35 20q22 52 46 79t55 27
q13 0 22.5 -4t23.5 -12l45 -30q18 -12 31 -12t23 11t26 40l37 -18q-19 -49 -44.5 -77t-55.5 -28q-15 0 -25.5 4z" />
    <glyph glyph-name="Umacron" unicode="&#x16a;" horiz-adv-x="649" 
d="M79 0zM141.5 55q-62.5 71 -62.5 200v368h129v-333q0 -106 33 -165t110 -59q78 0 114.5 50t36.5 149v358h88v-357q0 -131 -63.5 -206.5t-192.5 -75.5q-130 0 -192.5 71zM235 780h247v-65h-247v65z" />
    <glyph glyph-name="umacron" unicode="&#x16b;" horiz-adv-x="584" 
d="M68 0zM512 465v-465h-85l-22 81q-24 -48 -67.5 -72.5t-96.5 -24.5q-85 0 -129 56.5t-44 151.5v273h124v-258q0 -146 87 -146q47 0 76.5 45.5t29.5 118.5v240h127zM169 641h247v-65h-247v65z" />
    <glyph glyph-name="Ubreve" unicode="&#x16c;" horiz-adv-x="649" 
d="M79 0zM141.5 55q-62.5 71 -62.5 200v368h129v-333q0 -106 33 -165t110 -59q78 0 114.5 50t36.5 149v358h88v-357q0 -131 -63.5 -206.5t-192.5 -75.5q-130 0 -192.5 71zM275 705q-39 25 -57 75l36 18q20 -25 49 -38t58 -13q28 0 54.5 13t47.5 38l34 -15q-16 -52 -54 -77.5
t-84 -25.5q-45 0 -84 25z" />
    <glyph glyph-name="ubreve" unicode="&#x16d;" horiz-adv-x="584" 
d="M68 0zM512 465v-465h-85l-22 81q-24 -48 -67.5 -72.5t-96.5 -24.5q-85 0 -129 56.5t-44 151.5v273h124v-258q0 -146 87 -146q47 0 76.5 45.5t29.5 118.5v240h127zM214 567q-37 26 -53 80l36 21q37 -61 98 -61q30 0 52.5 13.5t41.5 47.5l34 -19q-15 -56 -50.5 -82
t-79.5 -26q-42 0 -79 26z" />
    <glyph glyph-name="Uring" unicode="&#x16e;" horiz-adv-x="649" 
d="M79 0zM141.5 55q-62.5 71 -62.5 200v368h129v-333q0 -106 33 -165t110 -59q78 0 114.5 50t36.5 149v358h88v-357q0 -131 -63.5 -206.5t-192.5 -75.5q-130 0 -192.5 71zM284 690q-25 20 -25 58t28 61.5t70 23.5q49 0 75 -21t26 -61q0 -37 -29.5 -59t-72.5 -22
q-47 0 -72 20zM382.5 718.5q8.5 13.5 8.5 33.5t-7.5 34t-25.5 14q-15 0 -24 -15t-9 -34q0 -46 33 -46q16 0 24.5 13.5z" />
    <glyph glyph-name="uring" unicode="&#x16f;" horiz-adv-x="584" 
d="M68 0zM512 465v-465h-85l-22 81q-24 -48 -67.5 -72.5t-96.5 -24.5q-85 0 -129 56.5t-44 151.5v273h124v-258q0 -146 87 -146q47 0 76.5 45.5t29.5 118.5v240h127zM218 545q-25 20 -25 58t28 61.5t70 23.5q49 0 75 -21t26 -61q0 -37 -29.5 -59t-72.5 -22q-47 0 -72 20z
M316.5 573.5q8.5 13.5 8.5 33.5t-7.5 34t-25.5 14q-15 0 -24 -15t-9 -34q0 -46 33 -46q16 0 24.5 13.5z" />
    <glyph glyph-name="Uhungarumlaut" unicode="&#x170;" horiz-adv-x="649" 
d="M79 0zM141.5 55q-62.5 71 -62.5 200v368h129v-333q0 -106 33 -165t110 -59q78 0 114.5 50t36.5 149v358h88v-357q0 -131 -63.5 -206.5t-192.5 -75.5q-130 0 -192.5 71zM217 698q31 36 127 121l79 -42q-62 -36 -175 -108zM383 697q38 35 144 107l74 -52q-93 -39 -191 -84z
" />
    <glyph glyph-name="uhungarumlaut" unicode="&#x171;" horiz-adv-x="584" 
d="M68 0zM512 465v-465h-85l-22 81q-24 -48 -67.5 -72.5t-96.5 -24.5q-85 0 -129 56.5t-44 151.5v273h124v-258q0 -146 87 -146q47 0 76.5 45.5t29.5 118.5v240h127zM187 544q49 68 104 130l81 -35q-80 -57 -153 -118zM335 542q54 59 122 114l83 -38q-47 -23 -92.5 -50
t-80.5 -49z" />
    <glyph glyph-name="Uogonek" unicode="&#x172;" horiz-adv-x="649" 
d="M590 623v-357q0 -99 -32 -159t-89 -91q-57 -34 -80 -60.5t-23 -61.5q0 -17 8 -27t23 -10q7 0 18 3l14 -36q-17 -12 -34 -17t-41 -5q-34 0 -54 19t-20 50q0 62 79 114q-8 -1 -25 -1q-130 0 -192.5 71t-62.5 200v368h129v-333q0 -106 33 -165t110 -59q78 0 114.5 50
t36.5 149v358h88z" />
    <glyph glyph-name="uogonek" unicode="&#x173;" horiz-adv-x="584" 
d="M463.5 -55q-16.5 -29 -16.5 -53q0 -36 29 -36q6 0 20 4l15 -36q-17 -13 -34 -17.5t-41 -4.5q-34 0 -54.5 18t-20.5 51q0 27 24 61.5t78 67.5h-36l-22 81q-24 -48 -67.5 -72.5t-96.5 -24.5q-85 0 -129 56.5t-44 151.5v273h124v-258q0 -146 87 -146q47 0 76.5 45.5
t29.5 118.5v240h127v-465q-32 -26 -48.5 -55z" />
    <glyph glyph-name="Wcircumflex" unicode="&#x174;" horiz-adv-x="886" 
d="M23 0zM874 623q-60 -204 -104.5 -345t-97.5 -278h-79l-135 431q-67 -233 -153 -431h-79l-203 623h138l138 -457q75 216 136 457h76l150 -457q33 135 56 239t42 218h115zM583 676q-44 24 -109 66q-38 -25 -107 -66l-27 31q64 56 114 103h47q50 -47 114 -103z" />
    <glyph glyph-name="wcircumflex" unicode="&#x175;" horiz-adv-x="706" 
d="M3 0zM700 465q-87 -300 -160 -465h-85l-99 298q-52 -167 -108 -298h-85l-160 465h123l110 -339q50 132 107 339h66l113 -341q48 154 80 341h98zM485 535q-53 34 -107 74q-60 -43 -108 -74l-28 31q53 49 114 113h47q61 -64 114 -113z" />
    <glyph glyph-name="Ycircumflex" unicode="&#x176;" horiz-adv-x="549" 
d="M4 0zM353 274v-274h-129v265l-220 358h149l164 -282q85 176 129 282h109q-128 -233 -202 -349zM403 676q-44 24 -109 66q-38 -25 -107 -66l-27 31q64 56 114 103h47q50 -47 114 -103z" />
    <glyph glyph-name="ycircumflex" unicode="&#x177;" horiz-adv-x="577" 
d="M68 0zM510 465v-419q0 -128 -63 -193.5t-182 -65.5q-48 0 -89 9t-80 32l28 66q38 -20 70.5 -28.5t66.5 -8.5q68 0 98 40t30 119v60q-16 -38 -57 -61t-91 -23q-86 0 -129.5 53.5t-43.5 155.5v264h124v-251q0 -145 85 -145q49 0 79 43t30 115v238h124zM395 535
q-53 34 -107 74q-60 -43 -108 -74l-28 31q53 49 114 113h47q61 -64 114 -113z" />
    <glyph glyph-name="Ydieresis" unicode="&#x178;" horiz-adv-x="549" 
d="M4 0zM353 274v-274h-129v265l-220 358h149l164 -282q85 176 129 282h109q-128 -233 -202 -349zM153 701.5q-17 17.5 -17 42.5q0 26 17.5 44t45.5 18q26 0 43 -18t17 -43q0 -24 -18 -42.5t-45 -18.5q-26 0 -43 17.5zM350 701.5q-17 17.5 -17 42.5q0 26 17.5 44t45.5 18
q26 0 43 -18t17 -43q0 -24 -17.5 -42.5t-44.5 -18.5t-44 17.5z" />
    <glyph glyph-name="Zacute" unicode="&#x179;" horiz-adv-x="541" 
d="M44 0zM412 70q51 1 94 5v-75h-462v69l304 486h-102q-127 0 -201 -7v75h458v-63l-311 -491h113q56 0 107 1zM198 714q53 43 163 111l63 -70q-106 -34 -205 -76z" />
    <glyph glyph-name="zacute" unicode="&#x17a;" horiz-adv-x="440" 
d="M38 0zM407 417l-231 -357h228v-60h-366v53l235 352l-231 -1v61h365v-48zM163 558q53 50 145 120l70 -71q-96 -39 -192 -85z" />
    <glyph glyph-name="Zdotaccent" unicode="&#x17b;" horiz-adv-x="541" 
d="M44 0zM412 70q51 1 94 5v-75h-462v69l304 486h-102q-127 0 -201 -7v75h458v-63l-311 -491h113q56 0 107 1zM229 705q-19 18 -19 48t19 49t57 19t57.5 -19t19.5 -48q0 -30 -20.5 -48.5t-57.5 -18.5t-56 18z" />
    <glyph glyph-name="zdotaccent" unicode="&#x17c;" horiz-adv-x="440" 
d="M38 0zM407 417l-231 -357h228v-60h-366v53l235 352l-231 -1v61h365v-48zM164 559q-19 18 -19 48t19 49t57 19t57.5 -19t19.5 -48q0 -30 -20.5 -48.5t-57.5 -18.5t-56 18z" />
    <glyph glyph-name="Zcaron" unicode="&#x17d;" horiz-adv-x="541" 
d="M44 0zM412 70q51 1 94 5v-75h-462v69l304 486h-102q-127 0 -201 -7v75h458v-63l-311 -491h113q56 0 107 1zM423 782q-68 -59 -114 -104h-47q-46 45 -114 104l32 31q44 -25 108 -66l83 52q8 4 24 14z" />
    <glyph glyph-name="zcaron" unicode="&#x17e;" horiz-adv-x="440" 
d="M38 0zM407 417l-231 -357h228v-60h-366v53l235 352l-231 -1v61h365v-48zM358 650q-53 -49 -114 -113h-47q-61 64 -114 113l32 31q57 -37 107 -75q54 41 108 75z" />
    <glyph glyph-name="longs" unicode="&#x17f;" horiz-adv-x="327" 
d="M344 675.5q24 -7.5 48 -23.5l-26 -49q-34 22 -59 22q-47 0 -67 -34.5t-20 -99.5v-491h-122v405h-83v60h83v11q0 96 49 151.5t143 55.5q30 0 54 -7.5z" />
    <glyph glyph-name="florin" unicode="&#x192;" horiz-adv-x="401" 
d="M430 630q27 -8 45 -23l-32 -49q-13 10 -30 15.5t-32 5.5q-45 0 -64 -34t-30 -108l-11 -79h100v-59h-109l-26 -179q-17 -115 -68 -173t-151 -58q-21 0 -46 7t-44 21l29 52q17 -11 31.5 -16t31.5 -5q43 0 61 33.5t29 108.5l30 209h-84v59h93l7 50q16 109 69 169.5t146 60.5
q28 0 55 -8z" />
    <glyph glyph-name="uni01CD" unicode="&#x1cd;" horiz-adv-x="600" 
d="M23 0zM393 165h-219l-56 -165h-95l240 623h101l222 -623h-141zM373 231l-85 268l-91 -268h176zM448 782q-68 -59 -114 -104h-47q-46 45 -114 104l32 31q44 -25 108 -66l83 52q8 4 24 14z" />
    <glyph glyph-name="uni01CE" unicode="&#x1ce;" horiz-adv-x="519" 
d="M31 0zM462 278v-278h-85l-20 70q-25 -43 -68 -64.5t-96 -21.5q-73 0 -117.5 38.5t-44.5 104.5q0 81 59 121.5t163 40.5q45 0 86 -7v8q0 59 -23.5 89.5t-83.5 30.5q-32 0 -68 -12t-69 -35l-33 58q38 27 93.5 43t101.5 16q205 0 205 -202zM309 96.5q30 39.5 30 110.5v22
q-32 6 -66 6q-57 0 -91.5 -24.5t-34.5 -70.5q0 -39 23.5 -61t58.5 -22q50 0 80 39.5zM388 650q-53 -49 -114 -113h-47q-61 64 -114 113l32 31q57 -37 107 -75q54 41 108 75z" />
    <glyph glyph-name="AEacute" unicode="&#x1fc;" horiz-adv-x="829" 
d="M3 0zM702.5 72q36.5 2 86.5 8v-80h-380v170h-210l-93 -170h-103l361 623h421v-78q-48 5 -84.5 6.5t-94.5 1.5h-69v-204h20q80 0 178 5v-78q-118 4 -178 4h-20v-210h73q56 0 92.5 2zM409 235v317h-2l-173 -317h175zM437 714q53 43 163 111l63 -70q-106 -34 -205 -76z" />
    <glyph glyph-name="aeacute" unicode="&#x1fd;" horiz-adv-x="803" 
d="M31 0zM769 221h-303q2 -75 39 -121t101 -46t115 37l32 -52q-38 -30 -77.5 -42.5t-88.5 -12.5q-77 0 -131 29t-83 80q-26 -55 -74 -82t-106 -27q-73 0 -117.5 38.5t-44.5 104.5q0 75 59 112t163 37h88v14q0 59 -23.5 89.5t-83.5 30.5q-31 0 -68.5 -12t-70.5 -35l-33 58
q39 27 95 43t102 16q109 0 162 -59q31 28 71 43.5t84 15.5q93 0 145.5 -58t52.5 -149q0 -31 -5 -52zM498 382q-28 -43 -32 -106h181q2 11 2 30q0 49 -19.5 84t-58.5 35q-45 0 -73 -43zM310.5 96.5q30.5 39.5 30.5 110.5v14h-68q-61 0 -93.5 -22t-32.5 -66q0 -36 23.5 -56
t58.5 -20q51 0 81.5 39.5zM369 558q53 50 145 120l70 -71q-96 -39 -192 -85z" />
    <glyph glyph-name="Oslashacute" unicode="&#x1fe;" horiz-adv-x="723" 
d="M49 0zM607 547q77 -83 77 -229q0 -97 -42.5 -173t-116 -118.5t-163.5 -42.5q-110 0 -186 50l-42 -50h-85l76 92q-76 82 -76 229q0 97 42 172.5t115.5 118t164.5 42.5q112 0 186 -49l41 49h86zM209 174l282 336q-48 61 -122 61q-55 0 -97 -35t-64.5 -94.5t-22.5 -128.5
q0 -81 24 -139zM524 448l-282 -335q47 -61 122 -61q55 0 97 35t64.5 94.5t22.5 128.5q0 82 -24 138zM273 714q53 43 163 111l63 -70q-106 -34 -205 -76z" />
    <glyph glyph-name="oslashacute" unicode="&#x1ff;" horiz-adv-x="550" 
d="M28 0zM459 406q56 -64 56 -172q0 -71 -31.5 -128t-86.5 -89.5t-122 -32.5q-83 0 -142 38l-32 -38h-73l63 75q-27 32 -41.5 76t-14.5 96q0 71 31.5 127.5t86.5 89t122 32.5q86 0 142 -38l32 38h73zM171 153l187 220q-28 50 -81 50q-56 0 -85 -59t-29 -133q0 -45 8 -78z
M379 311l-186 -219q28 -50 82 -50q55 0 83.5 58.5t28.5 133.5q0 45 -8 77zM217 558q53 50 145 120l70 -71q-96 -39 -192 -85z" />
    <glyph glyph-name="Scommaaccent" unicode="&#x218;" horiz-adv-x="527" 
d="M50 0zM142 1q-53 17 -92 51l42 66q75 -61 158 -61q50 0 82.5 22.5t32.5 62.5q0 35 -24 59t-80 51l-83 43q-61 31 -89 70.5t-28 97.5q0 54 30 93.5t81.5 60.5t114.5 21q112 0 183 -49l-34 -66q-38 24 -72.5 35t-74.5 11q-47 0 -76.5 -20t-29.5 -55q0 -32 20 -51.5
t72 -46.5l89 -46q62 -33 91 -76t29 -100t-29 -100t-81.5 -66.5t-122.5 -23.5q-56 0 -109 17zM221 -198q1 72 10 146h96q-30 -83 -47 -146h-59z" />
    <glyph glyph-name="scommaaccent" unicode="&#x219;" horiz-adv-x="427" 
d="M34 0zM34 43l34 60q66 -49 136 -49q86 0 86 54q0 23 -16.5 39.5t-53.5 31.5l-67 26q-53 22 -79.5 54t-26.5 79q0 67 54 104.5t134 37.5q92 0 151 -39l-27 -61q-55 36 -121 36q-38 0 -60.5 -14.5t-22.5 -38.5q0 -22 16 -36t52 -29l67 -29q55 -24 81.5 -57t26.5 -82
q0 -68 -50 -107t-136 -39q-99 0 -178 59zM170 -198q1 72 10 146h96q-30 -83 -47 -146h-59z" />
    <glyph glyph-name="uni021A" unicode="&#x21a;" horiz-adv-x="500" 
d="M6 0zM500 623v-78q-80 9 -151 9h-31v-554h-129v554h-32q-70 0 -151 -9v78h494zM198 -198q1 72 10 146h96q-30 -83 -47 -146h-59z" />
    <glyph glyph-name="uni021B" unicode="&#x21b;" horiz-adv-x="378" 
d="M11 0zM358 31q-30 -26 -60 -36.5t-64 -10.5q-76 0 -108 48t-32 138v235h-83v60h83v128h123v-128h120v-60h-120v-223q0 -63 10.5 -93t42.5 -30q30 0 59 22zM178 -198q1 72 10 146h96q-30 -83 -47 -146h-59z" />
    <glyph glyph-name="uni0237" unicode="&#x237;" horiz-adv-x="268" 
d="M-4 -149q43 35 62 81.5t19 131.5v401h124v-335q0 -124 -40.5 -201.5t-137.5 -116.5z" />
    <glyph glyph-name="circumflex" unicode="&#x2c6;" horiz-adv-x="543" 
d="M116 535zM359 535q-53 34 -107 74q-60 -43 -108 -74l-28 31q53 49 114 113h47q61 -64 114 -113z" />
    <glyph glyph-name="caron" unicode="&#x2c7;" horiz-adv-x="543" 
d="M116 537zM391 650q-53 -49 -114 -113h-47q-61 64 -114 113l32 31q57 -37 107 -75q54 41 108 75z" />
    <glyph glyph-name="breve" unicode="&#x2d8;" horiz-adv-x="543" 
d="M119 541zM172 567q-37 26 -53 80l36 21q37 -61 98 -61q30 0 52.5 13.5t41.5 47.5l34 -19q-15 -56 -50.5 -82t-79.5 -26q-42 0 -79 26z" />
    <glyph glyph-name="dotaccent" unicode="&#x2d9;" horiz-adv-x="543" 
d="M174 541zM193 559q-19 18 -19 48t19 49t57 19t57.5 -19t19.5 -48q0 -30 -20.5 -48.5t-57.5 -18.5t-56 18z" />
    <glyph glyph-name="ring" unicode="&#x2da;" horiz-adv-x="543" 
d="M151 525zM176 545q-25 20 -25 58t28 61.5t70 23.5q49 0 75 -21t26 -61q0 -37 -29.5 -59t-72.5 -22q-47 0 -72 20zM274.5 573.5q8.5 13.5 8.5 33.5t-7.5 34t-25.5 14q-15 0 -24 -15t-9 -34q0 -46 33 -46q16 0 24.5 13.5z" />
    <glyph glyph-name="ogonek" unicode="&#x2db;" horiz-adv-x="543" 
d="M144 0zM164 -180q-20 18 -20 51q0 27 24 61.5t78 67.5h48q-32 -26 -48 -55t-16 -53q0 -36 28 -36q5 0 21 4l14 -36q-16 -13 -33.5 -17.5t-41.5 -4.5q-34 0 -54 18z" />
    <glyph glyph-name="tilde" unicode="&#x2dc;" horiz-adv-x="543" 
d="M96 537zM279.5 541q-10.5 4 -22.5 13l-44 31q-19 14 -31 14q-15 0 -25 -12t-26 -46l-35 20q22 52 46 79t55 27q13 0 22.5 -4t23.5 -12l45 -30q18 -12 31 -12t23 11t26 40l37 -18q-19 -49 -44.5 -77t-55.5 -28q-15 0 -25.5 4z" />
    <glyph glyph-name="hungarumlaut" unicode="&#x2dd;" horiz-adv-x="543" 
d="M65 519zM65 544q49 68 104 130l81 -35q-80 -57 -153 -118zM213 542q54 59 122 114l83 -38q-47 -23 -92.5 -50t-80.5 -49z" />
    <glyph glyph-name="gravecomb" unicode="&#x300;" horiz-adv-x="0" 
d="M-344 599l60 78q110 -74 162 -118l-24 -37q-124 52 -198 77z" />
    <glyph glyph-name="acutecomb" unicode="&#x301;" horiz-adv-x="0" 
d="M-366 558q53 50 145 120l70 -71q-96 -39 -192 -85z" />
    <glyph glyph-name="uni0302" unicode="&#x302;" horiz-adv-x="0" 
d="M-141 535q-53 34 -107 74q-60 -43 -108 -74l-28 31q53 49 114 113h47q61 -64 114 -113z" />
    <glyph glyph-name="tildecomb" unicode="&#x303;" horiz-adv-x="0" 
d="M-220.5 541q-10.5 4 -22.5 13l-44 31q-19 14 -31 14q-15 0 -25 -12t-26 -46l-35 20q22 52 46 79t55 27q13 0 22.5 -4t23.5 -12l45 -30q18 -12 31 -12t23 11t26 40l37 -18q-19 -49 -44.5 -77t-55.5 -28q-15 0 -25.5 4z" />
    <glyph glyph-name="uni0304" unicode="&#x304;" horiz-adv-x="0" 
d="M-373 641h247v-65h-247v65z" />
    <glyph glyph-name="uni0306" unicode="&#x306;" horiz-adv-x="0" 
d="M-328 567q-37 26 -53 80l36 21q37 -61 98 -61q30 0 52.5 13.5t41.5 47.5l34 -19q-15 -56 -50.5 -82t-79.5 -26q-42 0 -79 26z" />
    <glyph glyph-name="uni0307" unicode="&#x307;" horiz-adv-x="0" 
d="M-307 559q-19 18 -19 48t19 49t57 19t57.5 -19t19.5 -48q0 -30 -20.5 -48.5t-57.5 -18.5t-56 18z" />
    <glyph glyph-name="uni0308" unicode="&#x308;" horiz-adv-x="0" 
d="M-393 557.5q-17 17.5 -17 42.5q0 26 17.5 44t45.5 18q26 0 43 -18t17 -43q0 -24 -18 -42.5t-45 -18.5q-26 0 -43 17.5zM-196 557.5q-17 17.5 -17 42.5q0 26 17.5 44t45.5 18q26 0 43 -18t17 -43q0 -24 -17.5 -42.5t-44.5 -18.5t-44 17.5z" />
    <glyph glyph-name="uni030A" unicode="&#x30a;" horiz-adv-x="0" 
d="M-324 545q-25 20 -25 58t28 61.5t70 23.5q49 0 75 -21t26 -61q0 -37 -29.5 -59t-72.5 -22q-47 0 -72 20zM-225.5 573.5q8.5 13.5 8.5 33.5t-7.5 34t-25.5 14q-15 0 -24 -15t-9 -34q0 -46 33 -46q16 0 24.5 13.5z" />
    <glyph glyph-name="uni030B" unicode="&#x30b;" horiz-adv-x="0" 
d="M-435 544q49 68 104 130l81 -35q-80 -57 -153 -118zM-287 542q54 59 122 114l83 -38q-47 -23 -92.5 -50t-80.5 -49z" />
    <glyph glyph-name="uni030C" unicode="&#x30c;" horiz-adv-x="0" 
d="M-109 650q-53 -49 -114 -113h-47q-61 64 -114 113l32 31q57 -37 107 -75q54 41 108 75z" />
    <glyph glyph-name="uni0315" unicode="&#x315;" horiz-adv-x="0" 
d="M-184 509q1 64 10 159h95q-30 -91 -47 -159h-58z" />
    <glyph glyph-name="uni0326" unicode="&#x326;" horiz-adv-x="0" 
d="M-302 -198q1 72 10 146h96q-30 -83 -47 -146h-59z" />
    <glyph glyph-name="uni0327" unicode="&#x327;" horiz-adv-x="0" 
d="M-179.5 -69q20.5 -19 20.5 -49q0 -36 -28.5 -58t-77.5 -22q-36 0 -65 12l11 42q9 -5 23 -8t25 -3q39 0 39 29q0 14 -10.5 21.5t-27.5 7.5q-22 0 -34 -4l27 101h57l-14 -48q34 -2 54.5 -21z" />
    <glyph glyph-name="uni0328" unicode="&#x328;" horiz-adv-x="0" 
d="M-336 -180q-20 18 -20 51q0 27 24 61.5t78 67.5h48q-32 -26 -48 -55t-16 -53q0 -36 28 -36q5 0 21 4l14 -36q-16 -13 -33.5 -17.5t-41.5 -4.5q-34 0 -54 18z" />
    <glyph glyph-name="uni0394" unicode="&#x394;" horiz-adv-x="633" 
d="M621 45v-45h-608v45l270 578h90zM112 73h363l-175 433z" />
    <glyph glyph-name="uni03A9" unicode="&#x3a9;" horiz-adv-x="693" 
d="M667 92v-92h-265v140q56 34 87.5 99.5t31.5 134.5q0 85 -42 140.5t-121 55.5q-85 0 -131 -56.5t-46 -141.5q0 -70 31.5 -133.5t88.5 -98.5v-140h-265v92h203v16q-82 35 -135 100.5t-53 155.5q0 82 39.5 144t109.5 96t159 34q86 0 152 -32t103.5 -92t37.5 -141
q0 -88 -54.5 -159t-133.5 -104v-18h203z" />
    <glyph glyph-name="uni03BC" unicode="&#x3bc;" horiz-adv-x="631" 
d="M622 35q-27 -28 -54 -39.5t-60 -11.5q-76 0 -92 81q-46 -81 -140 -81q-48 0 -82 24v-206h-125v663h126v-250q0 -70 23.5 -112t76.5 -42q48 0 77 41t29 110v253h127v-343q0 -27 6 -40.5t22 -13.5q19 0 37 16z" />
    <glyph glyph-name="pi" unicode="&#x3c0;" horiz-adv-x="637" 
d="M613 35q-29 -28 -56.5 -39.5t-62.5 -11.5q-102 0 -102 134v282h-163v-400h-126v400h-60v65h539v-65h-64v-278q0 -27 6.5 -40.5t22.5 -13.5q18 0 37 15z" />
    <glyph glyph-name="Wgrave" unicode="&#x1e80;" horiz-adv-x="886" 
d="M23 0zM874 623q-60 -204 -104.5 -345t-97.5 -278h-79l-135 431q-67 -233 -153 -431h-79l-203 623h138l138 -457q75 216 136 457h76l150 -457q33 135 56 239t42 218h115zM348 746l54 77q40 -20 87 -49t83 -58l-23 -36q-133 49 -201 66z" />
    <glyph glyph-name="wgrave" unicode="&#x1e81;" horiz-adv-x="706" 
d="M3 0zM700 465q-87 -300 -160 -465h-85l-99 298q-52 -167 -108 -298h-85l-160 465h123l110 -339q50 132 107 339h66l113 -341q48 154 80 341h98zM221 599l60 78q110 -74 162 -118l-24 -37q-124 52 -198 77z" />
    <glyph glyph-name="Wacute" unicode="&#x1e82;" horiz-adv-x="886" 
d="M23 0zM874 623q-60 -204 -104.5 -345t-97.5 -278h-79l-135 431q-67 -233 -153 -431h-79l-203 623h138l138 -457q75 216 136 457h76l150 -457q33 135 56 239t42 218h115zM388 714q53 43 163 111l63 -70q-106 -34 -205 -76z" />
    <glyph glyph-name="wacute" unicode="&#x1e83;" horiz-adv-x="706" 
d="M3 0zM700 465q-87 -300 -160 -465h-85l-99 298q-52 -167 -108 -298h-85l-160 465h123l110 -339q50 132 107 339h66l113 -341q48 154 80 341h98zM320 558q53 50 145 120l70 -71q-96 -39 -192 -85z" />
    <glyph glyph-name="Wdieresis" unicode="&#x1e84;" horiz-adv-x="886" 
d="M23 0zM874 623q-60 -204 -104.5 -345t-97.5 -278h-79l-135 431q-67 -233 -153 -431h-79l-203 623h138l138 -457q75 216 136 457h76l150 -457q33 135 56 239t42 218h115zM333 701.5q-17 17.5 -17 42.5q0 26 17.5 44t45.5 18q26 0 43 -18t17 -43q0 -24 -18 -42.5t-45 -18.5
q-26 0 -43 17.5zM530 701.5q-17 17.5 -17 42.5q0 26 17.5 44t45.5 18q26 0 43 -18t17 -43q0 -24 -17.5 -42.5t-44.5 -18.5t-44 17.5z" />
    <glyph glyph-name="wdieresis" unicode="&#x1e85;" horiz-adv-x="706" 
d="M3 0zM700 465q-87 -300 -160 -465h-85l-99 298q-52 -167 -108 -298h-85l-160 465h123l110 -339q50 132 107 339h66l113 -341q48 154 80 341h98zM235 557.5q-17 17.5 -17 42.5q0 26 17.5 44t45.5 18q26 0 43 -18t17 -43q0 -24 -18 -42.5t-45 -18.5q-26 0 -43 17.5z
M432 557.5q-17 17.5 -17 42.5q0 26 17.5 44t45.5 18q26 0 43 -18t17 -43q0 -24 -17.5 -42.5t-44.5 -18.5t-44 17.5z" />
    <glyph glyph-name="uni1E9E" unicode="&#x1e9e;" horiz-adv-x="665" 
d="M577 308q48 -48 48 -130q0 -89 -58.5 -141.5t-153.5 -52.5q-35 0 -74.5 10.5t-75.5 34.5l37 65q30 -20 53 -28t48 -8q47 0 71.5 30.5t24.5 79.5q0 55 -31 87t-87 32q-38 0 -71 -13v65q65 79 184 216h-272v-555h-127v623h485v-88q-87 -95 -163 -180q9 1 26 1q88 0 136 -48
z" />
    <glyph glyph-name="Ygrave" unicode="&#x1ef2;" horiz-adv-x="549" 
d="M4 0zM353 274v-274h-129v265l-220 358h149l164 -282q85 176 129 282h109q-128 -233 -202 -349zM168 746l54 77q40 -20 87 -49t83 -58l-23 -36q-133 49 -201 66z" />
    <glyph glyph-name="ygrave" unicode="&#x1ef3;" horiz-adv-x="577" 
d="M68 0zM510 465v-419q0 -128 -63 -193.5t-182 -65.5q-48 0 -89 9t-80 32l28 66q38 -20 70.5 -28.5t66.5 -8.5q68 0 98 40t30 119v60q-16 -38 -57 -61t-91 -23q-86 0 -129.5 53.5t-43.5 155.5v264h124v-251q0 -145 85 -145q49 0 79 43t30 115v238h124zM131 599l60 78
q110 -74 162 -118l-24 -37q-124 52 -198 77z" />
    <glyph glyph-name="uni2002" unicode="&#x2002;" horiz-adv-x="550" 
 />
    <glyph glyph-name="uni2003" unicode="&#x2003;" horiz-adv-x="910" 
 />
    <glyph glyph-name="uni2009" unicode="&#x2009;" horiz-adv-x="182" 
 />
    <glyph glyph-name="uni200A" unicode="&#x200a;" horiz-adv-x="57" 
 />
    <glyph glyph-name="endash" unicode="&#x2013;" horiz-adv-x="550" 
d="M40 269h470v-73h-470v73z" />
    <glyph glyph-name="emdash" unicode="&#x2014;" horiz-adv-x="910" 
d="M40 269h830v-74h-830v74z" />
    <glyph glyph-name="quoteleft" unicode="&#x2018;" horiz-adv-x="166" 
d="M139 488.5q15 -16.5 15 -41.5q0 -30 -20 -48.5t-50 -18.5q-36 0 -55 25t-19 66q0 52 25.5 93t87.5 75l30 -39q-36 -25 -51.5 -47.5t-17.5 -49.5q10 2 14 2q26 0 41 -16.5z" />
    <glyph glyph-name="quoteright" unicode="&#x2019;" horiz-adv-x="166" 
d="M137 613q19 -25 19 -66q0 -52 -25.5 -93t-87.5 -75l-30 39q36 25 51.5 47.5t17.5 49.5q-10 -2 -14 -2q-26 0 -41 16.5t-15 41.5q0 30 20 48.5t50 18.5q36 0 55 -25z" />
    <glyph glyph-name="quotesinglbase" unicode="&#x201a;" horiz-adv-x="166" 
d="M12 0zM137 84q19 -25 19 -66q0 -52 -25.5 -93t-87.5 -75l-30 39q36 25 51.5 47.5t17.5 49.5q-10 -2 -14 -2q-26 0 -41 16.5t-15 41.5q0 30 20 48.5t50 18.5q36 0 55 -25z" />
    <glyph glyph-name="quotedblleft" unicode="&#x201c;" horiz-adv-x="347" 
d="M140 488.5q15 -16.5 15 -41.5q0 -30 -20 -48.5t-50 -18.5q-36 0 -55 25t-19 66q0 52 25.5 93t87.5 75l30 -39q-36 -25 -51.5 -47.5t-17.5 -49.5q10 2 14 2q26 0 41 -16.5zM320 488.5q15 -16.5 15 -41.5q0 -30 -20 -48.5t-50 -18.5q-36 0 -55 25t-19 66q0 52 25.5 93
t87.5 75l30 -39q-36 -25 -51.5 -47.5t-17.5 -49.5q10 2 14 2q26 0 41 -16.5z" />
    <glyph glyph-name="quotedblright" unicode="&#x201d;" horiz-adv-x="347" 
d="M12 379zM137 613q19 -25 19 -66q0 -52 -25.5 -93t-87.5 -75l-30 39q36 25 51.5 47.5t17.5 49.5q-10 -2 -14 -2q-26 0 -41 16.5t-15 41.5q0 30 20 48.5t50 18.5q36 0 55 -25zM317 613q19 -25 19 -66q0 -52 -25.5 -93t-87.5 -75l-30 39q36 25 51.5 47.5t17.5 49.5
q-10 -2 -14 -2q-26 0 -41 16.5t-15 41.5q0 30 20 48.5t50 18.5q36 0 55 -25z" />
    <glyph glyph-name="quotedblbase" unicode="&#x201e;" horiz-adv-x="347" 
d="M12 0zM137 84q19 -25 19 -66q0 -52 -25.5 -93t-87.5 -75l-30 39q36 25 51.5 47.5t17.5 49.5q-10 -2 -14 -2q-26 0 -41 16.5t-15 41.5q0 30 20 48.5t50 18.5q36 0 55 -25zM317 84q19 -25 19 -66q0 -52 -25.5 -93t-87.5 -75l-30 39q36 25 51.5 47.5t17.5 49.5
q-10 -2 -14 -2q-26 0 -41 16.5t-15 41.5q0 30 20 48.5t50 18.5q36 0 55 -25z" />
    <glyph glyph-name="dagger" unicode="&#x2020;" horiz-adv-x="440" 
d="M420 331q-95 32 -168 46q28 -102 47 -157q-46 -148 -46 -360v-18h-65v18q0 209 -47 360q18 50 47 157q-75 -15 -168 -46v149q97 -32 170 -49q-16 94 -49 192h158q-31 -94 -50 -192q70 16 171 49v-149z" />
    <glyph glyph-name="daggerdbl" unicode="&#x2021;" horiz-adv-x="440" 
d="M420 331q-95 32 -167 46q22 -82 46 -143q-23 -58 -46 -147q77 15 167 47v-150q-96 33 -170 49q17 -96 49 -191h-158q32 95 49 191q-76 -17 -170 -49v150q90 -32 167 -47q-26 99 -46 147q24 61 46 143q-72 -14 -167 -46v149q98 -32 171 -49q-19 98 -50 192h158
q-31 -94 -50 -192q70 16 171 49v-149z" />
    <glyph glyph-name="bullet" unicode="&#x2022;" horiz-adv-x="484" 
d="M163 116.5q-36 21.5 -57 58.5t-21 81q0 45 21 82t57 58.5t79 21.5t79 -21.5t57 -58.5t21 -81q0 -45 -21 -82t-56.5 -58.5t-78.5 -21.5q-44 0 -80 21.5z" />
    <glyph glyph-name="ellipsis" unicode="&#x2026;" horiz-adv-x="762" 
d="M38 0zM58 3q-20 19 -20 48q0 30 19.5 49t52.5 19q32 0 51 -19t19 -49q0 -29 -19 -48t-52 -19q-31 0 -51 19zM330 3q-20 19 -20 48q0 30 19.5 49t52.5 19q32 0 51 -19t19 -49q0 -29 -19 -48t-52 -19q-31 0 -51 19zM602 3q-20 19 -20 48q0 30 19.5 49t52.5 19q32 0 51 -19
t19 -49q0 -29 -19 -48t-52 -19q-31 0 -51 19z" />
    <glyph glyph-name="perthousand" unicode="&#x2030;" horiz-adv-x="966" 
d="M66 400.5q-36 41.5 -36 97.5q0 36 16.5 68t48 52t74.5 20q65 0 100 -41t35 -98q0 -36 -15.5 -68t-46.5 -52t-74 -20q-66 0 -102 41.5zM483 623h88l-409 -623h-88zM210 428.5q14 27.5 14 70.5q0 42 -14 69.5t-42 27.5t-42.5 -28t-14.5 -70t15 -69.5t43 -27.5q27 0 41 27.5
zM415 4q-31 20 -47 52t-16 68t16.5 68t48 52t74.5 20q65 0 100 -41t35 -98q0 -36 -15.5 -68.5t-46.5 -52.5t-74 -20q-44 0 -75 20zM742 4q-31 20 -47 52t-16 68t16.5 68t48 52t74.5 20q65 0 100 -41t35 -98q0 -36 -15.5 -68.5t-46.5 -52.5t-74 -20q-44 0 -75 20zM532 55
q14 28 14 70t-14 69.5t-42 27.5t-42.5 -28t-14.5 -70q0 -41 15 -69t43 -28q27 0 41 28zM859 55q14 28 14 70t-14 69.5t-42 27.5t-42.5 -28t-14.5 -70q0 -41 15 -69t43 -28q27 0 41 28z" />
    <glyph glyph-name="guilsinglleft" unicode="&#x2039;" horiz-adv-x="220" 
d="M130 240q6 -11 20 -33q3 -6 26 -44t39 -78l-40 -21q-46 55 -157 166v2l19 19q98 100 138 147l40 -21q-27 -56 -85 -137z" />
    <glyph glyph-name="guilsinglright" unicode="&#x203a;" horiz-adv-x="220" 
d="M202 231v-2l-19 -19q-98 -100 -138 -147l-40 21q27 56 85 137q-6 11 -20 33q-3 6 -26 44t-39 78l40 21q46 -55 157 -166z" />
    <glyph glyph-name="fraction" unicode="&#x2044;" horiz-adv-x="517" 
d="M419 623h88l-409 -623h-88z" />
    <glyph glyph-name="Euro" unicode="&#x20ac;" horiz-adv-x="602" 
d="M592 48q-39 -31 -93 -47.5t-111 -16.5q-120 0 -199.5 61t-103.5 168h-77v58h68q-1 11 -1 34q0 19 1 29h-68v58h77q18 73 64 129t114 86.5t151 30.5q102 0 176 -48l-38 -67q-56 42 -126 42q-81 0 -133 -47.5t-69 -125.5h165v-58h-173v-17q0 -23 3 -46h170v-58h-159
q20 -69 67 -110t120 -41q80 0 140 45z" />
    <glyph glyph-name="uni2113" unicode="&#x2113;" horiz-adv-x="428" 
d="M314 64q20 7 39 23l32 -54q-57 -49 -142 -49q-86 0 -130 47t-45 156l-60 3v67q46 -4 60 -4v166q0 98 43.5 158.5t145.5 60.5q78 0 117.5 -44.5t39.5 -114.5q0 -67 -28 -127.5t-80.5 -102.5t-123.5 -56v-6q0 -63 23 -96.5t65 -33.5q24 0 44 7zM197.5 555
q-15.5 -33 -15.5 -97v-197q60 19 91 77.5t31 144.5q0 52 -14 78.5t-41 26.5q-36 0 -51.5 -33z" />
    <glyph glyph-name="uni2116" unicode="&#x2116;" horiz-adv-x="1026" 
d="M88 0zM599 623v-623h-69l-357 414v-414h-85v623h68l357 -425v425h86zM700.5 342q-43.5 46 -43.5 123q0 50 22.5 89t62 61t88.5 22q83 0 127 -45t44 -125q0 -49 -22.5 -88t-62.5 -61t-89 -22q-83 0 -126.5 46zM876 380.5q17 40.5 17 87.5q0 52 -14 88t-48 36
q-33 0 -49.5 -38.5t-16.5 -88.5t15 -87.5t48 -37.5q31 0 48 40.5zM678 250h296v-54h-296v54z" />
    <glyph glyph-name="trademark" unicode="&#x2122;" horiz-adv-x="748" 
d="M14 683h280v-56q-35 5 -90 5h-4v-274h-92v274h-5q-54 0 -89 -5v56zM637 358l-13 223l-93 -197h-42l-92 198l-9 -224h-65l24 325h89l92 -189l87 189h89l21 -325h-88z" />
    <glyph glyph-name="uni2126" unicode="&#x2126;" horiz-adv-x="693" 
d="M36 0zM667 92v-92h-265v140q56 34 87.5 99.5t31.5 134.5q0 85 -42 140.5t-121 55.5q-85 0 -131 -56.5t-46 -141.5q0 -70 31.5 -133.5t88.5 -98.5v-140h-265v92h203v16q-82 35 -135 100.5t-53 155.5q0 82 39.5 144t109.5 96t159 34q86 0 152 -32t103.5 -92t37.5 -141
q0 -88 -54.5 -159t-133.5 -104v-18h203z" />
    <glyph glyph-name="estimated" unicode="&#x212e;" horiz-adv-x="793" 
d="M216.5 30q-82.5 43 -131 117t-48.5 162t48.5 162t131 117t180.5 43q97 0 179.5 -43t131 -117t48.5 -162v-8h-581q-7 0 -7 -5v-176q0 -8 10 -20q42 -44 99 -68.5t121 -24.5q69 0 129 28t101 77h54q-52 -58 -126.5 -91.5t-158.5 -33.5q-98 0 -180.5 43zM618 319q7 0 7 5
v177q0 11 -11 22q-43 42 -98.5 65.5t-117.5 23.5q-64 0 -120.5 -24t-99.5 -68q-10 -12 -10 -23v-173q0 -5 7 -5h443z" />
    <glyph glyph-name="arrowleft" unicode="&#x2190;" horiz-adv-x="705" 
d="M680 177q-238 10 -449 11q45 -46 97 -133l-44 -37q-57 63 -126.5 111.5t-145.5 76.5v56q77 29 145.5 77.5t123.5 111.5l47 -37q-52 -87 -97 -132q257 0 449 9v-114z" />
    <glyph glyph-name="arrowup" unicode="&#x2191;" horiz-adv-x="523" 
d="M441 352q-88 53 -132 97q0 -257 9 -449h-114q10 238 11 449q-46 -45 -133 -97l-37 44q63 57 111.5 126.5t76.5 145.5h56q29 -77 77.5 -145.5t111.5 -123.5z" />
    <glyph glyph-name="arrowright" unicode="&#x2192;" horiz-adv-x="705" 
d="M547.5 334.5q69.5 -48.5 145.5 -76.5v-56q-77 -29 -145.5 -77.5t-123.5 -111.5l-47 37q53 88 97 132q-257 0 -449 -9v114q238 -10 449 -11q-45 46 -97 133l44 37q57 -63 126.5 -111.5z" />
    <glyph glyph-name="arrowdown" unicode="&#x2193;" horiz-adv-x="522" 
d="M477 271q-63 -57 -111.5 -126.5t-76.5 -145.5h-56q-29 77 -77.5 145.5t-111.5 123.5l37 47q87 -52 132 -97q0 257 -9 449h114q-10 -238 -11 -449q46 45 133 97z" />
    <glyph glyph-name="partialdiff" unicode="&#x2202;" horiz-adv-x="553" 
d="M431.5 558.5q84.5 -111.5 84.5 -284.5q0 -88 -30 -153.5t-86.5 -101t-134.5 -35.5q-69 0 -121.5 30t-80.5 84.5t-28 125.5q0 68 29.5 125t83 90.5t121.5 33.5q63 0 105 -30q-21 72 -77.5 118.5t-166.5 67.5l24 54q193 -13 277.5 -124.5zM392 262q0 46 -3 89
q-37 50 -98 50q-64 0 -95.5 -48.5t-31.5 -117.5q0 -80 29.5 -128.5t85.5 -48.5q113 0 113 204z" />
    <glyph glyph-name="uni2206" unicode="&#x2206;" horiz-adv-x="633" 
d="M13 0zM621 45v-45h-608v45l270 578h90zM112 73h363l-175 433z" />
    <glyph glyph-name="product" unicode="&#x220f;" horiz-adv-x="725" 
d="M700 553h-66v-750h-126v750h-290v-750h-127v750h-66v69h675v-69z" />
    <glyph glyph-name="summation" unicode="&#x2211;" horiz-adv-x="490" 
d="M475 554h-306l172 -314l-203 -334h337v-103h-439v90l193 317l-193 351v61h439v-68z" />
    <glyph glyph-name="minus" unicode="&#x2212;" 
d="M73 267h414v-71h-414v71z" />
    <glyph glyph-name="radical" unicode="&#x221a;" horiz-adv-x="564" 
d="M574 595l-271 -693h-85l-132 299h-76v70h137l116 -258l228 582h83z" />
    <glyph glyph-name="infinity" unicode="&#x221e;" horiz-adv-x="667" 
d="M606.5 346.5q38.5 -40.5 38.5 -106.5q0 -65 -40 -107t-103 -42q-49 0 -90.5 25.5t-82.5 73.5q-41 -51 -78.5 -75t-86.5 -24q-64 0 -102.5 40t-38.5 106q0 65 40 107.5t103 42.5q48 0 89 -26t83 -74q42 52 79.5 76t85.5 24q65 0 103.5 -40.5zM561.5 181q19.5 22 19.5 59
q0 38 -23.5 62t-60.5 24q-30 0 -61 -20t-60 -62q39 -44 68.5 -64.5t63.5 -20.5t53.5 22zM292 233q-41 46 -70 66t-63 20t-53 -21.5t-19 -59.5q0 -37 23.5 -62t59.5 -25q64 0 122 82z" />
    <glyph glyph-name="integral" unicode="&#x222b;" horiz-adv-x="379" 
d="M-24 -183l30 46q14 -9 26 -13t27 -4q68 0 68 144v460q0 114 44 173.5t130 59.5q60 0 102 -30l-29 -47q-15 10 -27 14t-27 4q-35 0 -51 -36.5t-16 -107.5v-465q0 -111 -44.5 -169.5t-130.5 -58.5q-61 0 -102 30z" />
    <glyph glyph-name="approxequal" unicode="&#x2248;" 
d="M53 280q44 102 130 102q20 0 36 -3t41 -14l73 -31q21 -8 32.5 -11t22.5 -3q19 0 35.5 14.5t34.5 46.5l49 -27q-23 -50 -53 -76.5t-72 -26.5q-15 0 -28.5 4t-36.5 13l-67 27q-6 2 -21 8.5t-27.5 9.5t-24.5 3q-24 0 -41.5 -14t-34.5 -50zM53 104q44 102 130 102q20 0 36 -3
t41 -14l73 -31q21 -8 32.5 -11t22.5 -3q19 0 35.5 14.5t34.5 46.5l49 -27q-23 -50 -53 -76.5t-72 -26.5q-15 0 -28.5 4t-36.5 13l-67 27q-6 2 -21 8.5t-27.5 9.5t-24.5 3q-24 0 -41.5 -14t-34.5 -50z" />
    <glyph glyph-name="notequal" unicode="&#x2260;" 
d="M411 361h76v-66h-125l-93 -126h218v-66h-266l-76 -103h-72l76 103h-76v66h125l93 126h-218v66h266l77 104h71z" />
    <glyph glyph-name="lessequal" unicode="&#x2264;" 
d="M477 431l-299 -117l299 -118v-76l-414 166v54l414 167v-76zM63 69h414v-69h-414v69z" />
    <glyph glyph-name="greaterequal" unicode="&#x2265;" 
d="M497 340v-54l-414 -166v76l299 118l-299 117v76zM83 69h414v-69h-414v69z" />
    <glyph glyph-name="dotmath" unicode="&#x22c5;" 
d="M209 158zM229 177q-20 19 -20 48q0 30 19.5 49t52.5 19q32 0 51 -19t19 -49q0 -29 -19 -48t-52 -19q-31 0 -51 19z" />
    <glyph glyph-name="lozenge" unicode="&#x25ca;" 
d="M512 335l-197 -335h-94l-172 298l197 325h96zM421 308l-143 241l-137 -225l144 -247z" />
    <glyph glyph-name="uniF8FF" unicode="&#xf8ff;" horiz-adv-x="541" 
d="M107.5 552q-7.5 8 -7.5 21q0 11 7.5 19t19.5 8q11 0 19.5 -8.5t8.5 -18.5q0 -12 -8.5 -20.5t-19.5 -8.5q-12 0 -19.5 8zM167 552.5q-8 8.5 -8 20.5q0 11 8.5 19t18.5 8q12 0 20 -8t8 -19q0 -13 -8 -21t-20 -8q-11 0 -19 8.5zM225.5 552.5q-8.5 8.5 -8.5 20.5q0 10 9 18.5
t20 8.5t19 -8t8 -19q0 -13 -8 -21t-19 -8q-12 0 -20.5 8.5zM286.5 552q-7.5 8 -7.5 21q0 11 7.5 19t18.5 8t20 -8.5t9 -18.5q0 -12 -8.5 -20.5t-20.5 -8.5q-11 0 -18.5 8zM345 552q-8 8 -8 21q0 11 8.5 19t20.5 8q10 0 18.5 -8.5t8.5 -18.5q0 -12 -8.5 -20.5t-18.5 -8.5
q-13 0 -21 8zM404.5 552.5q-8.5 8.5 -8.5 20.5q0 10 8.5 18.5t19.5 8.5q12 0 19.5 -8t7.5 -19q0 -13 -7.5 -21t-19.5 -8q-11 0 -19.5 8.5zM107.5 493q-7.5 8 -7.5 20q0 11 7.5 18.5t19.5 7.5q11 0 19.5 -7.5t8.5 -18.5t-8.5 -19.5t-19.5 -8.5q-12 0 -19.5 8zM107.5 433.5
q-7.5 8.5 -7.5 20.5q0 11 7.5 18.5t19.5 7.5q11 0 19.5 -8t8.5 -18q0 -12 -8.5 -20.5t-19.5 -8.5q-12 0 -19.5 8.5zM226 433.5q-9 8.5 -9 20.5q0 10 9 18t20 8t19 -7.5t8 -18.5q0 -12 -8 -20.5t-19 -8.5t-20 8.5zM286.5 433.5q-7.5 8.5 -7.5 20.5q0 11 7.5 18.5t18.5 7.5
t20 -8t9 -18q0 -12 -9 -20.5t-20 -8.5t-18.5 8.5zM345 433.5q-8 8.5 -8 20.5q0 11 8 18.5t21 7.5q10 0 18.5 -8t8.5 -18q0 -12 -8.5 -20.5t-18.5 -8.5q-13 0 -21 8.5zM404.5 433.5q-8.5 8.5 -8.5 20.5q0 10 8.5 18t19.5 8q12 0 19.5 -7.5t7.5 -18.5q0 -12 -7.5 -20.5
t-19.5 -8.5q-11 0 -19.5 8.5zM107.5 375q-7.5 8 -7.5 19t7.5 19t19.5 8q11 0 19.5 -8t8.5 -19t-8.5 -19t-19.5 -8q-12 0 -19.5 8zM226 375q-9 8 -9 19t9 19t20 8t19 -8t8 -19t-8 -19t-19 -8t-20 8zM107.5 314.5q-7.5 7.5 -7.5 19.5t7.5 20t19.5 8q11 0 19.5 -8.5t8.5 -19.5
q0 -12 -8.5 -19.5t-19.5 -7.5q-12 0 -19.5 7.5zM225.5 314.5q-8.5 7.5 -8.5 19.5q0 11 9 19.5t20 8.5t19 -8.5t8 -19.5q0 -12 -8 -19.5t-19 -7.5q-12 0 -20.5 7.5zM286.5 314.5q-7.5 7.5 -7.5 19.5q0 11 7.5 19.5t18.5 8.5t20 -8.5t9 -19.5q0 -12 -8.5 -19.5t-20.5 -7.5
q-11 0 -18.5 7.5zM345 314.5q-8 7.5 -8 19.5t8.5 20t20.5 8q10 0 18.5 -8.5t8.5 -19.5q0 -12 -8.5 -19.5t-18.5 -7.5q-13 0 -21 7.5zM404.5 314.5q-8.5 7.5 -8.5 19.5q0 11 8.5 19.5t19.5 8.5q12 0 19.5 -8t7.5 -20t-7.5 -19.5t-19.5 -7.5q-11 0 -19.5 7.5zM107.5 255
q-7.5 8 -7.5 20q0 11 7.5 19t19.5 8q11 0 19.5 -8t8.5 -19t-8.5 -19.5t-19.5 -8.5q-12 0 -19.5 8zM404.5 255.5q-8.5 8.5 -8.5 19.5t8.5 19t19.5 8q12 0 19.5 -8t7.5 -19q0 -12 -7.5 -20t-19.5 -8q-11 0 -19.5 8.5zM107.5 197q-7.5 8 -7.5 19t7.5 18.5t19.5 7.5
q11 0 19.5 -8t8.5 -18q0 -11 -8.5 -19t-19.5 -8q-12 0 -19.5 8zM226 197q-9 8 -9 19q0 10 9 18t20 8t19 -7.5t8 -18.5t-8 -19t-19 -8t-20 8zM286.5 197q-7.5 8 -7.5 19t7.5 18.5t18.5 7.5t20 -8t9 -18q0 -11 -9 -19t-20 -8t-18.5 8zM345 197q-8 8 -8 19t8 18.5t21 7.5
q10 0 18.5 -8t8.5 -18q0 -11 -8.5 -19t-18.5 -8q-13 0 -21 8zM404.5 197q-8.5 8 -8.5 19q0 10 8.5 18t19.5 8q12 0 19.5 -7.5t7.5 -18.5t-7.5 -19t-19.5 -8q-11 0 -19.5 8zM107.5 137q-7.5 8 -7.5 19t7.5 19t19.5 8q11 0 19.5 -8t8.5 -19t-8.5 -19t-19.5 -8q-12 0 -19.5 8z
M107.5 76.5q-7.5 7.5 -7.5 19.5t7.5 20t19.5 8q11 0 19.5 -8t8.5 -20t-8.5 -19.5t-19.5 -7.5q-12 0 -19.5 7.5zM225.5 76.5q-8.5 7.5 -8.5 19.5t8.5 20t20.5 8q11 0 19 -8t8 -20t-8 -19.5t-19 -7.5q-12 0 -20.5 7.5zM107.5 18q-7.5 8 -7.5 19q0 12 7.5 20t19.5 8
q11 0 19.5 -8.5t8.5 -19.5t-8.5 -19t-19.5 -8q-12 0 -19.5 8zM167 18q-8 8 -8 19t8 19.5t19 8.5q12 0 20 -8.5t8 -19.5t-8 -19t-20 -8q-11 0 -19 8zM226 18q-9 8 -9 19t9 19.5t20 8.5t19 -8.5t8 -19.5t-8 -19t-19 -8t-20 8z" />
    <glyph glyph-name="Iacute_J.loclNLD" horiz-adv-x="611" 
d="M66 0zM93 623h129v-623h-129v623zM66 714q53 43 163 111l63 -70q-106 -34 -205 -76zM319 -96q52 33 71 77t19 129v513h129v-452q0 -119 -45 -195.5t-147 -115.5zM383 714q53 43 163 111l63 -70q-106 -34 -205 -76z" />
    <glyph glyph-name="Cacute.loclPLK" horiz-adv-x="576" 
d="M49 0zM195.5 23.5q-70.5 39.5 -108.5 112t-38 169.5q0 95 43 171t120.5 119t175.5 43q102 0 176 -48l-38 -67q-56 42 -126 42q-68 0 -115 -33.5t-71 -89.5t-24 -125q0 -70 22 -127.5t67 -92.5t112 -35q80 0 140 45l35 -59q-39 -31 -93 -47.5t-111 -16.5
q-96 0 -166.5 39.5zM326 693q24 66 37 134l97 -19q-44 -83 -90 -132z" />
    <glyph glyph-name="Nacute.loclPLK" horiz-adv-x="676" 
d="M88 0zM599 623v-623h-69l-357 414v-414h-85v623h68l357 -425v425h86zM307 693q24 66 37 134l97 -19q-44 -83 -90 -132z" />
    <glyph glyph-name="Oacute.loclPLK" horiz-adv-x="723" 
d="M49 0zM196.5 21q-70.5 37 -109 109.5t-38.5 174.5q0 97 42 172.5t115.5 118t164.5 42.5q145 0 229 -83t84 -237q0 -97 -42.5 -173t-116 -118.5t-163.5 -42.5q-95 0 -165.5 37zM459.5 88q41.5 35 64 94t22.5 128q0 72 -20 131t-60 94t-97 35q-54 0 -96 -35t-64.5 -94
t-22.5 -128q0 -72 20.5 -131t60.5 -94t97 -35q54 0 95.5 35zM333 693q24 66 37 134l97 -19q-44 -83 -90 -132z" />
    <glyph glyph-name="Sacute.loclPLK" horiz-adv-x="527" 
d="M50 0zM142 1q-53 17 -92 51l42 66q75 -61 158 -61q50 0 82.5 22.5t32.5 62.5q0 35 -24 59t-80 51l-83 43q-61 31 -89 70.5t-28 97.5q0 54 30 93.5t81.5 60.5t114.5 21q112 0 183 -49l-34 -66q-38 24 -72.5 35t-74.5 11q-47 0 -76.5 -20t-29.5 -55q0 -32 20 -51.5
t72 -46.5l89 -46q62 -33 91 -76t29 -100t-29 -100t-81.5 -66.5t-122.5 -23.5q-56 0 -109 17zM251 693q24 66 37 134l97 -19q-44 -83 -90 -132z" />
    <glyph glyph-name="Zacute.loclPLK" horiz-adv-x="541" 
d="M44 0zM412 70q51 1 94 5v-75h-462v69l304 486h-102q-127 0 -201 -7v75h458v-63l-311 -491h113q56 0 107 1zM252 693q24 66 37 134l97 -19q-44 -83 -90 -132z" />
    <glyph glyph-name="i.loclTRK" horiz-adv-x="270" 
d="M59 0zM78 559q-19 18 -19 48t19 49t57 19t57.5 -19t19.5 -48q0 -30 -20.5 -48.5t-57.5 -18.5t-56 18zM72 465h126v-465h-126v465z" />
    <glyph glyph-name="germandbls.calt" horiz-adv-x="665" 
d="M93 0zM577 308q48 -48 48 -130q0 -89 -58.5 -141.5t-153.5 -52.5q-35 0 -74.5 10.5t-75.5 34.5l37 65q30 -20 53 -28t48 -8q47 0 71.5 30.5t24.5 79.5q0 55 -31 87t-87 32q-38 0 -71 -13v65q65 79 184 216h-272v-555h-127v623h485v-88q-87 -95 -163 -180q9 1 26 1
q88 0 136 -48z" />
    <glyph glyph-name="iacute_j.loclNLD" horiz-adv-x="540" 
d="M73 0zM73 465h126v-465h-126v465zM78 558q53 50 145 120l70 -71q-96 -39 -192 -85zM268 -149q43 35 62 81.5t19 131.5v401h124v-335q0 -124 -40.5 -201.5t-137.5 -116.5zM352 558q53 50 145 120l70 -71q-96 -39 -192 -85z" />
    <glyph glyph-name="cacute.loclPLK" horiz-adv-x="444" 
d="M35 0zM146.5 14.5q-54.5 30.5 -83 84.5t-28.5 124q0 75 32.5 133.5t91.5 91t136 32.5q39 0 75 -9.5t61 -28.5l-30 -56q-41 30 -91 30q-48 0 -80.5 -26t-48 -66.5t-15.5 -85.5q0 -80 34 -131t104 -51q55 0 98 35l33 -53q-33 -27 -73.5 -40.5t-84.5 -13.5
q-76 0 -130.5 30.5zM229 541q26 56 45 134l112 -20q-29 -41 -51.5 -71t-48.5 -57z" />
    <glyph glyph-name="nacute.loclPLK" horiz-adv-x="589" 
d="M75 0zM482 423.5q43 -56.5 43 -156.5v-267h-125v254q0 71 -18.5 110t-65.5 39q-55 0 -85 -47.5t-30 -129.5v-226h-126v465h84l23 -84q25 47 68 73t98 26q91 0 134 -56.5zM260 541q26 56 45 134l112 -20q-29 -41 -51.5 -71t-48.5 -57z" />
    <glyph glyph-name="oacute.loclPLK" horiz-adv-x="550" 
d="M35 0zM97.5 50.5q-62.5 66.5 -62.5 180.5q0 71 31.5 127.5t86.5 89t122 32.5q115 0 177.5 -66t62.5 -180q0 -71 -31.5 -128t-86.5 -89.5t-122 -32.5q-115 0 -177.5 66.5zM357 101q28 58 28 133q0 78 -25 133t-83 55q-55 0 -83.5 -58.5t-28.5 -132.5q0 -78 26 -133t84 -55
q54 0 82 58zM236 541q26 56 45 134l112 -20q-29 -41 -51.5 -71t-48.5 -57z" />
    <glyph glyph-name="sacute.loclPLK" horiz-adv-x="427" 
d="M34 0zM34 43l34 60q66 -49 136 -49q86 0 86 54q0 23 -16.5 39.5t-53.5 31.5l-67 26q-53 22 -79.5 54t-26.5 79q0 67 54 104.5t134 37.5q92 0 151 -39l-27 -61q-55 36 -121 36q-38 0 -60.5 -14.5t-22.5 -38.5q0 -22 16 -36t52 -29l67 -29q55 -24 81.5 -57t26.5 -82
q0 -68 -50 -107t-136 -39q-99 0 -178 59zM185 541q26 56 45 134l112 -20q-29 -41 -51.5 -71t-48.5 -57z" />
    <glyph glyph-name="zacute.loclPLK" horiz-adv-x="440" 
d="M38 0zM407 417l-231 -357h228v-60h-366v53l235 352l-231 -1v61h365v-48zM182 541q26 56 45 134l112 -20q-29 -41 -51.5 -71t-48.5 -57z" />
    <glyph glyph-name="c_t.dlig" horiz-adv-x="810" 
d="M790 31q-30 -26 -60 -36.5t-64 -10.5q-76 0 -108 48t-32 138v235h-70v60h70v18q0 73 -19.5 105.5t-65.5 32.5q-33 0 -56.5 -21t-23.5 -60q0 -60 51 -92l-30 -56q-34 24 -74 24q-47 0 -79 -26t-47.5 -66.5t-15.5 -85.5q0 -80 34 -131t104 -51q55 0 98 35l33 -53
q-33 -27 -73.5 -40.5t-84.5 -13.5q-76 0 -130.5 30.5t-83 84.5t-28.5 124q0 75 32.5 133.5t88.5 91t123 32.5q19 0 36 -3q-19 26 -19 66q0 64 48 102t121 38q88 0 136 -51t48 -142v-25h120v-60h-120v-223q0 -63 10.5 -93t42.5 -30q30 0 59 22z" />
    <glyph glyph-name="c_tcaron.dlig" horiz-adv-x="809" 
d="M761 81l29 -50q-30 -26 -60 -36.5t-64 -10.5q-76 0 -108 48t-32 138v235h-70v60h70v18q0 73 -19.5 105.5t-65.5 32.5q-33 0 -56.5 -21t-23.5 -60q0 -60 51 -92l-30 -56q-34 24 -74 24q-47 0 -79 -26t-47.5 -66.5t-15.5 -85.5q0 -80 34 -131t104 -51q55 0 98 35l33 -53
q-33 -27 -73.5 -40.5t-84.5 -13.5q-76 0 -130.5 30.5t-83 84.5t-28.5 124q0 75 32.5 133.5t88.5 91t123 32.5q19 0 36 -3q-19 26 -19 66q0 64 48 102t121 38q88 0 136 -51t48 -142v-25h120v-60h-120v-223q0 -63 10.5 -93t42.5 -30q30 0 59 22zM767 523h-57q1 59 10 145h94
q-31 -84 -47 -145z" />
    <glyph glyph-name="uni0063021B.dlig" horiz-adv-x="810" 
d="M35 0zM790 31q-30 -26 -60 -36.5t-64 -10.5q-76 0 -108 48t-32 138v235h-70v60h70v18q0 73 -19.5 105.5t-65.5 32.5q-33 0 -56.5 -21t-23.5 -60q0 -60 51 -92l-30 -56q-34 24 -74 24q-47 0 -79 -26t-47.5 -66.5t-15.5 -85.5q0 -80 34 -131t104 -51q55 0 98 35l33 -53
q-33 -27 -73.5 -40.5t-84.5 -13.5q-76 0 -130.5 30.5t-83 84.5t-28.5 124q0 75 32.5 133.5t88.5 91t123 32.5q19 0 36 -3q-19 26 -19 66q0 64 48 102t121 38q88 0 136 -51t48 -142v-25h120v-60h-120v-223q0 -63 10.5 -93t42.5 -30q30 0 59 22zM609 -198q1 72 10 146h96
q-30 -83 -47 -146h-59z" />
    <glyph glyph-name="ccedilla_t.dlig" horiz-adv-x="810" 
d="M790 31q-30 -26 -60 -36.5t-64 -10.5q-76 0 -108 48t-32 138v235h-70v60h70v18q0 73 -19.5 105.5t-65.5 32.5q-33 0 -56.5 -21t-23.5 -60q0 -60 51 -92l-30 -56q-34 24 -74 24q-47 0 -79 -26t-47.5 -66.5t-15.5 -85.5q0 -80 34 -131t104 -51q55 0 98 35l33 -53
q-33 -27 -73.5 -40.5t-84.5 -13.5l-9 -32q34 -2 54.5 -21t20.5 -49q0 -36 -28.5 -58t-77.5 -22q-36 0 -65 12l11 42q9 -5 23 -8t25 -3q39 0 39 29q0 14 -10.5 21.5t-27.5 7.5q-22 0 -34 -4l24 90q-89 16 -138 79t-49 155q0 75 32.5 133.5t88.5 91t123 32.5q19 0 36 -3
q-19 26 -19 66q0 64 48 102t121 38q88 0 136 -51t48 -142v-25h120v-60h-120v-223q0 -63 10.5 -93t42.5 -30q30 0 59 22z" />
    <glyph glyph-name="s_t.dlig" horiz-adv-x="797" 
d="M777 31q-30 -26 -60 -36.5t-64 -10.5q-76 0 -108 48t-32 138v235h-65v60h65v19q0 72 -21.5 104.5t-68.5 32.5q-34 0 -60 -23t-26 -66q0 -27 11.5 -51.5t37.5 -39.5l-27 -60q-56 35 -121 35q-38 0 -60.5 -14.5t-22.5 -38.5q0 -23 16.5 -36.5t51.5 -28.5l67 -29
q55 -24 81.5 -57t26.5 -82q0 -68 -50 -107t-136 -39q-99 0 -178 59l34 60q67 -49 140 -49q38 0 60 13.5t22 40.5q0 23 -16.5 39.5t-53.5 31.5l-67 26q-53 22 -79.5 54t-26.5 79q0 67 54 104.5t134 37.5q25 0 53 -5q-15 25 -15 62q0 67 49 106.5t125 39.5q91 0 140 -51
t49 -143v-24h120v-60h-120v-223q0 -63 10.5 -93t42.5 -30q30 0 59 22z" />
    <glyph glyph-name="s_tcaron.dlig" horiz-adv-x="797" 
d="M748 81l29 -50q-30 -26 -60 -36.5t-64 -10.5q-76 0 -108 48t-32 138v235h-65v60h65v19q0 72 -21.5 104.5t-68.5 32.5q-34 0 -60 -23t-26 -66q0 -27 11.5 -51.5t37.5 -39.5l-27 -60q-56 35 -121 35q-38 0 -60.5 -14.5t-22.5 -38.5q0 -23 16.5 -36.5t51.5 -28.5l67 -29
q55 -24 81.5 -57t26.5 -82q0 -68 -50 -107t-136 -39q-99 0 -178 59l34 60q67 -49 140 -49q38 0 60 13.5t22 40.5q0 23 -16.5 39.5t-53.5 31.5l-67 26q-53 22 -79.5 54t-26.5 79q0 67 54 104.5t134 37.5q25 0 53 -5q-15 25 -15 62q0 67 49 106.5t125 39.5q91 0 140 -51
t49 -143v-24h120v-60h-120v-223q0 -63 10.5 -93t42.5 -30q30 0 59 22zM756 523h-58q1 59 10 145h95q-31 -84 -47 -145z" />
    <glyph glyph-name="uni0073021B.dlig" horiz-adv-x="797" 
d="M34 0zM777 31q-30 -26 -60 -36.5t-64 -10.5q-76 0 -108 48t-32 138v235h-65v60h65v19q0 72 -21.5 104.5t-68.5 32.5q-34 0 -60 -23t-26 -66q0 -27 11.5 -51.5t37.5 -39.5l-27 -60q-56 35 -121 35q-38 0 -60.5 -14.5t-22.5 -38.5q0 -23 16.5 -36.5t51.5 -28.5l67 -29
q55 -24 81.5 -57t26.5 -82q0 -68 -50 -107t-136 -39q-99 0 -178 59l34 60q67 -49 140 -49q38 0 60 13.5t22 40.5q0 23 -16.5 39.5t-53.5 31.5l-67 26q-53 22 -79.5 54t-26.5 79q0 67 54 104.5t134 37.5q25 0 53 -5q-15 25 -15 62q0 67 49 106.5t125 39.5q91 0 140 -51
t49 -143v-24h120v-60h-120v-223q0 -63 10.5 -93t42.5 -30q30 0 59 22zM597 -198q1 72 10 146h96q-30 -83 -47 -146h-59z" />
    <glyph glyph-name="scedilla_t.dlig" horiz-adv-x="797" 
d="M777 31q-30 -26 -60 -36.5t-64 -10.5q-76 0 -108 48t-32 138v235h-65v60h65v19q0 72 -21.5 104.5t-68.5 32.5q-34 0 -60 -23t-26 -66q0 -27 11.5 -51.5t37.5 -39.5l-27 -60q-56 35 -121 35q-38 0 -60.5 -14.5t-22.5 -38.5q0 -23 16.5 -36.5t51.5 -28.5l67 -29
q55 -24 81.5 -57t26.5 -82q0 -63 -43 -101.5t-118 -43.5l-10 -33q34 -2 54.5 -21t20.5 -49q0 -36 -28.5 -58t-77.5 -22q-36 0 -65 12l11 42q9 -5 23 -8t25 -3q39 0 39 29q0 14 -10.5 21.5t-27.5 7.5q-22 0 -34 -4l23 87q-82 8 -146 57l34 60q67 -49 140 -49q38 0 60 13.5
t22 40.5q0 23 -16.5 39.5t-53.5 31.5l-67 26q-53 22 -79.5 54t-26.5 79q0 67 54 104.5t134 37.5q25 0 53 -5q-15 25 -15 62q0 67 49 106.5t125 39.5q91 0 140 -51t49 -143v-24h120v-60h-120v-223q0 -63 10.5 -93t42.5 -30q30 0 59 22z" />
    <glyph glyph-name="scommaaccent_t.dlig" horiz-adv-x="797" 
d="M34 0zM777 31q-30 -26 -60 -36.5t-64 -10.5q-76 0 -108 48t-32 138v235h-65v60h65v19q0 72 -21.5 104.5t-68.5 32.5q-34 0 -60 -23t-26 -66q0 -27 11.5 -51.5t37.5 -39.5l-27 -60q-56 35 -121 35q-38 0 -60.5 -14.5t-22.5 -38.5q0 -23 16.5 -36.5t51.5 -28.5l67 -29
q55 -24 81.5 -57t26.5 -82q0 -68 -50 -107t-136 -39q-99 0 -178 59l34 60q67 -49 140 -49q38 0 60 13.5t22 40.5q0 23 -16.5 39.5t-53.5 31.5l-67 26q-53 22 -79.5 54t-26.5 79q0 67 54 104.5t134 37.5q25 0 53 -5q-15 25 -15 62q0 67 49 106.5t125 39.5q91 0 140 -51
t49 -143v-24h120v-60h-120v-223q0 -63 10.5 -93t42.5 -30q30 0 59 22zM170 -198q1 72 10 146h96q-30 -83 -47 -146h-59z" />
    <glyph glyph-name="zero.osf" horiz-adv-x="556" 
d="M98 55.5q-60 71.5 -60 183.5q0 75 30 135.5t86 95.5t132 35q116 0 174.5 -71t58.5 -184q0 -73 -29.5 -134t-84.5 -96.5t-128 -35.5q-119 0 -179 71.5zM360.5 106q25.5 59 25.5 144q0 84 -23 139t-81 55q-60 0 -85.5 -56t-25.5 -139q0 -87 24 -144.5t82 -57.5t83.5 59z
" />
    <glyph glyph-name="one.osf" horiz-adv-x="363" 
d="M283 490v-490h-124v358q-62 -29 -123 -47l-22 50q97 52 198 129h71z" />
    <glyph glyph-name="two.osf" horiz-adv-x="480" 
d="M428 102v-102h-393v81q127 75 196.5 139.5t69.5 129.5q0 36 -23.5 59.5t-66.5 23.5q-35 0 -70 -15t-66 -41l-37 54q44 36 98 55t108 19q88 0 134.5 -38.5t46.5 -100.5q0 -66 -69.5 -133t-185.5 -131h258z" />
    <glyph glyph-name="three.osf" horiz-adv-x="482" 
d="M396.5 166q49.5 -51 49.5 -132q0 -97 -68.5 -152.5t-179.5 -55.5q-53 0 -97 12t-83 39l37 64q61 -44 135 -44q56 0 92 36.5t36 93.5q0 55 -34 86.5t-95 31.5q-39 0 -71 -13v66q109 113 195 197h-272v95h375v-90q-102 -91 -198 -187q19 4 40 4q89 0 138.5 -51z" />
    <glyph glyph-name="four.osf" horiz-adv-x="541" 
d="M523 0h-65v-158h-117v158h-325v82q97 93 154 190t86 218h152q-37 -104 -119 -218t-177 -187h229v145h117v-145h65v-85z" />
    <glyph glyph-name="five.osf" horiz-adv-x="510" 
d="M415 196q55 -56 55 -145q0 -68 -31 -119t-88 -78.5t-133 -27.5q-53 0 -96.5 12t-83.5 39l37 64q31 -22 63 -33t71 -11q60 0 96 39t36 105q0 61 -35.5 96.5t-103.5 35.5q-67 0 -119 -24v341h361v-97h-286v-155q38 14 93 14q109 0 164 -56z" />
    <glyph glyph-name="six.osf" horiz-adv-x="563" 
d="M469 354.5q52 -52.5 52 -146.5q0 -67 -32.5 -118t-84.5 -78.5t-111 -27.5q-127 0 -186 82t-59 213q0 99 33.5 180t102.5 130t169 49q82 0 144 -33l-36 -63q-27 15 -51.5 22t-57.5 7q-87 0 -133.5 -61.5t-48.5 -166.5q32 30 74 47t84 17q89 0 141 -52.5zM375.5 87
q29.5 42 29.5 103q0 63 -27 102t-83 39q-32 0 -65.5 -15t-59.5 -45q3 -106 31.5 -166t91.5 -60q53 0 82.5 42z" />
    <glyph glyph-name="seven.osf" horiz-adv-x="429" 
d="M408 490v-89q-182 -204 -182 -515v-44h-121v40q0 124 56 262t162 248h-310v98h395z" />
    <glyph glyph-name="eight.osf" horiz-adv-x="575" 
d="M490 260q34 -39 34 -99q0 -50 -29.5 -90.5t-83.5 -63.5t-125 -23q-111 0 -173 44t-62 121q0 53 37 97t98 63q-53 28 -83 63.5t-30 96.5q0 45 27 84t78 62t119 23q61 0 109 -18.5t75 -52.5t27 -79q0 -50 -37 -90.5t-98 -57.5l15 -7q68 -34 102 -73zM216 556.5
q-29 -25.5 -29 -64.5q0 -38 24 -60t72 -46l34 -17q37 23 58 53.5t21 63.5q0 38 -27.5 67t-78.5 29q-45 0 -74 -25.5zM373 69q30 26 30 68q0 38 -24 62.5t-80 53.5l-54 27q-71 -43 -71 -125q0 -47 32.5 -79.5t88.5 -32.5q48 0 78 26z" />
    <glyph glyph-name="nine.osf" 
d="M463.5 415q56.5 -90 56.5 -233q0 -100 -34.5 -181t-102 -128t-164.5 -47q-42 0 -83.5 9.5t-71.5 28.5l31 64q57 -35 127 -35q80 0 127 68t49 178q-26 -31 -67.5 -48.5t-89.5 -17.5q-89 0 -144.5 52.5t-55.5 149.5q0 70 32.5 122t87.5 80t119 28q127 0 183.5 -90z
M341.5 165q32.5 15 56.5 43q-2 236 -119 236q-58 0 -89 -44.5t-31 -110.5q0 -60 30.5 -99.5t83.5 -39.5q36 0 68.5 15z" />
    <glyph glyph-name="zero.tf" 
d="M92 76q-60 92 -60 235q0 91 30.5 165.5t89 118t137.5 43.5q119 0 179 -91t60 -235q0 -90 -31 -165t-89 -119t-137 -44q-119 0 -179 92zM363 126q27 73 27 186q0 115 -24 186.5t-81 71.5q-62 0 -88 -72t-26 -187q0 -258 103 -258q62 0 89 73z" />
    <glyph glyph-name="one.tf" 
d="M98 0zM379 623v-623h-128v476q-30 -16 -65.5 -30t-65.5 -22l-22 52q121 64 210 147h71z" />
    <glyph glyph-name="two.tf" 
d="M58 0zM486 105v-105h-428v84q142 107 220 196.5t78 175.5q0 49 -28.5 77t-85.5 28q-71 0 -142 -55l-37 59q47 35 103.5 54t112.5 19q98 0 151 -45t53 -125q0 -85 -78.5 -178.5t-212.5 -184.5h294z" />
    <glyph glyph-name="three.tf" 
d="M53 0zM431.5 309q49.5 -47 49.5 -124q0 -62 -31.5 -107.5t-87.5 -69.5t-129 -24q-52 0 -96.5 12t-83.5 38l37 65q61 -44 135 -44q57 0 92.5 32t35.5 86q0 53 -33.5 83.5t-95.5 30.5q-39 0 -71 -13v65q96 101 190 189h-267v95h375v-90q-93 -79 -198 -181q19 4 40 4
q89 0 138.5 -47z" />
    <glyph glyph-name="four.tf" 
d="M26 0zM520 126h-61v-126h-117v126h-316v81q189 184 233 416h152q-30 -99 -113 -218.5t-177 -194.5h221v151h117v-151h61v-84z" />
    <glyph glyph-name="five.tf" 
d="M57 0zM429 338q54 -55 54 -141q0 -64 -30 -112t-86 -74.5t-130 -26.5q-53 0 -97 12t-83 39l37 64q61 -44 135 -44q57 0 91 36.5t34 95.5q0 58 -34 92t-99 34q-66 0 -119 -23v333h355v-98h-280v-146q43 14 93 14q105 0 159 -55z" />
    <glyph glyph-name="six.tf" 
d="M45 0zM469.5 354.5q53.5 -52.5 53.5 -146.5q0 -67 -33 -118t-86.5 -78.5t-113.5 -27.5q-127 0 -186 82t-59 213q0 99 33.5 180t102.5 130t169 49q82 0 144 -33l-36 -63q-27 15 -51.5 22t-57.5 7q-87 0 -133.5 -61.5t-48.5 -166.5q32 30 74 47t84 17q91 0 144.5 -52.5z
M376 87q31 42 31 103q0 63 -28.5 102t-86.5 39q-32 0 -65.5 -15t-59.5 -45q3 -106 31.5 -166t91.5 -60q55 0 86 42z" />
    <glyph glyph-name="seven.tf" 
d="M89 0zM484 623v-90q-89 -100 -135 -219.5t-46 -270.5v-43h-119v39q0 118 54.5 247t159.5 238h-309v99h395z" />
    <glyph glyph-name="eight.tf" 
d="M37 0zM475 260q34 -39 34 -99q0 -50 -29.5 -90.5t-83.5 -63.5t-125 -23q-111 0 -172.5 44t-61.5 121q0 53 37 97t98 63q-53 28 -83 63.5t-30 96.5q0 45 27 84t77.5 62t119.5 23q61 0 109 -18.5t74.5 -52.5t26.5 -79q0 -50 -37 -90t-98 -58l15 -7q68 -34 102 -73z
M201 556.5q-29 -25.5 -29 -64.5q0 -38 24.5 -60t72.5 -46l33 -17q37 23 58 53.5t21 63.5q0 38 -27.5 67t-78.5 29q-45 0 -74 -25.5zM358 69q30 26 30 68q0 38 -24 62.5t-80 53.5l-54 27q-71 -43 -71 -125q0 -47 33 -79.5t89 -32.5q47 0 77 26z" />
    <glyph glyph-name="nine.tf" 
d="M34 0zM455.5 550.5q56.5 -87.5 56.5 -222.5q0 -98 -32 -175.5t-98.5 -123t-163.5 -45.5q-43 0 -87 9.5t-76 28.5l32 64q61 -35 135 -35q81 0 124 63t44 167q-26 -31 -67.5 -48.5t-89.5 -17.5q-88 0 -143.5 53t-55.5 147q0 68 31 118.5t85.5 77.5t121.5 27
q127 0 183.5 -87.5zM333 307q32 15 57 43q-1 106 -28 166t-91 60q-58 0 -89 -43.5t-31 -102.5t31 -98.5t83 -39.5q36 0 68 15z" />
    <glyph glyph-name="zero.tosf" 
d="M46 0zM106 55.5q-60 71.5 -60 183.5q0 75 30 135.5t86 95.5t132 35q116 0 174.5 -71t58.5 -184q0 -73 -29.5 -134t-84.5 -96.5t-128 -35.5q-119 0 -179 71.5zM368.5 106q25.5 59 25.5 144q0 84 -23 139t-81 55q-60 0 -85.5 -56t-25.5 -139q0 -87 24 -144.5t82 -57.5
t83.5 59z" />
    <glyph glyph-name="one.tosf" 
d="M127 0zM396 490v-490h-124v358q-62 -29 -123 -47l-22 50q97 52 198 129h71z" />
    <glyph glyph-name="two.tosf" 
d="M85 0zM478 102v-102h-393v81q127 75 196.5 139.5t69.5 129.5q0 36 -23.5 59.5t-66.5 23.5q-35 0 -70 -15t-66 -41l-37 54q44 36 98 55t108 19q88 0 134.5 -38.5t46.5 -100.5q0 -66 -69.5 -133t-185.5 -131h258z" />
    <glyph glyph-name="three.tosf" 
d="M68 0zM446.5 166q49.5 -51 49.5 -132q0 -97 -68.5 -152.5t-179.5 -55.5q-53 0 -97 12t-83 39l37 64q61 -44 135 -44q56 0 92 36.5t36 93.5q0 55 -34 86.5t-95 31.5q-39 0 -71 -13v66q109 113 195 197h-272v95h375v-90q-102 -91 -198 -187q19 4 40 4q89 0 138.5 -51z" />
    <glyph glyph-name="four.tosf" 
d="M36 0zM543 0h-65v-158h-117v158h-325v82q97 93 154 190t86 218h152q-37 -104 -119 -218t-177 -187h229v145h117v-145h65v-85z" />
    <glyph glyph-name="five.tosf" 
d="M73 0zM450 196q55 -56 55 -145q0 -68 -31 -119t-88 -78.5t-133 -27.5q-53 0 -96.5 12t-83.5 39l37 64q31 -22 63 -33t71 -11q60 0 96 39t36 105q0 61 -35.5 96.5t-103.5 35.5q-67 0 -119 -24v341h361v-97h-286v-155q38 14 93 14q109 0 164 -56z" />
    <glyph glyph-name="six.tosf" 
d="M62 0zM483 354.5q52 -52.5 52 -146.5q0 -67 -32.5 -118t-84.5 -78.5t-111 -27.5q-127 0 -186 82t-59 213q0 99 33.5 180t102.5 130t169 49q82 0 144 -33l-36 -63q-27 15 -51.5 22t-57.5 7q-87 0 -133.5 -61.5t-48.5 -166.5q32 30 74 47t84 17q89 0 141 -52.5zM389.5 87
q29.5 42 29.5 103q0 63 -27 102t-83 39q-32 0 -65.5 -15t-59.5 -45q3 -106 31.5 -166t91.5 -60q53 0 82.5 42z" />
    <glyph glyph-name="seven.tosf" 
d="M97 0zM492 490v-89q-182 -204 -182 -515v-44h-121v40q0 124 56 262t162 248h-310v98h395z" />
    <glyph glyph-name="eight.tosf" 
d="M59 0zM498 260q34 -39 34 -99q0 -50 -29.5 -90.5t-83.5 -63.5t-125 -23q-111 0 -173 44t-62 121q0 53 37 97t98 63q-53 28 -83 63.5t-30 96.5q0 45 27 84t78 62t119 23q61 0 109 -18.5t75 -52.5t27 -79q0 -50 -37 -90.5t-98 -57.5l15 -7q68 -34 102 -73zM224 556.5
q-29 -25.5 -29 -64.5q0 -38 24 -60t72 -46l34 -17q37 23 58 53.5t21 63.5q0 38 -27.5 67t-78.5 29q-45 0 -74 -25.5zM381 69q30 26 30 68q0 38 -24 62.5t-80 53.5l-54 27q-71 -43 -71 -125q0 -47 32.5 -79.5t88.5 -32.5q48 0 78 26z" />
    <glyph glyph-name="nine.tosf" 
d="M55 0zM477.5 415q56.5 -90 56.5 -233q0 -100 -34.5 -181t-102 -128t-164.5 -47q-42 0 -83.5 9.5t-71.5 28.5l31 64q57 -35 127 -35q80 0 127 68t49 178q-26 -31 -67.5 -48.5t-89.5 -17.5q-89 0 -144.5 52.5t-55.5 149.5q0 70 32.5 122t87.5 80t119 28q127 0 183.5 -90z
M355.5 165q32.5 15 56.5 43q-2 236 -119 236q-58 0 -89 -44.5t-31 -110.5q0 -60 30.5 -99.5t83.5 -39.5q36 0 68.5 15z" />
    <glyph glyph-name="backslash.case" horiz-adv-x="345" 
d="M240 0l-240 623h105l240 -623h-105z" />
    <glyph glyph-name="periodcentered.case" horiz-adv-x="218" 
d="M38 247zM58 266q-20 19 -20 48q0 30 19.5 49t52.5 19q32 0 51 -19t19 -49q0 -29 -19 -48t-52 -19q-31 0 -51 19z" />
    <glyph glyph-name="bullet.case" horiz-adv-x="484" 
d="M85 159zM163 180.5q-36 21.5 -57 58.5t-21 81q0 45 21 82t57 58.5t79 21.5t79 -21.5t57 -58.5t21 -81q0 -45 -21 -82t-56.5 -58.5t-78.5 -21.5q-44 0 -80 21.5z" />
    <glyph glyph-name="exclamdown.case" horiz-adv-x="300" 
d="M75 0zM204 619q20 -19 20 -48q0 -30 -19.5 -49t-52.5 -19q-32 0 -51 19t-19 49q0 29 19 48t52 19q31 0 51 -19zM226 0h-151q26 253 34 415h84q10 -171 33 -415z" />
    <glyph glyph-name="questiondown.case" horiz-adv-x="378" 
d="M0 0zM264.5 621q20.5 -19 20.5 -48q0 -30 -19.5 -49t-52.5 -19q-32 0 -51.5 19t-19.5 49q0 29 19 48t52 19q31 0 51.5 -19zM260 371q0 -65 -42 -109q-9 -9 -39 -34q-29 -24 -41.5 -41t-12.5 -47q0 -34 24.5 -55.5t66.5 -21.5q65 0 124 49l39 -59q-33 -29 -84.5 -48
t-107.5 -19q-93 0 -141 41t-48 103q0 48 28 83.5t79 70.5q44 31 59 59.5t12 73.5h78q6 -21 6 -46z" />
    <glyph glyph-name="slash.case" horiz-adv-x="345" 
d="M240 623h105l-240 -623h-105z" />
    <glyph glyph-name="numbersign.osf" horiz-adv-x="660" 
d="M523 356l-39 -145h114l-20 -75h-115l-37 -136h-85l37 136h-158l-37 -136h-86l37 136h-111l20 75h111l39 145h-121l20 76h122l32 118h86l-32 -118h158l32 118h86l-32 -118h103l-20 -76h-104zM437 356h-158l-39 -145h158z" />
    <glyph glyph-name="braceleft.case" horiz-adv-x="305" 
d="M188 582q0 -15 5 -30.5t16 -39.5q13 -27 20.5 -50t7.5 -47q0 -31 -19 -60.5t-60 -43.5q41 -14 60 -44t19 -60q0 -24 -7 -46t-20 -51q-11 -23 -16.5 -39t-5.5 -32q0 -46 55 -46q17 0 30 6v-43q-17 -7 -59 -7q-61 0 -100 27t-39 74q0 21 6.5 41t20.5 52q12 29 18 46.5
t6 35.5q0 24 -15 40.5t-47 16.5h-9v57h9q32 0 47 18.5t15 46.5q0 17 -6.5 35.5t-18.5 45.5q-13 27 -19.5 46.5t-6.5 38.5q0 48 38 75t101 27q43 0 59 -8v-41q-11 5 -30 5q-55 0 -55 -46z" />
    <glyph glyph-name="braceright.case" horiz-adv-x="305" 
d="M250 340v-57h-9q-32 0 -47 -18.5t-15 -46.5q0 -17 6.5 -35.5t18.5 -45.5q13 -27 19.5 -46.5t6.5 -38.5q0 -48 -38 -75t-101 -27q-43 0 -59 8v41q11 -5 30 -5q55 0 55 46q0 15 -5 30.5t-16 39.5q-13 27 -20.5 50t-7.5 47q0 31 19 60.5t60 43.5q-41 14 -60 44t-19 60
q0 24 7 46t20 51q11 23 16.5 39t5.5 32q0 46 -55 46q-17 0 -30 -6v43q17 7 59 7q61 0 100 -27t39 -74q0 -21 -6.5 -41t-20.5 -52q-12 -29 -18 -46.5t-6 -35.5q0 -24 15 -40.5t47 -16.5h9z" />
    <glyph glyph-name="bracketleft.case" horiz-adv-x="300" 
d="M65 668h215v-66h-96v-582h96v-65h-215v713z" />
    <glyph glyph-name="bracketright.case" horiz-adv-x="300" 
d="M235 -45h-215v66h96v582h-96v65h215v-713z" />
    <glyph glyph-name="parenleft.case" horiz-adv-x="284" 
d="M84 111.5q-41 91.5 -41 199.5q0 110 40.5 201.5t119.5 155.5h72q-52 -67 -77 -163t-25 -194q0 -101 25 -194t77 -162h-72q-78 65 -119 156.5z" />
    <glyph glyph-name="parenright.case" horiz-adv-x="284" 
d="M200 511.5q41 -91.5 41 -199.5q0 -110 -40.5 -201.5t-119.5 -155.5h-72q52 67 77 163t25 194q0 101 -25 194t-77 162h72q78 -65 119 -156.5z" />
    <glyph glyph-name="emdash.case" horiz-adv-x="910" 
d="M40 283zM40 357h830v-74h-830v74z" />
    <glyph glyph-name="endash.case" horiz-adv-x="550" 
d="M40 284zM40 357h470v-73h-470v73z" />
    <glyph glyph-name="hyphen.case" horiz-adv-x="310" 
d="M40 355h230v-70h-230v70z" />
    <glyph glyph-name="uni00AD.case" horiz-adv-x="310" 
d="M40 285zM40 355h230v-70h-230v70z" />
    <glyph glyph-name="guillemotleft.case" horiz-adv-x="397" 
d="M18 153zM130 329q6 -11 20 -33q3 -6 26 -44t39 -78l-40 -21q-46 55 -157 166v2l19 19q98 100 138 147l40 -21q-27 -56 -85 -137zM307 329q6 -11 20 -33q3 -6 26 -44t39 -78l-40 -21q-46 55 -157 166v2l19 19q98 100 138 147l40 -21q-27 -56 -85 -137z" />
    <glyph glyph-name="guillemotright.case" horiz-adv-x="397" 
d="M202 319l-19 -19q-98 -100 -138 -147l-40 21q27 56 85 137q-6 11 -20 33q-3 6 -26 44t-39 78l40 21q46 -55 157 -166v-2zM379 321v-2l-19 -19q-98 -100 -138 -147l-40 21q27 56 85 137q-6 11 -20 33q-3 6 -26 44t-39 78l40 21q46 -55 157 -166z" />
    <glyph glyph-name="guilsinglleft.case" horiz-adv-x="220" 
d="M130 329q6 -11 20 -33q3 -6 26 -44t39 -78l-40 -21q-46 55 -157 166v2l19 19q98 100 138 147l40 -21q-27 -56 -85 -137z" />
    <glyph glyph-name="guilsinglright.case" horiz-adv-x="220" 
d="M202 321v-2l-19 -19q-98 -100 -138 -147l-40 21q27 56 85 137q-6 11 -20 33q-3 6 -26 44t-39 78l40 21q46 -55 157 -166z" />
    <glyph glyph-name="cent.osf" horiz-adv-x="465" 
d="M323 45v-93h-58v91q-109 6 -169.5 67.5t-60.5 157.5q0 64 28.5 115t80.5 82.5t121 38.5v72h58v-71q39 -2 73 -11.5t56 -26.5l-30 -55q-44 26 -99 29v-326q57 5 100 34l33 -53q-50 -43 -133 -51zM185 174.5q26 -44.5 80 -56.5v318q-52 -13 -79 -56.5t-27 -96.5
q0 -64 26 -108.5z" />
    <glyph glyph-name="dollar.osf" horiz-adv-x="497" 
d="M411 37q-43 -41 -122 -50v-74h-58v71q-50 3 -104.5 23t-87.5 51l44 68q33 -29 71.5 -46.5t76.5 -21.5v166l-55 24q-64 28 -93.5 65t-29.5 90q0 67 48.5 110t129.5 51v73h58v-71q45 -3 85 -16t69 -33l-34 -68q-57 43 -120 47v-177l51 -24q114 -52 114 -153q0 -64 -43 -105
zM177.5 384.5q15.5 -19.5 53.5 -38.5v148q-69 -11 -69 -64q0 -26 15.5 -45.5zM351 122q0 26 -15 43t-47 33v-138q62 9 62 62z" />
    <glyph glyph-name="Euro.osf" horiz-adv-x="593" 
d="M583 52q-84 -68 -196 -68q-107 0 -179 53t-95 148h-78v57h69l-1 27q0 25 3 47h-71v57h84q29 88 108 140.5t186 52.5q50 0 90.5 -12t77.5 -38l-38 -66q-28 22 -58.5 32t-69.5 10q-62 0 -104.5 -31.5t-61.5 -87.5h160v-57h-173q-2 -26 -2 -39t2 -35h173v-57h-162
q18 -59 61 -91t105 -32q75 0 135 49z" />
    <glyph glyph-name="florin.osf" horiz-adv-x="416" 
d="M299 473q-16 -34 -24 -108l-5 -50h95v-60h-102l-15 -137q-13 -115 -64 -173t-153 -58q-20 0 -45 7t-44 21l30 52q17 -11 31.5 -16t31.5 -5q43 0 60.5 34t25.5 109l19 166h-88v60h95l2 20q12 110 61.5 170.5t136.5 60.5q28 0 54.5 -8t44.5 -24l-32 -49q-13 10 -29.5 16
t-31.5 6q-38 0 -54 -34z" />
    <glyph glyph-name="sterling.osf" horiz-adv-x="463" 
d="M438 97v-97h-400v80q47 20 70 49t23 78q0 27 -6 48h-81v60h58q-10 24 -15.5 44t-5.5 44q0 69 49.5 116t150.5 47q89 0 155 -47l-36 -54q-55 42 -116 42q-43 0 -66.5 -22.5t-23.5 -66.5q0 -26 6 -45.5t13.5 -35.5t10.5 -22h148v-60h-129q2 -16 2 -25q0 -47 -22.5 -80.5
t-64.5 -52.5h280z" />
    <glyph glyph-name="yen.osf" horiz-adv-x="516" 
d="M422.5 412q-37.5 -60 -85.5 -128h99v-58h-111v-58h111v-57h-111v-111h-126v111h-111v57h111v58h-111v58h98l-168 266h148l126 -214q61 116 102 214h109q-43 -78 -80.5 -138z" />
    <glyph glyph-name="cent.tf" 
d="M66 0zM436 90q-35 -13 -74 -17v-89h-59v88q-112 6 -174.5 71.5t-62.5 168.5q0 68 29.5 122.5t83 88.5t124.5 41v74h59v-73q38 -2 72.5 -11.5t57.5 -25.5l-30 -56q-45 26 -100 30v-358q58 3 101 33l33 -53q-25 -21 -60 -34zM219 209q27 -48 84 -62v350
q-54 -15 -82.5 -63.5t-28.5 -107.5q0 -69 27 -117z" />
    <glyph glyph-name="dollar.tf" 
d="M65 0zM440.5 69.5q-43.5 -41.5 -123.5 -51.5v-81h-58v79q-50 3 -104.5 23.5t-89.5 52.5l44 67q76 -58 150 -65v161l-56 28q-66 31 -96.5 68t-30.5 91q0 71 49.5 112.5t133.5 49.5v64h58v-62q45 -2 84 -14t68 -32l-35 -69q-56 39 -117 42v-172l50 -26q59 -30 88 -66
t29 -93q0 -65 -43.5 -106.5zM205 428q15 -16 54 -36v139q-69 -11 -69 -62q0 -25 15 -41zM377 151q0 24 -13 40t-47 35v-130q60 9 60 55z" />
    <glyph glyph-name="Euro.tf" 
d="M579 48q-40 -31 -94 -47.5t-111 -16.5q-114 0 -190.5 61t-99.5 168h-76v58h68q-1 11 -1 34q0 19 1 29h-68v58h77q17 73 61 129t109.5 86.5t144.5 30.5q102 0 176 -48l-38 -67q-56 42 -126 42q-76 0 -124 -47.5t-65 -125.5h166v-58h-173v-17q0 -16 2 -46h171v-58h-160
q19 -69 63 -110t111 -41q81 0 141 45z" />
    <glyph glyph-name="florin.tf" 
d="M0 0zM482 630q27 -8 45 -23l-32 -49q-13 10 -30 15.5t-32 5.5q-45 0 -64 -34t-30 -108l-11 -79h100v-59h-109l-26 -179q-17 -115 -68 -173t-151 -58q-21 0 -46 7t-44 21l29 52q17 -11 31.5 -16t31.5 -5q43 0 61 33.5t29 108.5l30 209h-84v59h93l7 50q16 109 69 169.5
t146 60.5q28 0 55 -8z" />
    <glyph glyph-name="sterling.tf" 
d="M90 0zM276 166.5q-26 -40.5 -70 -64.5h280v-102h-396v84q45 23 69 63.5t24 92.5q0 29 -6 53h-81v60h61q-14 36 -21 60.5t-7 55.5q0 45 22.5 83.5t69 62t115.5 23.5q88 0 154 -47l-36 -53q-56 42 -116 42q-42 0 -67.5 -26t-25.5 -70q0 -29 7 -51.5t21 -55.5l10 -24h134
v-60h-118q3 -16 3 -37q0 -49 -26 -89.5z" />
    <glyph glyph-name="yen.tf" 
d="M6 0zM353 319h103v-58h-110v-49h110v-58h-110v-154h-127v154h-110v58h110v49h-110v58h97l-200 303h149l157 -247q7 13 14.5 28.5t17.5 33.5q61 117 89 185h110q-70 -125 -190 -303z" />
    <glyph glyph-name="cent.tosf" 
d="M80 0zM368 45v-93h-58v91q-109 6 -169.5 67.5t-60.5 157.5q0 64 28.5 115t80.5 82.5t121 38.5v72h58v-71q39 -2 73 -11.5t56 -26.5l-30 -55q-44 26 -99 29v-326q57 5 100 34l33 -53q-50 -43 -133 -51zM230 174.5q26 -44.5 80 -56.5v318q-52 -13 -79 -56.5t-27 -96.5
q0 -64 26 -108.5z" />
    <glyph glyph-name="dollar.tosf" 
d="M67 0zM439 37q-43 -41 -122 -50v-74h-58v71q-50 3 -104.5 23t-87.5 51l44 68q33 -29 71.5 -46.5t76.5 -21.5v166l-55 24q-64 28 -93.5 65t-29.5 90q0 67 48.5 110t129.5 51v73h58v-71q45 -3 85 -16t69 -33l-34 -68q-57 43 -120 47v-177l51 -24q114 -52 114 -153
q0 -64 -43 -105zM205.5 384.5q15.5 -19.5 53.5 -38.5v148q-69 -11 -69 -64q0 -26 15.5 -45.5zM379 122q0 26 -15 43t-47 33v-138q62 9 62 62z" />
    <glyph glyph-name="Euro.tosf" 
d="M563 52q-84 -68 -196 -68q-104 0 -172.5 53t-91.5 148h-78v57h69q-1 9 -1 27q0 17 2 47h-70v57h83q29 89 105 141t180 52q50 0 90.5 -12t77.5 -38l-38 -66q-28 22 -58.5 32t-69.5 10q-59 0 -99 -31.5t-58 -87.5h161v-57h-173q-2 -26 -2 -39t2 -35h173v-57h-163
q17 -59 57.5 -91t99.5 -32q75 0 135 49z" />
    <glyph glyph-name="florin.tosf" 
d="M25 0zM382 473q-16 -34 -24 -108l-5 -50h95v-60h-102l-15 -137q-13 -115 -64 -173t-153 -58q-20 0 -45 7t-44 21l30 52q17 -11 31.5 -16t31.5 -5q43 0 60.5 34t25.5 109l19 166h-88v60h95l2 20q12 110 61.5 170.5t136.5 60.5q28 0 54.5 -8t44.5 -24l-32 -49
q-13 10 -29.5 16t-31.5 6q-38 0 -54 -34z" />
    <glyph glyph-name="sterling.tosf" 
d="M94 0zM494 97v-97h-400v80q47 20 70 49t23 78q0 27 -6 48h-81v60h58q-10 24 -15.5 44t-5.5 44q0 69 49.5 116t150.5 47q89 0 155 -47l-36 -54q-55 42 -116 42q-43 0 -66.5 -22.5t-23.5 -66.5q0 -26 6 -45.5t13.5 -35.5t10.5 -22h148v-60h-129q2 -16 2 -25
q0 -47 -22.5 -80.5t-64.5 -52.5h280z" />
    <glyph glyph-name="yen.tosf" 
d="M40 0zM444.5 412q-37.5 -60 -85.5 -128h99v-58h-111v-58h111v-57h-111v-111h-126v111h-111v57h111v58h-111v58h98l-168 266h148l126 -214q61 116 102 214h109q-43 -78 -80.5 -138z" />
    <glyph glyph-name="percent.osf" horiz-adv-x="629" 
d="M61.5 345q-33.5 38 -33.5 89q0 34 15 64.5t44 49t69 18.5q61 0 94.5 -39t33.5 -92q0 -52 -34.5 -90t-94.5 -38t-93.5 38zM464 550h81l-386 -550h-80zM192 371q12 25 12 64t-12.5 64.5t-36.5 25.5q-23 0 -35 -26t-12 -65q0 -37 12.5 -62.5t35.5 -25.5q24 0 36 25z
M382 22.5q-33 38.5 -33 91.5q0 33 15 62.5t44 48t69 18.5q60 0 92 -38t32 -90q0 -53 -33.5 -92t-91.5 -39q-61 0 -94 38.5zM511.5 50.5q11.5 25.5 11.5 64.5t-12 63.5t-35 24.5q-24 0 -36 -25t-12 -64q0 -38 12.5 -63.5t36.5 -25.5q23 0 34.5 25.5z" />
    <glyph glyph-name="perthousand.osf" horiz-adv-x="920" 
d="M61.5 345q-33.5 38 -33.5 89q0 34 15 64.5t44 49t69 18.5q61 0 94.5 -39t33.5 -92q0 -52 -34.5 -90t-94.5 -38t-93.5 38zM464 550h81l-386 -550h-80zM192 371q12 25 12 64t-12.5 64.5t-36.5 25.5q-23 0 -35 -26t-12 -65q0 -37 12.5 -62.5t35.5 -25.5q24 0 36 25z
M382 22.5q-33 38.5 -33 91.5q0 33 15 62.5t44 48t69 18.5q60 0 92 -38t32 -90q0 -53 -33.5 -92t-91.5 -39q-61 0 -94 38.5zM681 22.5q-33 38.5 -33 91.5q0 33 15 62.5t44 48t69 18.5q60 0 92 -38t32 -90q0 -53 -33.5 -92t-91.5 -39q-61 0 -94 38.5zM511.5 50.5
q11.5 25.5 11.5 64.5t-12 63.5t-35 24.5q-24 0 -36 -25t-12 -64q0 -38 12.5 -63.5t36.5 -25.5q23 0 34.5 25.5zM810.5 50.5q11.5 25.5 11.5 64.5t-12 63.5t-35 24.5q-24 0 -36 -25t-12 -64q0 -38 12.5 -63.5t36.5 -25.5q23 0 34.5 25.5z" />
    <glyph glyph-name="at.case" horiz-adv-x="842" 
d="M497 369q2 100 -86 100q-62 0 -119 -35l-25 46q31 21 76 34t88 13q168 0 162 -154l-4 -113q0 -37 9 -58t36 -21q44 0 64 44t20 114q0 84 -33 147.5t-94 98.5t-144 35q-84 0 -153.5 -38t-110.5 -109t-41 -168q0 -147 75 -228t207 -81q114 0 218 65l32 -53
q-61 -41 -131.5 -60.5t-139.5 -19.5q-123 0 -206.5 47.5t-125 129.5t-41.5 185q0 116 56.5 205.5t155.5 138.5t222 49q100 0 181 -36.5t129 -110t48 -181.5q0 -102 -51.5 -171t-157.5 -69q-38 0 -67.5 16.5t-39.5 49.5q-20 -32 -53.5 -48t-75.5 -16q-58 0 -95 30.5t-37 87.5
q0 64 51 99.5t135 35.5q33 0 66 -7v6zM468.5 210.5q24.5 27.5 25.5 82.5l1 28q-22 6 -53 6q-48 0 -74 -19.5t-26 -56.5q0 -32 17.5 -50t45.5 -18q39 0 63.5 27.5z" />
    <glyph glyph-name="uni0308.case" horiz-adv-x="0" 
d="M-393 701.5q-17 17.5 -17 42.5q0 26 17.5 44t45.5 18q26 0 43 -18t17 -43q0 -24 -18 -42.5t-45 -18.5q-26 0 -43 17.5zM-196 701.5q-17 17.5 -17 42.5q0 26 17.5 44t45.5 18q26 0 43 -18t17 -43q0 -24 -17.5 -42.5t-44.5 -18.5t-44 17.5z" />
    <glyph glyph-name="uni0307.case" horiz-adv-x="0" 
d="M-318 705q-19 18 -19 48t19 49t57 19t57.5 -19t19.5 -48q0 -30 -20.5 -48.5t-57.5 -18.5t-56 18z" />
    <glyph glyph-name="gravecomb.case" horiz-adv-x="0" 
d="M-375 746l54 77q40 -20 87 -49t83 -58l-23 -36q-133 49 -201 66z" />
    <glyph glyph-name="acutecomb.case" horiz-adv-x="0" 
d="M-383 714q53 43 163 111l63 -70q-106 -34 -205 -76z" />
    <glyph glyph-name="uni030B.case" horiz-adv-x="0" 
d="M-476 698q31 36 127 121l79 -42q-62 -36 -175 -108zM-310 697q38 35 144 107l74 -52q-93 -39 -191 -84z" />
    <glyph glyph-name="uni0302.case" horiz-adv-x="0" 
d="M-158 676q-44 24 -109 66q-38 -25 -107 -66l-27 31q64 56 114 103h47q50 -47 114 -103z" />
    <glyph glyph-name="uni030C.case" horiz-adv-x="0" 
d="M-109 782q-68 -59 -114 -104h-47q-46 45 -114 104l32 31q44 -25 108 -66l83 52q8 4 24 14z" />
    <glyph glyph-name="uni0306.case" horiz-adv-x="0" 
d="M-341 705q-39 25 -57 75l36 18q20 -25 49 -38t58 -13q28 0 54.5 13t47.5 38l34 -15q-16 -52 -54 -77.5t-84 -25.5q-45 0 -84 25z" />
    <glyph glyph-name="uni030A.case" horiz-adv-x="0" 
d="M-367 690q-25 20 -25 58t28 61.5t70 23.5q49 0 75 -21t26 -61q0 -37 -29.5 -59t-72.5 -22q-47 0 -72 20zM-268.5 718.5q8.5 13.5 8.5 33.5t-7.5 34t-25.5 14q-15 0 -24 -15t-9 -34q0 -46 33 -46q16 0 24.5 13.5z" />
    <glyph glyph-name="tildecomb.case" horiz-adv-x="0" 
d="M-415 703q21 49 45 73.5t56 24.5q13 0 22.5 -4t25.5 -12l43 -24q19 -12 31 -12q13 0 23.5 10.5t25.5 37.5l37 -18q-18 -47 -43.5 -72.5t-56.5 -25.5q-15 0 -25.5 3t-22.5 10l-44 26q-3 2 -12.5 7.5t-20.5 5.5q-13 0 -23 -11t-26 -39z" />
    <glyph glyph-name="uni0304.case" horiz-adv-x="0" 
d="M-373 780h247v-65h-247v65z" />
    <glyph glyph-name="acutecomb.loclPLK" horiz-adv-x="0" 
d="M-341 541q26 56 45 134l112 -20q-29 -41 -51.5 -71t-48.5 -57z" />
    <glyph glyph-name="acutecomb.case.loclPLK" horiz-adv-x="0" 
d="M-317 693q24 66 37 134l97 -19q-44 -83 -90 -132z" />
    <glyph glyph-name="acute.case" horiz-adv-x="543" 
d="M160 679zM160 714q53 43 163 111l63 -70q-106 -34 -205 -76z" />
    <glyph glyph-name="breve.case" horiz-adv-x="543" 
d="M113 680zM170 705q-39 25 -57 75l36 18q20 -25 49 -38t58 -13q28 0 54.5 13t47.5 38l34 -15q-16 -52 -54 -77.5t-84 -25.5q-45 0 -84 25z" />
    <glyph glyph-name="caron.case" horiz-adv-x="543" 
d="M116 678zM391 782q-68 -59 -114 -104h-47q-46 45 -114 104l32 31q44 -25 108 -66l83 52q8 4 24 14z" />
    <glyph glyph-name="circumflex.case" horiz-adv-x="543" 
d="M131 676zM374 676q-44 24 -109 66q-38 -25 -107 -66l-27 31q64 56 114 103h47q50 -47 114 -103z" />
    <glyph glyph-name="dieresis.case" horiz-adv-x="543" 
d="M90 684zM107 701.5q-17 17.5 -17 42.5q0 26 17.5 44t45.5 18q26 0 43 -18t17 -43q0 -24 -18 -42.5t-45 -18.5q-26 0 -43 17.5zM304 701.5q-17 17.5 -17 42.5q0 26 17.5 44t45.5 18q26 0 43 -18t17 -43q0 -24 -17.5 -42.5t-44.5 -18.5t-44 17.5z" />
    <glyph glyph-name="dotaccent.case" horiz-adv-x="543" 
d="M174 687zM193 705q-19 18 -19 48t19 49t57 19t57.5 -19t19.5 -48q0 -30 -20.5 -48.5t-57.5 -18.5t-56 18z" />
    <glyph glyph-name="grave.case" horiz-adv-x="543" 
d="M157 680zM157 746l54 77q40 -20 87 -49t83 -58l-23 -36q-133 49 -201 66z" />
    <glyph glyph-name="hungarumlaut.case" horiz-adv-x="543" 
d="M67 668zM67 698q31 36 127 121l79 -42q-62 -36 -175 -108zM233 697q38 35 144 107l74 -52q-93 -39 -191 -84z" />
    <glyph glyph-name="macron.case" horiz-adv-x="543" 
d="M127 715zM127 780h247v-65h-247v65z" />
    <glyph glyph-name="ring.case" horiz-adv-x="543" 
d="M151 670zM176 690q-25 20 -25 58t28 61.5t70 23.5q49 0 75 -21t26 -61q0 -37 -29.5 -59t-72.5 -22q-47 0 -72 20zM274.5 718.5q8.5 13.5 8.5 33.5t-7.5 34t-25.5 14q-15 0 -24 -15t-9 -34q0 -46 33 -46q16 0 24.5 13.5z" />
    <glyph glyph-name="tilde.case" horiz-adv-x="543" 
d="M96 681zM96 703q21 49 45 73.5t56 24.5q13 0 22.5 -4t25.5 -12l43 -24q19 -12 31 -12q13 0 23.5 10.5t25.5 37.5l37 -18q-18 -47 -43.5 -72.5t-56.5 -25.5q-15 0 -25.5 3t-22.5 10l-44 26q-3 2 -12.5 7.5t-20.5 5.5q-13 0 -23 -11t-26 -39z" />
    <glyph glyph-name="acute.loclPLK" horiz-adv-x="600" 
d="M234 527zM234 541q26 56 45 134l112 -20q-29 -41 -51.5 -71t-48.5 -57z" />
    <glyph glyph-name="acute.case.loclPLK" horiz-adv-x="600" 
d="M183 676zM183 693q24 66 37 134l97 -19q-44 -83 -90 -132z" />
    <glyph glyph-name=".ttfautohint" horiz-adv-x="600" 
d="M0 0z" />
    </font>
</defs>
</svg>
